<?xml version="1.0" encoding="utf-8" standalone="no"?>
<!DOCTYPE svg PUBLIC "-//W3C//DTD SVG 1.1//EN"
  "http://www.w3.org/Graphics/SVG/1.1/DTD/svg11.dtd">
<!-- Created with matplotlib (https://matplotlib.org/) -->
<svg height="246.393377pt" version="1.1" viewBox="0 0 386.734652 246.393377" width="386.734652pt" xmlns="http://www.w3.org/2000/svg" xmlns:xlink="http://www.w3.org/1999/xlink">
 <defs>
  <style type="text/css">
*{stroke-linecap:butt;stroke-linejoin:round;}
  </style>
 </defs>
 <g id="figure_1">
  <g id="patch_1">
   <path d="M 0 246.393377 
L 386.734652 246.393377 
L 386.734652 0 
L 0 0 
z
" style="fill:#ffffff;"/>
  </g>
  <g id="axes_1">
   <g id="patch_2">
    <path d="M 44.734652 203.04 
L 379.534652 203.04 
L 379.534652 7.2 
L 44.734652 7.2 
z
" style="fill:#ffffff;"/>
   </g>
   <g id="matplotlib.axis_1">
    <g id="xtick_1">
     <g id="line2d_1">
      <defs>
       <path d="M 0 0 
L 0 3.5 
" id="me5766ee47b" style="stroke:#000000;stroke-width:0.8;"/>
      </defs>
      <g>
       <use style="stroke:#000000;stroke-width:0.8;" x="48.017005" xlink:href="#me5766ee47b" y="203.04"/>
      </g>
     </g>
     <g id="text_1">
      <!-- 01/2016 -->
      <defs>
       <path d="M 31.78125 66.40625 
Q 24.171875 66.40625 20.328125 58.90625 
Q 16.5 51.421875 16.5 36.375 
Q 16.5 21.390625 20.328125 13.890625 
Q 24.171875 6.390625 31.78125 6.390625 
Q 39.453125 6.390625 43.28125 13.890625 
Q 47.125 21.390625 47.125 36.375 
Q 47.125 51.421875 43.28125 58.90625 
Q 39.453125 66.40625 31.78125 66.40625 
z
M 31.78125 74.21875 
Q 44.046875 74.21875 50.515625 64.515625 
Q 56.984375 54.828125 56.984375 36.375 
Q 56.984375 17.96875 50.515625 8.265625 
Q 44.046875 -1.421875 31.78125 -1.421875 
Q 19.53125 -1.421875 13.0625 8.265625 
Q 6.59375 17.96875 6.59375 36.375 
Q 6.59375 54.828125 13.0625 64.515625 
Q 19.53125 74.21875 31.78125 74.21875 
z
" id="DejaVuSans-48"/>
       <path d="M 12.40625 8.296875 
L 28.515625 8.296875 
L 28.515625 63.921875 
L 10.984375 60.40625 
L 10.984375 69.390625 
L 28.421875 72.90625 
L 38.28125 72.90625 
L 38.28125 8.296875 
L 54.390625 8.296875 
L 54.390625 0 
L 12.40625 0 
z
" id="DejaVuSans-49"/>
       <path d="M 25.390625 72.90625 
L 33.6875 72.90625 
L 8.296875 -9.28125 
L 0 -9.28125 
z
" id="DejaVuSans-47"/>
       <path d="M 19.1875 8.296875 
L 53.609375 8.296875 
L 53.609375 0 
L 7.328125 0 
L 7.328125 8.296875 
Q 12.9375 14.109375 22.625 23.890625 
Q 32.328125 33.6875 34.8125 36.53125 
Q 39.546875 41.84375 41.421875 45.53125 
Q 43.3125 49.21875 43.3125 52.78125 
Q 43.3125 58.59375 39.234375 62.25 
Q 35.15625 65.921875 28.609375 65.921875 
Q 23.96875 65.921875 18.8125 64.3125 
Q 13.671875 62.703125 7.8125 59.421875 
L 7.8125 69.390625 
Q 13.765625 71.78125 18.9375 73 
Q 24.125 74.21875 28.421875 74.21875 
Q 39.75 74.21875 46.484375 68.546875 
Q 53.21875 62.890625 53.21875 53.421875 
Q 53.21875 48.921875 51.53125 44.890625 
Q 49.859375 40.875 45.40625 35.40625 
Q 44.1875 33.984375 37.640625 27.21875 
Q 31.109375 20.453125 19.1875 8.296875 
z
" id="DejaVuSans-50"/>
       <path d="M 33.015625 40.375 
Q 26.375 40.375 22.484375 35.828125 
Q 18.609375 31.296875 18.609375 23.390625 
Q 18.609375 15.53125 22.484375 10.953125 
Q 26.375 6.390625 33.015625 6.390625 
Q 39.65625 6.390625 43.53125 10.953125 
Q 47.40625 15.53125 47.40625 23.390625 
Q 47.40625 31.296875 43.53125 35.828125 
Q 39.65625 40.375 33.015625 40.375 
z
M 52.59375 71.296875 
L 52.59375 62.3125 
Q 48.875 64.0625 45.09375 64.984375 
Q 41.3125 65.921875 37.59375 65.921875 
Q 27.828125 65.921875 22.671875 59.328125 
Q 17.53125 52.734375 16.796875 39.40625 
Q 19.671875 43.65625 24.015625 45.921875 
Q 28.375 48.1875 33.59375 48.1875 
Q 44.578125 48.1875 50.953125 41.515625 
Q 57.328125 34.859375 57.328125 23.390625 
Q 57.328125 12.15625 50.6875 5.359375 
Q 44.046875 -1.421875 33.015625 -1.421875 
Q 20.359375 -1.421875 13.671875 8.265625 
Q 6.984375 17.96875 6.984375 36.375 
Q 6.984375 53.65625 15.1875 63.9375 
Q 23.390625 74.21875 37.203125 74.21875 
Q 40.921875 74.21875 44.703125 73.484375 
Q 48.484375 72.75 52.59375 71.296875 
z
" id="DejaVuSans-54"/>
      </defs>
      <g transform="translate(10.999219 237.392315)rotate(-30)scale(0.1 -0.1)">
       <use xlink:href="#DejaVuSans-48"/>
       <use x="63.623047" xlink:href="#DejaVuSans-49"/>
       <use x="127.246094" xlink:href="#DejaVuSans-47"/>
       <use x="160.9375" xlink:href="#DejaVuSans-50"/>
       <use x="224.560547" xlink:href="#DejaVuSans-48"/>
       <use x="288.183594" xlink:href="#DejaVuSans-49"/>
       <use x="351.806641" xlink:href="#DejaVuSans-54"/>
      </g>
     </g>
    </g>
    <g id="xtick_2">
     <g id="line2d_2">
      <g>
       <use style="stroke:#000000;stroke-width:0.8;" x="85.874308" xlink:href="#me5766ee47b" y="203.04"/>
      </g>
     </g>
     <g id="text_2">
      <!-- 04/2016 -->
      <defs>
       <path d="M 37.796875 64.3125 
L 12.890625 25.390625 
L 37.796875 25.390625 
z
M 35.203125 72.90625 
L 47.609375 72.90625 
L 47.609375 25.390625 
L 58.015625 25.390625 
L 58.015625 17.1875 
L 47.609375 17.1875 
L 47.609375 0 
L 37.796875 0 
L 37.796875 17.1875 
L 4.890625 17.1875 
L 4.890625 26.703125 
z
" id="DejaVuSans-52"/>
      </defs>
      <g transform="translate(48.856521 237.392315)rotate(-30)scale(0.1 -0.1)">
       <use xlink:href="#DejaVuSans-48"/>
       <use x="63.623047" xlink:href="#DejaVuSans-52"/>
       <use x="127.246094" xlink:href="#DejaVuSans-47"/>
       <use x="160.9375" xlink:href="#DejaVuSans-50"/>
       <use x="224.560547" xlink:href="#DejaVuSans-48"/>
       <use x="288.183594" xlink:href="#DejaVuSans-49"/>
       <use x="351.806641" xlink:href="#DejaVuSans-54"/>
      </g>
     </g>
    </g>
    <g id="xtick_3">
     <g id="line2d_3">
      <g>
       <use style="stroke:#000000;stroke-width:0.8;" x="123.731611" xlink:href="#me5766ee47b" y="203.04"/>
      </g>
     </g>
     <g id="text_3">
      <!-- 07/2016 -->
      <defs>
       <path d="M 8.203125 72.90625 
L 55.078125 72.90625 
L 55.078125 68.703125 
L 28.609375 0 
L 18.3125 0 
L 43.21875 64.59375 
L 8.203125 64.59375 
z
" id="DejaVuSans-55"/>
      </defs>
      <g transform="translate(86.713824 237.392315)rotate(-30)scale(0.1 -0.1)">
       <use xlink:href="#DejaVuSans-48"/>
       <use x="63.623047" xlink:href="#DejaVuSans-55"/>
       <use x="127.246094" xlink:href="#DejaVuSans-47"/>
       <use x="160.9375" xlink:href="#DejaVuSans-50"/>
       <use x="224.560547" xlink:href="#DejaVuSans-48"/>
       <use x="288.183594" xlink:href="#DejaVuSans-49"/>
       <use x="351.806641" xlink:href="#DejaVuSans-54"/>
      </g>
     </g>
    </g>
    <g id="xtick_4">
     <g id="line2d_4">
      <g>
       <use style="stroke:#000000;stroke-width:0.8;" x="162.004928" xlink:href="#me5766ee47b" y="203.04"/>
      </g>
     </g>
     <g id="text_4">
      <!-- 10/2016 -->
      <g transform="translate(124.987141 237.392315)rotate(-30)scale(0.1 -0.1)">
       <use xlink:href="#DejaVuSans-49"/>
       <use x="63.623047" xlink:href="#DejaVuSans-48"/>
       <use x="127.246094" xlink:href="#DejaVuSans-47"/>
       <use x="160.9375" xlink:href="#DejaVuSans-50"/>
       <use x="224.560547" xlink:href="#DejaVuSans-48"/>
       <use x="288.183594" xlink:href="#DejaVuSans-49"/>
       <use x="351.806641" xlink:href="#DejaVuSans-54"/>
      </g>
     </g>
    </g>
    <g id="xtick_5">
     <g id="line2d_5">
      <g>
       <use style="stroke:#000000;stroke-width:0.8;" x="200.278244" xlink:href="#me5766ee47b" y="203.04"/>
      </g>
     </g>
     <g id="text_5">
      <!-- 01/2017 -->
      <g transform="translate(163.260458 237.392315)rotate(-30)scale(0.1 -0.1)">
       <use xlink:href="#DejaVuSans-48"/>
       <use x="63.623047" xlink:href="#DejaVuSans-49"/>
       <use x="127.246094" xlink:href="#DejaVuSans-47"/>
       <use x="160.9375" xlink:href="#DejaVuSans-50"/>
       <use x="224.560547" xlink:href="#DejaVuSans-48"/>
       <use x="288.183594" xlink:href="#DejaVuSans-49"/>
       <use x="351.806641" xlink:href="#DejaVuSans-55"/>
      </g>
     </g>
    </g>
    <g id="xtick_6">
     <g id="line2d_6">
      <g>
       <use style="stroke:#000000;stroke-width:0.8;" x="237.719533" xlink:href="#me5766ee47b" y="203.04"/>
      </g>
     </g>
     <g id="text_6">
      <!-- 04/2017 -->
      <g transform="translate(200.701746 237.392315)rotate(-30)scale(0.1 -0.1)">
       <use xlink:href="#DejaVuSans-48"/>
       <use x="63.623047" xlink:href="#DejaVuSans-52"/>
       <use x="127.246094" xlink:href="#DejaVuSans-47"/>
       <use x="160.9375" xlink:href="#DejaVuSans-50"/>
       <use x="224.560547" xlink:href="#DejaVuSans-48"/>
       <use x="288.183594" xlink:href="#DejaVuSans-49"/>
       <use x="351.806641" xlink:href="#DejaVuSans-55"/>
      </g>
     </g>
    </g>
    <g id="xtick_7">
     <g id="line2d_7">
      <g>
       <use style="stroke:#000000;stroke-width:0.8;" x="275.576835" xlink:href="#me5766ee47b" y="203.04"/>
      </g>
     </g>
     <g id="text_7">
      <!-- 07/2017 -->
      <g transform="translate(238.559049 237.392315)rotate(-30)scale(0.1 -0.1)">
       <use xlink:href="#DejaVuSans-48"/>
       <use x="63.623047" xlink:href="#DejaVuSans-55"/>
       <use x="127.246094" xlink:href="#DejaVuSans-47"/>
       <use x="160.9375" xlink:href="#DejaVuSans-50"/>
       <use x="224.560547" xlink:href="#DejaVuSans-48"/>
       <use x="288.183594" xlink:href="#DejaVuSans-49"/>
       <use x="351.806641" xlink:href="#DejaVuSans-55"/>
      </g>
     </g>
    </g>
    <g id="xtick_8">
     <g id="line2d_8">
      <g>
       <use style="stroke:#000000;stroke-width:0.8;" x="313.850152" xlink:href="#me5766ee47b" y="203.04"/>
      </g>
     </g>
     <g id="text_8">
      <!-- 10/2017 -->
      <g transform="translate(276.832366 237.392315)rotate(-30)scale(0.1 -0.1)">
       <use xlink:href="#DejaVuSans-49"/>
       <use x="63.623047" xlink:href="#DejaVuSans-48"/>
       <use x="127.246094" xlink:href="#DejaVuSans-47"/>
       <use x="160.9375" xlink:href="#DejaVuSans-50"/>
       <use x="224.560547" xlink:href="#DejaVuSans-48"/>
       <use x="288.183594" xlink:href="#DejaVuSans-49"/>
       <use x="351.806641" xlink:href="#DejaVuSans-55"/>
      </g>
     </g>
    </g>
    <g id="xtick_9">
     <g id="line2d_9">
      <g>
       <use style="stroke:#000000;stroke-width:0.8;" x="352.123469" xlink:href="#me5766ee47b" y="203.04"/>
      </g>
     </g>
     <g id="text_9">
      <!-- 01/2018 -->
      <defs>
       <path d="M 31.78125 34.625 
Q 24.75 34.625 20.71875 30.859375 
Q 16.703125 27.09375 16.703125 20.515625 
Q 16.703125 13.921875 20.71875 10.15625 
Q 24.75 6.390625 31.78125 6.390625 
Q 38.8125 6.390625 42.859375 10.171875 
Q 46.921875 13.96875 46.921875 20.515625 
Q 46.921875 27.09375 42.890625 30.859375 
Q 38.875 34.625 31.78125 34.625 
z
M 21.921875 38.8125 
Q 15.578125 40.375 12.03125 44.71875 
Q 8.5 49.078125 8.5 55.328125 
Q 8.5 64.0625 14.71875 69.140625 
Q 20.953125 74.21875 31.78125 74.21875 
Q 42.671875 74.21875 48.875 69.140625 
Q 55.078125 64.0625 55.078125 55.328125 
Q 55.078125 49.078125 51.53125 44.71875 
Q 48 40.375 41.703125 38.8125 
Q 48.828125 37.15625 52.796875 32.3125 
Q 56.78125 27.484375 56.78125 20.515625 
Q 56.78125 9.90625 50.3125 4.234375 
Q 43.84375 -1.421875 31.78125 -1.421875 
Q 19.734375 -1.421875 13.25 4.234375 
Q 6.78125 9.90625 6.78125 20.515625 
Q 6.78125 27.484375 10.78125 32.3125 
Q 14.796875 37.15625 21.921875 38.8125 
z
M 18.3125 54.390625 
Q 18.3125 48.734375 21.84375 45.5625 
Q 25.390625 42.390625 31.78125 42.390625 
Q 38.140625 42.390625 41.71875 45.5625 
Q 45.3125 48.734375 45.3125 54.390625 
Q 45.3125 60.0625 41.71875 63.234375 
Q 38.140625 66.40625 31.78125 66.40625 
Q 25.390625 66.40625 21.84375 63.234375 
Q 18.3125 60.0625 18.3125 54.390625 
z
" id="DejaVuSans-56"/>
      </defs>
      <g transform="translate(315.105683 237.392315)rotate(-30)scale(0.1 -0.1)">
       <use xlink:href="#DejaVuSans-48"/>
       <use x="63.623047" xlink:href="#DejaVuSans-49"/>
       <use x="127.246094" xlink:href="#DejaVuSans-47"/>
       <use x="160.9375" xlink:href="#DejaVuSans-50"/>
       <use x="224.560547" xlink:href="#DejaVuSans-48"/>
       <use x="288.183594" xlink:href="#DejaVuSans-49"/>
       <use x="351.806641" xlink:href="#DejaVuSans-56"/>
      </g>
     </g>
    </g>
   </g>
   <g id="matplotlib.axis_2">
    <g id="ytick_1">
     <g id="line2d_10">
      <defs>
       <path d="M 0 0 
L -3.5 0 
" id="m4052606f53" style="stroke:#000000;stroke-width:0.8;"/>
      </defs>
      <g>
       <use style="stroke:#000000;stroke-width:0.8;" x="44.734652" xlink:href="#m4052606f53" y="196.489291"/>
      </g>
     </g>
     <g id="text_10">
      <!-- 0.0 -->
      <defs>
       <path d="M 10.6875 12.40625 
L 21 12.40625 
L 21 0 
L 10.6875 0 
z
" id="DejaVuSans-46"/>
      </defs>
      <g transform="translate(21.831527 200.28851)scale(0.1 -0.1)">
       <use xlink:href="#DejaVuSans-48"/>
       <use x="63.623047" xlink:href="#DejaVuSans-46"/>
       <use x="95.410156" xlink:href="#DejaVuSans-48"/>
      </g>
     </g>
    </g>
    <g id="ytick_2">
     <g id="line2d_11">
      <g>
       <use style="stroke:#000000;stroke-width:0.8;" x="44.734652" xlink:href="#m4052606f53" y="157.054022"/>
      </g>
     </g>
     <g id="text_11">
      <!-- 0.5 -->
      <defs>
       <path d="M 10.796875 72.90625 
L 49.515625 72.90625 
L 49.515625 64.59375 
L 19.828125 64.59375 
L 19.828125 46.734375 
Q 21.96875 47.46875 24.109375 47.828125 
Q 26.265625 48.1875 28.421875 48.1875 
Q 40.625 48.1875 47.75 41.5 
Q 54.890625 34.8125 54.890625 23.390625 
Q 54.890625 11.625 47.5625 5.09375 
Q 40.234375 -1.421875 26.90625 -1.421875 
Q 22.3125 -1.421875 17.546875 -0.640625 
Q 12.796875 0.140625 7.71875 1.703125 
L 7.71875 11.625 
Q 12.109375 9.234375 16.796875 8.0625 
Q 21.484375 6.890625 26.703125 6.890625 
Q 35.15625 6.890625 40.078125 11.328125 
Q 45.015625 15.765625 45.015625 23.390625 
Q 45.015625 31 40.078125 35.4375 
Q 35.15625 39.890625 26.703125 39.890625 
Q 22.75 39.890625 18.8125 39.015625 
Q 14.890625 38.140625 10.796875 36.28125 
z
" id="DejaVuSans-53"/>
      </defs>
      <g transform="translate(21.831527 160.853241)scale(0.1 -0.1)">
       <use xlink:href="#DejaVuSans-48"/>
       <use x="63.623047" xlink:href="#DejaVuSans-46"/>
       <use x="95.410156" xlink:href="#DejaVuSans-53"/>
      </g>
     </g>
    </g>
    <g id="ytick_3">
     <g id="line2d_12">
      <g>
       <use style="stroke:#000000;stroke-width:0.8;" x="44.734652" xlink:href="#m4052606f53" y="117.618753"/>
      </g>
     </g>
     <g id="text_12">
      <!-- 1.0 -->
      <g transform="translate(21.831527 121.417972)scale(0.1 -0.1)">
       <use xlink:href="#DejaVuSans-49"/>
       <use x="63.623047" xlink:href="#DejaVuSans-46"/>
       <use x="95.410156" xlink:href="#DejaVuSans-48"/>
      </g>
     </g>
    </g>
    <g id="ytick_4">
     <g id="line2d_13">
      <g>
       <use style="stroke:#000000;stroke-width:0.8;" x="44.734652" xlink:href="#m4052606f53" y="78.183484"/>
      </g>
     </g>
     <g id="text_13">
      <!-- 1.5 -->
      <g transform="translate(21.831527 81.982703)scale(0.1 -0.1)">
       <use xlink:href="#DejaVuSans-49"/>
       <use x="63.623047" xlink:href="#DejaVuSans-46"/>
       <use x="95.410156" xlink:href="#DejaVuSans-53"/>
      </g>
     </g>
    </g>
    <g id="ytick_5">
     <g id="line2d_14">
      <g>
       <use style="stroke:#000000;stroke-width:0.8;" x="44.734652" xlink:href="#m4052606f53" y="38.748215"/>
      </g>
     </g>
     <g id="text_14">
      <!-- 2.0 -->
      <g transform="translate(21.831527 42.547434)scale(0.1 -0.1)">
       <use xlink:href="#DejaVuSans-50"/>
       <use x="63.623047" xlink:href="#DejaVuSans-46"/>
       <use x="95.410156" xlink:href="#DejaVuSans-48"/>
      </g>
     </g>
    </g>
   </g>
   <g id="line2d_15">
    <path clip-path="url(#p1da2cb3cb6)" d="M 48.017005 189.938582 
L 48.849034 194.305721 
L 49.265048 194.305721 
L 51.761134 192.122151 
L 52.177149 192.122151 
L 52.593163 194.305721 
L 53.009177 192.122151 
L 53.425191 187.755012 
L 53.841206 194.305721 
L 54.25722 189.938582 
L 54.673234 194.305721 
L 55.505263 189.938582 
L 56.337292 194.305721 
L 57.16932 185.571442 
L 57.585335 194.305721 
L 60.497435 194.305721 
L 61.745478 192.122151 
L 62.161492 194.305721 
L 62.993521 192.122151 
L 63.409535 189.938582 
L 64.241564 194.305721 
L 65.489607 194.305721 
L 65.905621 189.938582 
L 66.321635 192.122151 
L 66.73765 192.122151 
L 68.817721 189.938582 
L 71.313807 192.122151 
L 72.56185 194.305721 
L 73.393879 194.305721 
L 74.641921 187.755012 
L 75.057936 189.938582 
L 75.47395 194.305721 
L 76.721993 194.305721 
L 77.138007 192.122151 
L 77.970036 194.305721 
L 79.218079 194.305721 
L 79.634093 189.938582 
L 80.050108 170.286454 
L 80.466122 157.185036 
L 80.882136 194.305721 
L 81.714165 141.900048 
L 82.130179 163.735745 
L 82.546193 150.634327 
L 82.962208 163.735745 
L 83.378222 157.185036 
L 84.210251 194.305721 
L 84.626265 148.450757 
L 85.042279 148.450757 
L 85.458294 150.634327 
L 85.874308 150.634327 
L 87.122351 157.185036 
L 87.538365 100.412224 
L 87.95438 117.880781 
L 88.370394 152.817897 
L 88.786408 98.228654 
L 89.202423 122.247921 
L 89.618437 194.305721 
L 90.450465 157.185036 
L 90.86648 161.552176 
L 91.282494 146.267188 
L 91.698508 161.552176 
L 92.114523 146.267188 
L 92.946551 181.204303 
L 93.362566 174.653594 
L 93.77858 135.349339 
L 94.194594 181.204303 
L 94.610609 168.102885 
L 95.026623 124.431491 
L 95.442637 161.552176 
L 95.858652 172.470024 
L 96.274666 174.653594 
L 96.69068 37.088702 
L 97.106694 126.61506 
L 97.522709 152.817897 
L 97.938723 155.001466 
L 98.354737 172.470024 
L 98.770752 159.368606 
L 99.186766 159.368606 
L 99.60278 179.020733 
L 100.018795 159.368606 
L 100.434809 133.165769 
L 100.850823 187.755012 
L 101.266838 187.755012 
L 101.682852 172.470024 
L 102.098866 170.286454 
L 102.514881 181.204303 
L 102.930895 150.634327 
L 103.346909 148.450757 
L 104.178938 183.387873 
L 105.010966 179.020733 
L 105.426981 183.387873 
L 105.842995 189.938582 
L 106.259009 189.938582 
L 106.675024 185.571442 
L 107.091038 192.122151 
L 107.507052 192.122151 
L 107.923067 168.102885 
L 108.339081 163.735745 
L 108.755095 187.755012 
L 109.17111 194.305721 
L 109.587124 181.204303 
L 110.003138 194.305721 
L 110.419153 179.020733 
L 110.835167 194.305721 
L 111.251181 185.571442 
L 111.667195 185.571442 
L 112.08321 189.938582 
L 112.499224 185.571442 
L 112.915238 192.122151 
L 113.331253 176.837164 
L 114.163281 187.755012 
L 114.579296 189.938582 
L 114.99531 179.020733 
L 115.411324 194.305721 
L 115.827339 187.755012 
L 116.243353 192.122151 
L 117.491396 185.571442 
L 118.323425 194.305721 
L 118.739439 187.755012 
L 119.155453 192.122151 
L 119.571467 176.837164 
L 119.987482 192.122151 
L 120.403496 194.305721 
L 120.81951 187.755012 
L 121.235525 159.368606 
L 121.651539 189.938582 
L 122.067553 181.204303 
L 122.483568 194.305721 
L 122.899582 172.470024 
L 123.315596 194.305721 
L 124.979654 183.387873 
L 125.395668 172.470024 
L 125.811682 174.653594 
L 126.227696 189.938582 
L 126.643711 181.204303 
L 127.475739 194.305721 
L 128.307768 155.001466 
L 128.723782 185.571442 
L 129.139797 187.755012 
L 129.555811 183.387873 
L 129.971825 194.305721 
L 131.219868 174.653594 
L 131.635883 194.305721 
L 132.051897 170.286454 
L 132.467911 174.653594 
L 132.883926 194.305721 
L 133.715954 187.755012 
L 134.547983 102.595793 
L 134.963997 176.837164 
L 137.044069 192.122151 
L 137.460083 192.122151 
L 137.876097 176.837164 
L 138.292112 165.919315 
L 138.708126 185.571442 
L 139.12414 194.305721 
L 139.956169 163.735745 
L 140.372183 176.837164 
L 140.788197 152.817897 
L 141.620226 192.122151 
L 142.03624 168.102885 
L 142.452255 183.387873 
L 142.868269 146.267188 
L 143.284283 146.267188 
L 143.700298 170.286454 
L 144.116312 170.286454 
L 144.532326 183.387873 
L 144.948341 181.204303 
L 145.364355 137.532909 
L 145.780369 146.267188 
L 146.196384 172.470024 
L 146.612398 139.716478 
L 147.028412 183.387873 
L 147.860441 187.755012 
L 148.276455 181.204303 
L 149.108484 194.305721 
L 149.524498 194.305721 
L 149.940512 176.837164 
L 150.356527 183.387873 
L 150.772541 181.204303 
L 151.60457 137.532909 
L 152.020584 130.9822 
L 152.436598 144.083618 
L 152.852613 187.755012 
L 153.684641 181.204303 
L 154.100656 159.368606 
L 154.51667 144.083618 
L 154.932684 185.571442 
L 156.180727 192.122151 
L 156.596741 185.571442 
L 157.012756 192.122151 
L 157.42877 194.305721 
L 157.844784 189.938582 
L 158.260799 183.387873 
L 158.676813 192.122151 
L 159.508842 194.305721 
L 159.924856 183.387873 
L 160.34087 179.020733 
L 160.756885 189.938582 
L 161.588913 192.122151 
L 162.420942 187.755012 
L 162.836956 194.305721 
L 163.25297 194.305721 
L 164.084999 185.571442 
L 164.501013 192.122151 
L 166.581085 194.305721 
L 168.661157 194.305721 
L 169.077171 192.122151 
L 170.325214 194.305721 
L 175.317386 194.305721 
L 176.149414 192.122151 
L 177.813471 194.305721 
L 185.301729 194.305721 
L 186.549772 189.938582 
L 187.381801 194.305721 
L 187.797815 192.122151 
L 188.629844 189.938582 
L 189.045858 192.122151 
L 190.293901 194.305721 
L 191.957958 192.122151 
L 192.373972 194.305721 
L 193.206001 194.305721 
L 193.622015 192.122151 
L 194.03803 192.122151 
L 194.454044 194.305721 
L 195.286073 194.305721 
L 196.534116 189.938582 
L 197.366144 194.305721 
L 202.77433 194.305721 
L 204.022373 192.122151 
L 206.934473 194.305721 
L 209.430559 194.305721 
L 210.678602 192.122151 
L 211.094617 194.305721 
L 212.758674 192.122151 
L 213.174688 194.305721 
L 213.590703 192.122151 
L 215.25476 192.122151 
L 216.502803 189.938582 
L 217.334831 194.305721 
L 217.750846 194.305721 
L 218.582874 192.122151 
L 218.998889 194.305721 
L 219.414903 194.305721 
L 220.662946 192.122151 
L 222.743017 194.305721 
L 223.99106 192.122151 
L 224.407075 194.305721 
L 226.071132 194.305721 
L 228.983232 192.122151 
L 229.399246 192.122151 
L 229.815261 189.938582 
L 236.055476 192.122151 
L 236.47149 192.122151 
L 238.135547 194.305721 
L 246.455833 194.305721 
L 247.703876 192.122151 
L 249.783948 194.305721 
L 258.936263 194.305721 
L 259.768291 192.122151 
L 260.60032 194.305721 
L 272.248721 194.305721 
L 275.576835 189.938582 
L 278.90495 194.305721 
L 279.736979 194.305721 
L 280.569007 192.122151 
L 280.985021 194.305721 
L 299.705666 194.305721 
L 300.12168 192.122151 
L 304.697837 194.305721 
L 306.777909 192.122151 
L 307.609938 194.305721 
L 308.025952 194.305721 
L 308.441966 192.122151 
L 310.522038 194.305721 
L 322.170439 194.305721 
L 322.586453 192.122151 
L 323.002467 194.305721 
L 336.314925 194.305721 
L 340.059054 192.122151 
L 340.891083 174.653594 
L 341.307097 194.305721 
L 341.723111 194.305721 
L 342.139126 165.919315 
L 342.971154 192.122151 
L 343.387169 128.79863 
L 343.803183 85.127236 
L 344.635212 194.305721 
L 345.051226 157.185036 
L 346.299269 194.305721 
L 346.715283 174.653594 
L 347.547312 109.146503 
L 347.963326 109.146503 
L 348.795355 106.962933 
L 349.211369 126.61506 
L 349.627383 102.595793 
L 350.043398 122.247921 
L 350.459412 148.450757 
L 350.875426 120.064351 
L 351.291441 181.204303 
L 351.707455 176.837164 
L 352.955498 80.760096 
L 353.787527 170.286454 
L 354.203541 37.088702 
L 354.619555 165.919315 
L 355.451584 137.532909 
L 355.867598 50.19012 
L 356.283612 82.943666 
L 357.94767 189.938582 
L 358.363684 172.470024 
L 358.779698 176.837164 
L 359.611727 189.938582 
L 360.027741 109.146503 
L 360.443756 194.305721 
L 360.85977 93.861515 
L 361.275784 122.247921 
L 361.691798 176.837164 
L 362.107813 189.938582 
L 362.523827 78.576527 
L 362.939841 187.755012 
L 363.355856 192.122151 
L 363.77187 161.552176 
L 364.187884 120.064351 
L 364.603899 98.228654 
L 365.019913 152.817897 
L 365.435927 19.620145 
L 366.267956 179.020733 
L 366.68397 161.552176 
L 367.099985 157.185036 
L 367.515999 185.571442 
L 367.932013 174.653594 
L 368.348028 189.938582 
L 368.764042 183.387873 
L 369.59607 183.387873 
L 370.012085 185.571442 
L 370.428099 146.267188 
L 370.844113 181.204303 
L 371.260128 152.817897 
L 371.676142 174.653594 
L 372.092156 187.755012 
L 372.508171 130.9822 
L 372.924185 183.387873 
L 373.756214 183.387873 
L 375.004257 189.938582 
L 376.252299 150.634327 
L 376.252299 150.634327 
" style="fill:none;stroke:#d62728;stroke-linecap:square;stroke-width:0.5;"/>
   </g>
   <g id="line2d_16">
    <path clip-path="url(#p1da2cb3cb6)" d="M 48.017005 190.195541 
L 49.265048 188.280097 
L 49.681063 187.922136 
L 50.097077 187.839852 
L 50.929106 187.983198 
L 51.34512 189.347496 
L 51.761134 188.89589 
L 52.593163 187.646527 
L 53.009177 187.647885 
L 53.425191 187.919989 
L 53.841206 187.941429 
L 54.25722 189.217841 
L 55.089249 188.18828 
L 55.505263 188.07702 
L 55.921277 187.798832 
L 56.337292 187.832615 
L 56.753306 188.113347 
L 57.16932 189.370331 
L 57.585335 188.908068 
L 58.001349 187.863945 
L 58.417363 187.513463 
L 59.249392 187.989816 
L 59.665406 188.052507 
L 60.08142 189.702882 
L 60.497435 189.29803 
L 60.913449 188.232143 
L 61.329463 187.750283 
L 62.161492 187.983218 
L 62.577506 188.087815 
L 62.993521 189.499704 
L 63.409535 189.180382 
L 63.825549 188.087637 
L 64.657578 187.76656 
L 65.073592 187.974626 
L 65.489607 187.988676 
L 65.905621 189.481147 
L 66.73765 188.530215 
L 67.153664 187.819888 
L 67.569678 187.70881 
L 67.985692 187.444016 
L 68.401707 187.795221 
L 68.817721 189.391594 
L 69.233735 189.069789 
L 69.64975 187.90279 
L 70.065764 187.501738 
L 70.481778 187.408607 
L 71.313807 187.78686 
L 71.729821 189.207826 
L 72.145836 189.003399 
L 72.56185 187.841651 
L 73.393879 187.359775 
L 73.809893 187.756529 
L 74.225907 187.789504 
L 74.641921 189.458417 
L 75.057936 189.031546 
L 75.47395 187.967329 
L 76.305979 187.511138 
L 76.721993 187.485695 
L 77.554022 189.35984 
L 77.970036 189.109047 
L 78.38605 188.117462 
L 79.218079 187.403371 
L 80.050108 188.231941 
L 80.466122 189.552935 
L 80.882136 189.202586 
L 81.298151 188.110618 
L 81.714165 187.661401 
L 82.130179 187.424823 
L 82.962208 188.531226 
L 83.378222 189.333241 
L 83.794236 189.356969 
L 84.210251 188.001767 
L 84.626265 187.181579 
L 85.458294 187.363802 
L 85.874308 187.820535 
L 86.290322 189.317307 
L 86.706337 188.801834 
L 87.122351 187.422438 
L 87.538365 187.075183 
L 87.95438 186.921762 
L 88.370394 187.030261 
L 88.786408 187.515872 
L 89.202423 189.111748 
L 89.618437 188.799998 
L 90.034451 187.82765 
L 90.450465 187.314473 
L 90.86648 187.24146 
L 91.282494 186.887311 
L 91.698508 187.442536 
L 92.114523 189.084849 
L 92.530537 188.883102 
L 92.946551 187.701593 
L 93.77858 186.73011 
L 94.194594 187.389241 
L 94.610609 187.616758 
L 95.026623 189.198887 
L 95.442637 188.98231 
L 95.858652 187.622042 
L 96.274666 187.04507 
L 97.106694 187.3095 
L 97.522709 187.395176 
L 97.938723 188.959964 
L 98.354737 188.903463 
L 98.770752 187.415751 
L 99.60278 186.996028 
L 100.434809 187.715966 
L 100.850823 189.259116 
L 101.266838 189.031647 
L 101.682852 187.929373 
L 102.098866 187.232929 
L 102.514881 187.1813 
L 103.346909 187.611963 
L 103.762924 189.310119 
L 104.178938 188.973804 
L 105.010966 187.266895 
L 105.426981 186.976585 
L 106.259009 187.835744 
L 106.675024 189.279933 
L 107.091038 189.168985 
L 107.507052 187.561486 
L 108.755095 187.314865 
L 109.17111 187.899321 
L 109.587124 189.311699 
L 110.003138 189.147063 
L 110.419153 188.663097 
L 110.835167 187.404394 
L 112.08321 187.377852 
L 112.499224 189.088787 
L 112.915238 188.729924 
L 113.331253 187.392415 
L 114.163281 186.683563 
L 114.99531 187.685291 
L 115.411324 188.955044 
L 115.827339 188.372476 
L 116.243353 187.093542 
L 116.659367 186.577555 
L 117.075382 187.018402 
L 117.491396 186.920719 
L 117.90741 187.150791 
L 118.323425 189.151685 
L 118.739439 188.959972 
L 119.155453 187.135476 
L 119.571467 187.190854 
L 119.987482 187.023278 
L 120.81951 187.003156 
L 121.235525 188.87156 
L 121.651539 189.006394 
L 122.067553 187.175563 
L 122.483568 187.46945 
L 122.899582 187.046554 
L 123.731611 187.44795 
L 124.147625 189.174459 
L 124.563639 189.143534 
L 124.979654 188.597127 
L 125.395668 187.613916 
L 125.811682 186.962863 
L 126.227696 186.882363 
L 126.643711 187.087566 
L 127.059725 189.004272 
L 127.475739 188.621118 
L 127.891754 187.649308 
L 128.307768 187.339374 
L 128.723782 187.221702 
L 129.139797 187.268674 
L 129.555811 187.599882 
L 129.971825 189.123319 
L 130.38784 188.986826 
L 130.803854 187.816293 
L 131.219868 187.108869 
L 131.635883 187.024265 
L 132.467911 187.186257 
L 132.883926 188.961602 
L 133.29994 188.777418 
L 133.715954 186.993934 
L 134.131968 186.228233 
L 135.380011 187.073683 
L 135.796026 188.783709 
L 136.21204 188.40905 
L 136.628054 187.078736 
L 137.044069 186.76617 
L 137.460083 186.696331 
L 137.876097 186.749869 
L 138.292112 187.00593 
L 138.708126 188.789749 
L 139.12414 188.616752 
L 139.540155 187.463058 
L 139.956169 187.077115 
L 140.372183 186.870779 
L 140.788197 187.657241 
L 141.204212 186.943986 
L 141.620226 188.518118 
L 142.03624 188.393852 
L 142.452255 187.379485 
L 143.284283 186.532693 
L 144.116312 187.056714 
L 144.532326 188.306858 
L 144.948341 188.236044 
L 145.364355 187.263757 
L 145.780369 186.939111 
L 147.028412 187.113838 
L 147.444427 188.699015 
L 147.860441 188.469836 
L 148.276455 187.303804 
L 149.108484 186.981089 
L 149.940512 187.51656 
L 150.356527 188.93402 
L 150.772541 188.964464 
L 151.188555 188.512769 
L 151.60457 187.777966 
L 152.436598 186.915859 
L 152.852613 186.978955 
L 153.268627 188.39052 
L 153.684641 187.522543 
L 154.51667 186.71824 
L 154.932684 187.009184 
L 155.764713 186.995919 
L 156.180727 188.524235 
L 156.596741 187.594562 
L 157.012756 186.972563 
L 157.42877 186.699396 
L 157.844784 186.759839 
L 158.676813 187.224475 
L 159.092827 188.669873 
L 159.508842 188.046398 
L 159.924856 187.081805 
L 160.34087 186.723528 
L 161.172899 187.171795 
L 161.588913 187.338521 
L 162.004928 188.549395 
L 162.836956 187.178591 
L 163.668985 186.562863 
L 164.084999 186.880082 
L 164.501013 186.948001 
L 164.917028 188.255107 
L 165.333042 187.787398 
L 165.749056 186.508419 
L 167.413114 186.646395 
L 167.829128 188.361989 
L 169.077171 186.137447 
L 169.493185 186.327441 
L 169.9092 186.219606 
L 170.325214 187.012617 
L 170.741228 188.713158 
L 171.573257 186.880365 
L 171.989271 186.779011 
L 172.405285 186.446173 
L 173.237314 186.865333 
L 173.653328 188.502427 
L 174.069343 187.841938 
L 174.485357 186.375452 
L 174.901371 186.531796 
L 175.7334 185.71971 
L 176.149414 186.433599 
L 176.565429 188.134015 
L 177.813471 186.0762 
L 178.229486 184.862297 
L 178.6455 186.331052 
L 179.061514 186.799707 
L 179.477529 188.281286 
L 180.309557 186.80318 
L 180.725572 186.599011 
L 181.141586 186.565337 
L 181.5576 186.699032 
L 181.973615 186.983519 
L 182.389629 188.520055 
L 182.805643 187.98209 
L 183.221658 186.836026 
L 183.637672 186.61539 
L 184.053686 186.990788 
L 184.469701 187.782292 
L 184.885715 188.199103 
L 185.301729 188.083404 
L 185.717743 187.543628 
L 186.133758 186.365235 
L 186.965786 186.017754 
L 187.797815 186.266525 
L 188.213829 188.092966 
L 189.045858 186.190734 
L 190.293901 186.088927 
L 190.709915 186.35535 
L 191.12593 188.1954 
L 191.957958 186.185519 
L 192.373972 185.827149 
L 193.622015 186.593966 
L 194.03803 188.252657 
L 194.870058 186.518963 
L 195.286073 186.182147 
L 195.702087 186.59251 
L 196.118101 186.735819 
L 196.534116 187.212071 
L 197.366144 189.134934 
L 197.782159 188.680183 
L 198.198173 187.473162 
L 198.614187 187.040841 
L 199.030202 186.843546 
L 199.446216 187.06552 
L 200.278244 188.31435 
L 201.110273 186.020171 
L 201.526287 185.883792 
L 201.942302 185.626724 
L 202.358316 185.771909 
L 202.77433 187.308522 
L 203.606359 186.049435 
L 204.438388 185.417255 
L 204.854402 185.659271 
L 205.270416 185.760423 
L 205.686431 187.437793 
L 206.518459 186.070276 
L 206.934473 185.861782 
L 208.182516 185.883084 
L 208.598531 187.209815 
L 209.430559 185.712586 
L 209.846574 185.566253 
L 210.262588 185.245718 
L 210.678602 185.487535 
L 211.094617 185.915061 
L 211.510631 187.612028 
L 211.926645 186.805824 
L 212.34266 185.613673 
L 212.758674 185.261752 
L 213.174688 185.423522 
L 213.590703 185.404867 
L 214.006717 185.812481 
L 214.422731 187.483213 
L 214.838745 187.297153 
L 215.25476 185.915966 
L 215.670774 185.776086 
L 216.086788 185.755341 
L 216.918817 186.246839 
L 217.334831 187.925572 
L 217.750846 187.589003 
L 218.16686 186.13737 
L 218.582874 185.727848 
L 218.998889 185.904096 
L 219.414903 185.690268 
L 219.830917 186.261435 
L 220.246932 187.803708 
L 220.662946 187.650254 
L 221.07896 186.299625 
L 221.494975 185.566479 
L 222.327003 185.31945 
L 222.743017 185.738017 
L 223.159032 187.466673 
L 223.575046 187.165249 
L 223.99106 185.844878 
L 224.407075 185.557714 
L 224.823089 185.118099 
L 225.655118 185.893321 
L 226.071132 187.706206 
L 226.487146 187.525697 
L 226.903161 186.242813 
L 227.319175 185.661316 
L 228.151204 185.402741 
L 228.567218 185.834127 
L 228.983232 187.627545 
L 229.399246 187.376477 
L 229.815261 186.0157 
L 230.647289 185.402931 
L 231.063304 185.181446 
L 231.479318 185.841085 
L 231.895332 187.503889 
L 232.311347 186.750087 
L 232.727361 185.699305 
L 233.143375 185.693095 
L 233.55939 185.434114 
L 234.391418 185.883804 
L 234.807433 187.61559 
L 235.223447 187.393805 
L 235.639461 185.8759 
L 236.055476 185.364712 
L 236.47149 185.287417 
L 236.887504 185.418124 
L 237.303518 185.7639 
L 237.719533 187.473999 
L 238.135547 187.358186 
L 238.551561 185.485352 
L 238.967576 185.204196 
L 239.38359 185.079978 
L 240.215619 185.480403 
L 240.631633 187.684099 
L 241.047647 187.333394 
L 241.463662 185.687471 
L 241.879676 185.455518 
L 242.711705 185.368803 
L 243.543733 187.015301 
L 243.959747 186.982387 
L 244.791776 185.15967 
L 245.20779 184.866927 
L 245.623805 185.193765 
L 246.039819 185.837596 
L 246.455833 187.128073 
L 246.871848 186.73556 
L 247.287862 185.754237 
L 248.119891 185.174298 
L 248.535905 185.17562 
L 248.951919 185.982236 
L 249.367934 187.233047 
L 249.783948 187.234466 
L 250.199962 186.230833 
L 250.615977 185.579902 
L 251.031991 185.209549 
L 251.448005 185.406048 
L 251.864019 186.098521 
L 252.280034 187.496405 
L 252.696048 187.135743 
L 253.112062 185.817167 
L 253.944091 185.260374 
L 254.360105 185.334025 
L 254.77612 185.846026 
L 255.192134 187.623255 
L 255.608148 187.152728 
L 256.440177 185.267934 
L 257.272206 185.098636 
L 257.68822 185.817547 
L 258.104234 187.373336 
L 258.520248 187.258894 
L 258.936263 186.062053 
L 259.352277 185.489997 
L 259.768291 184.465976 
L 260.184306 185.397541 
L 260.60032 185.827574 
L 261.016334 187.656424 
L 261.432349 187.54423 
L 261.848363 187.140093 
L 262.264377 185.648306 
L 263.096406 185.281252 
L 263.51242 185.483819 
L 263.928435 187.31846 
L 264.344449 186.967367 
L 264.760463 185.606501 
L 265.176478 185.054729 
L 265.592492 185.047169 
L 266.008506 184.656309 
L 266.42452 185.451115 
L 266.840535 187.131037 
L 267.256549 187.255275 
L 267.672563 185.398661 
L 268.088578 184.543885 
L 268.920606 185.27171 
L 269.336621 185.617502 
L 269.752635 187.027075 
L 270.168649 187.154309 
L 270.584664 185.619184 
L 271.000678 184.997237 
L 271.416692 184.796246 
L 271.832707 184.756378 
L 272.248721 185.149712 
L 272.664735 186.957264 
L 273.080749 187.48367 
L 273.496764 185.688186 
L 273.912778 185.174164 
L 274.328792 185.018269 
L 274.744807 185.2023 
L 275.160821 185.563483 
L 275.576835 187.162108 
L 275.99285 187.366519 
L 276.408864 186.313788 
L 276.824878 186.280631 
L 277.656907 185.027746 
L 278.072921 184.946004 
L 278.488936 187.00481 
L 278.90495 186.955958 
L 279.320964 185.555494 
L 279.736979 185.116046 
L 280.152993 184.991472 
L 280.569007 185.050334 
L 280.985021 185.762097 
L 281.401036 187.444036 
L 281.81705 187.096057 
L 282.233064 185.359367 
L 283.065093 184.760033 
L 283.481107 185.173351 
L 283.897122 185.112144 
L 284.313136 186.718624 
L 284.72915 186.831546 
L 285.145165 185.257123 
L 285.977193 184.391568 
L 286.393208 184.691095 
L 286.809222 185.133552 
L 287.225236 187.052651 
L 287.641251 186.97441 
L 288.057265 185.472632 
L 288.889293 184.523221 
L 289.721322 185.025555 
L 290.137336 187.115564 
L 290.553351 186.806204 
L 290.969365 185.158623 
L 291.385379 184.862192 
L 291.801394 184.714234 
L 292.217408 184.97323 
L 292.633422 184.873695 
L 293.049437 186.704688 
L 293.465451 186.300713 
L 293.881465 184.794354 
L 294.713494 184.497576 
L 295.129508 184.795466 
L 295.545522 185.287053 
L 295.961537 187.038262 
L 296.377551 186.726544 
L 296.793565 185.773243 
L 297.625594 184.860559 
L 298.457623 185.436383 
L 298.873637 186.95523 
L 299.289651 186.750532 
L 299.705666 185.21077 
L 301.369723 184.707267 
L 301.785737 186.742312 
L 302.201752 186.944835 
L 303.03378 185.331042 
L 303.449794 185.211069 
L 303.865809 185.503489 
L 304.281823 185.40868 
L 304.697837 187.031097 
L 305.113852 186.170297 
L 305.529866 185.713277 
L 305.94588 185.059342 
L 306.361895 185.234632 
L 306.777909 180.639705 
L 307.193923 177.930433 
L 307.609938 187.096518 
L 308.025952 186.026507 
L 308.441966 185.713071 
L 308.857981 185.089176 
L 309.690009 185.072401 
L 310.106023 185.349809 
L 310.522038 186.800722 
L 310.938052 185.807023 
L 311.770081 184.834966 
L 313.018124 185.256116 
L 313.434138 187.022979 
L 313.850152 186.054197 
L 314.266167 185.401322 
L 314.682181 185.025251 
L 315.098195 185.047027 
L 315.51421 184.869842 
L 315.930224 185.053633 
L 316.346238 186.819619 
L 317.178267 185.093777 
L 317.594281 184.680114 
L 318.42631 184.943336 
L 318.842324 185.101616 
L 319.258338 186.62762 
L 320.506381 184.780652 
L 320.922396 184.464528 
L 321.33841 184.769251 
L 321.754424 184.844265 
L 322.170439 186.78837 
L 323.002467 184.552804 
L 324.25051 184.445114 
L 324.666524 185.050763 
L 325.082539 186.837251 
L 325.498553 186.326718 
L 325.914567 184.930685 
L 326.330582 184.659762 
L 326.746596 184.956864 
L 327.16261 184.339393 
L 327.578625 184.560433 
L 327.994639 186.353167 
L 328.826668 184.620949 
L 329.658696 184.445134 
L 330.490725 185.030305 
L 330.906739 186.504764 
L 331.322754 185.746349 
L 331.738768 184.459778 
L 332.154782 183.866274 
L 332.570796 183.955507 
L 333.402825 184.577612 
L 333.818839 186.594641 
L 334.234854 186.068101 
L 334.650868 184.578416 
L 335.066882 184.283627 
L 335.482897 184.991431 
L 335.898911 186.224494 
L 336.314925 186.645494 
L 336.73094 186.441515 
L 337.146954 185.883849 
L 337.562968 184.672307 
L 338.394997 183.8067 
L 338.811011 184.212478 
L 339.227025 184.121583 
L 339.64304 185.993718 
L 340.475068 184.30907 
L 340.891083 183.858495 
L 341.307097 184.488657 
L 341.723111 184.432358 
L 342.139126 184.600143 
L 342.55514 186.475654 
L 343.803183 183.98811 
L 344.219197 183.722002 
L 345.051226 184.701389 
L 345.46724 186.565806 
L 345.883255 185.879454 
L 346.299269 184.675651 
L 346.715283 184.451004 
L 347.547312 184.646561 
L 347.963326 185.418702 
L 348.37934 186.922186 
L 348.795355 186.607595 
L 349.211369 187.692067 
L 350.459412 185.444076 
L 350.875426 185.41717 
L 351.291441 186.116286 
L 351.707455 185.964462 
L 352.123469 186.946837 
L 352.539484 185.091027 
L 352.955498 184.467827 
L 353.371512 184.797164 
L 353.787527 184.208981 
L 354.203541 185.77089 
L 354.619555 185.369281 
L 355.035569 184.7581 
L 355.451584 183.878063 
L 355.867598 183.976972 
L 356.283612 183.959672 
L 356.699627 184.207533 
L 357.115641 185.669172 
L 358.363684 183.928193 
L 358.779698 183.831354 
L 359.611727 184.117556 
L 360.027741 186.179968 
L 360.443756 185.139479 
L 360.85977 183.734309 
L 361.275784 183.588215 
L 361.691798 183.8312 
L 362.107813 183.639233 
L 362.523827 184.038462 
L 362.939841 185.839218 
L 363.355856 185.614211 
L 363.77187 184.007092 
L 364.187884 183.557839 
L 364.603899 183.353582 
L 365.019913 183.575095 
L 365.435927 183.577978 
L 365.851942 185.735668 
L 366.267956 185.365901 
L 366.68397 183.531628 
L 367.099985 183.629373 
L 367.515999 183.194392 
L 367.932013 183.247796 
L 368.348028 183.781164 
L 368.764042 185.386864 
L 369.180056 185.430375 
L 369.59607 184.138495 
L 370.012085 183.506849 
L 370.428099 183.570251 
L 370.844113 183.825944 
L 371.260128 183.623902 
L 371.676142 185.646491 
L 372.092156 183.205441 
L 372.508171 184.237642 
L 372.924185 183.462476 
L 373.340199 183.205421 
L 374.172228 183.311639 
L 374.588242 185.520397 
L 375.004257 185.153399 
L 375.420271 183.603574 
L 376.252299 183.113656 
L 376.252299 183.113656 
" style="fill:none;stroke:#1f77b4;stroke-linecap:square;stroke-width:0.5;"/>
   </g>
   <g id="patch_3">
    <path d="M 44.734652 203.04 
L 44.734652 7.2 
" style="fill:none;stroke:#000000;stroke-linecap:square;stroke-linejoin:miter;stroke-width:0.8;"/>
   </g>
   <g id="patch_4">
    <path d="M 379.534652 203.04 
L 379.534652 7.2 
" style="fill:none;stroke:#000000;stroke-linecap:square;stroke-linejoin:miter;stroke-width:0.8;"/>
   </g>
   <g id="patch_5">
    <path d="M 44.734652 203.04 
L 379.534652 203.04 
" style="fill:none;stroke:#000000;stroke-linecap:square;stroke-linejoin:miter;stroke-width:0.8;"/>
   </g>
   <g id="patch_6">
    <path d="M 44.734652 7.2 
L 379.534652 7.2 
" style="fill:none;stroke:#000000;stroke-linecap:square;stroke-linejoin:miter;stroke-width:0.8;"/>
   </g>
  </g>
 </g>
 <defs>
  <clipPath id="p1da2cb3cb6">
   <rect height="195.84" width="334.8" x="44.734652" y="7.2"/>
  </clipPath>
 </defs>
</svg>
