<?xml version="1.0" encoding="utf-8" standalone="no"?>
<!DOCTYPE svg PUBLIC "-//W3C//DTD SVG 1.1//EN"
  "http://www.w3.org/Graphics/SVG/1.1/DTD/svg11.dtd">
<!-- Created with matplotlib (https://matplotlib.org/) -->
<svg height="246.393377pt" version="1.1" viewBox="0 0 386.734652 246.393377" width="386.734652pt" xmlns="http://www.w3.org/2000/svg" xmlns:xlink="http://www.w3.org/1999/xlink">
 <defs>
  <style type="text/css">
*{stroke-linecap:butt;stroke-linejoin:round;}
  </style>
 </defs>
 <g id="figure_1">
  <g id="patch_1">
   <path d="M 0 246.393377 
L 386.734652 246.393377 
L 386.734652 0 
L 0 0 
z
" style="fill:#ffffff;"/>
  </g>
  <g id="axes_1">
   <g id="patch_2">
    <path d="M 44.734652 203.04 
L 379.534652 203.04 
L 379.534652 7.2 
L 44.734652 7.2 
z
" style="fill:#ffffff;"/>
   </g>
   <g id="matplotlib.axis_1">
    <g id="xtick_1">
     <g id="line2d_1">
      <defs>
       <path d="M 0 0 
L 0 3.5 
" id="mfac983eac1" style="stroke:#000000;stroke-width:0.8;"/>
      </defs>
      <g>
       <use style="stroke:#000000;stroke-width:0.8;" x="48.017005" xlink:href="#mfac983eac1" y="203.04"/>
      </g>
     </g>
     <g id="text_1">
      <!-- 01/2016 -->
      <defs>
       <path d="M 31.78125 66.40625 
Q 24.171875 66.40625 20.328125 58.90625 
Q 16.5 51.421875 16.5 36.375 
Q 16.5 21.390625 20.328125 13.890625 
Q 24.171875 6.390625 31.78125 6.390625 
Q 39.453125 6.390625 43.28125 13.890625 
Q 47.125 21.390625 47.125 36.375 
Q 47.125 51.421875 43.28125 58.90625 
Q 39.453125 66.40625 31.78125 66.40625 
z
M 31.78125 74.21875 
Q 44.046875 74.21875 50.515625 64.515625 
Q 56.984375 54.828125 56.984375 36.375 
Q 56.984375 17.96875 50.515625 8.265625 
Q 44.046875 -1.421875 31.78125 -1.421875 
Q 19.53125 -1.421875 13.0625 8.265625 
Q 6.59375 17.96875 6.59375 36.375 
Q 6.59375 54.828125 13.0625 64.515625 
Q 19.53125 74.21875 31.78125 74.21875 
z
" id="DejaVuSans-48"/>
       <path d="M 12.40625 8.296875 
L 28.515625 8.296875 
L 28.515625 63.921875 
L 10.984375 60.40625 
L 10.984375 69.390625 
L 28.421875 72.90625 
L 38.28125 72.90625 
L 38.28125 8.296875 
L 54.390625 8.296875 
L 54.390625 0 
L 12.40625 0 
z
" id="DejaVuSans-49"/>
       <path d="M 25.390625 72.90625 
L 33.6875 72.90625 
L 8.296875 -9.28125 
L 0 -9.28125 
z
" id="DejaVuSans-47"/>
       <path d="M 19.1875 8.296875 
L 53.609375 8.296875 
L 53.609375 0 
L 7.328125 0 
L 7.328125 8.296875 
Q 12.9375 14.109375 22.625 23.890625 
Q 32.328125 33.6875 34.8125 36.53125 
Q 39.546875 41.84375 41.421875 45.53125 
Q 43.3125 49.21875 43.3125 52.78125 
Q 43.3125 58.59375 39.234375 62.25 
Q 35.15625 65.921875 28.609375 65.921875 
Q 23.96875 65.921875 18.8125 64.3125 
Q 13.671875 62.703125 7.8125 59.421875 
L 7.8125 69.390625 
Q 13.765625 71.78125 18.9375 73 
Q 24.125 74.21875 28.421875 74.21875 
Q 39.75 74.21875 46.484375 68.546875 
Q 53.21875 62.890625 53.21875 53.421875 
Q 53.21875 48.921875 51.53125 44.890625 
Q 49.859375 40.875 45.40625 35.40625 
Q 44.1875 33.984375 37.640625 27.21875 
Q 31.109375 20.453125 19.1875 8.296875 
z
" id="DejaVuSans-50"/>
       <path d="M 33.015625 40.375 
Q 26.375 40.375 22.484375 35.828125 
Q 18.609375 31.296875 18.609375 23.390625 
Q 18.609375 15.53125 22.484375 10.953125 
Q 26.375 6.390625 33.015625 6.390625 
Q 39.65625 6.390625 43.53125 10.953125 
Q 47.40625 15.53125 47.40625 23.390625 
Q 47.40625 31.296875 43.53125 35.828125 
Q 39.65625 40.375 33.015625 40.375 
z
M 52.59375 71.296875 
L 52.59375 62.3125 
Q 48.875 64.0625 45.09375 64.984375 
Q 41.3125 65.921875 37.59375 65.921875 
Q 27.828125 65.921875 22.671875 59.328125 
Q 17.53125 52.734375 16.796875 39.40625 
Q 19.671875 43.65625 24.015625 45.921875 
Q 28.375 48.1875 33.59375 48.1875 
Q 44.578125 48.1875 50.953125 41.515625 
Q 57.328125 34.859375 57.328125 23.390625 
Q 57.328125 12.15625 50.6875 5.359375 
Q 44.046875 -1.421875 33.015625 -1.421875 
Q 20.359375 -1.421875 13.671875 8.265625 
Q 6.984375 17.96875 6.984375 36.375 
Q 6.984375 53.65625 15.1875 63.9375 
Q 23.390625 74.21875 37.203125 74.21875 
Q 40.921875 74.21875 44.703125 73.484375 
Q 48.484375 72.75 52.59375 71.296875 
z
" id="DejaVuSans-54"/>
      </defs>
      <g transform="translate(10.999219 237.392315)rotate(-30)scale(0.1 -0.1)">
       <use xlink:href="#DejaVuSans-48"/>
       <use x="63.623047" xlink:href="#DejaVuSans-49"/>
       <use x="127.246094" xlink:href="#DejaVuSans-47"/>
       <use x="160.9375" xlink:href="#DejaVuSans-50"/>
       <use x="224.560547" xlink:href="#DejaVuSans-48"/>
       <use x="288.183594" xlink:href="#DejaVuSans-49"/>
       <use x="351.806641" xlink:href="#DejaVuSans-54"/>
      </g>
     </g>
    </g>
    <g id="xtick_2">
     <g id="line2d_2">
      <g>
       <use style="stroke:#000000;stroke-width:0.8;" x="85.874308" xlink:href="#mfac983eac1" y="203.04"/>
      </g>
     </g>
     <g id="text_2">
      <!-- 04/2016 -->
      <defs>
       <path d="M 37.796875 64.3125 
L 12.890625 25.390625 
L 37.796875 25.390625 
z
M 35.203125 72.90625 
L 47.609375 72.90625 
L 47.609375 25.390625 
L 58.015625 25.390625 
L 58.015625 17.1875 
L 47.609375 17.1875 
L 47.609375 0 
L 37.796875 0 
L 37.796875 17.1875 
L 4.890625 17.1875 
L 4.890625 26.703125 
z
" id="DejaVuSans-52"/>
      </defs>
      <g transform="translate(48.856521 237.392315)rotate(-30)scale(0.1 -0.1)">
       <use xlink:href="#DejaVuSans-48"/>
       <use x="63.623047" xlink:href="#DejaVuSans-52"/>
       <use x="127.246094" xlink:href="#DejaVuSans-47"/>
       <use x="160.9375" xlink:href="#DejaVuSans-50"/>
       <use x="224.560547" xlink:href="#DejaVuSans-48"/>
       <use x="288.183594" xlink:href="#DejaVuSans-49"/>
       <use x="351.806641" xlink:href="#DejaVuSans-54"/>
      </g>
     </g>
    </g>
    <g id="xtick_3">
     <g id="line2d_3">
      <g>
       <use style="stroke:#000000;stroke-width:0.8;" x="123.731611" xlink:href="#mfac983eac1" y="203.04"/>
      </g>
     </g>
     <g id="text_3">
      <!-- 07/2016 -->
      <defs>
       <path d="M 8.203125 72.90625 
L 55.078125 72.90625 
L 55.078125 68.703125 
L 28.609375 0 
L 18.3125 0 
L 43.21875 64.59375 
L 8.203125 64.59375 
z
" id="DejaVuSans-55"/>
      </defs>
      <g transform="translate(86.713824 237.392315)rotate(-30)scale(0.1 -0.1)">
       <use xlink:href="#DejaVuSans-48"/>
       <use x="63.623047" xlink:href="#DejaVuSans-55"/>
       <use x="127.246094" xlink:href="#DejaVuSans-47"/>
       <use x="160.9375" xlink:href="#DejaVuSans-50"/>
       <use x="224.560547" xlink:href="#DejaVuSans-48"/>
       <use x="288.183594" xlink:href="#DejaVuSans-49"/>
       <use x="351.806641" xlink:href="#DejaVuSans-54"/>
      </g>
     </g>
    </g>
    <g id="xtick_4">
     <g id="line2d_4">
      <g>
       <use style="stroke:#000000;stroke-width:0.8;" x="162.004928" xlink:href="#mfac983eac1" y="203.04"/>
      </g>
     </g>
     <g id="text_4">
      <!-- 10/2016 -->
      <g transform="translate(124.987141 237.392315)rotate(-30)scale(0.1 -0.1)">
       <use xlink:href="#DejaVuSans-49"/>
       <use x="63.623047" xlink:href="#DejaVuSans-48"/>
       <use x="127.246094" xlink:href="#DejaVuSans-47"/>
       <use x="160.9375" xlink:href="#DejaVuSans-50"/>
       <use x="224.560547" xlink:href="#DejaVuSans-48"/>
       <use x="288.183594" xlink:href="#DejaVuSans-49"/>
       <use x="351.806641" xlink:href="#DejaVuSans-54"/>
      </g>
     </g>
    </g>
    <g id="xtick_5">
     <g id="line2d_5">
      <g>
       <use style="stroke:#000000;stroke-width:0.8;" x="200.278244" xlink:href="#mfac983eac1" y="203.04"/>
      </g>
     </g>
     <g id="text_5">
      <!-- 01/2017 -->
      <g transform="translate(163.260458 237.392315)rotate(-30)scale(0.1 -0.1)">
       <use xlink:href="#DejaVuSans-48"/>
       <use x="63.623047" xlink:href="#DejaVuSans-49"/>
       <use x="127.246094" xlink:href="#DejaVuSans-47"/>
       <use x="160.9375" xlink:href="#DejaVuSans-50"/>
       <use x="224.560547" xlink:href="#DejaVuSans-48"/>
       <use x="288.183594" xlink:href="#DejaVuSans-49"/>
       <use x="351.806641" xlink:href="#DejaVuSans-55"/>
      </g>
     </g>
    </g>
    <g id="xtick_6">
     <g id="line2d_6">
      <g>
       <use style="stroke:#000000;stroke-width:0.8;" x="237.719533" xlink:href="#mfac983eac1" y="203.04"/>
      </g>
     </g>
     <g id="text_6">
      <!-- 04/2017 -->
      <g transform="translate(200.701746 237.392315)rotate(-30)scale(0.1 -0.1)">
       <use xlink:href="#DejaVuSans-48"/>
       <use x="63.623047" xlink:href="#DejaVuSans-52"/>
       <use x="127.246094" xlink:href="#DejaVuSans-47"/>
       <use x="160.9375" xlink:href="#DejaVuSans-50"/>
       <use x="224.560547" xlink:href="#DejaVuSans-48"/>
       <use x="288.183594" xlink:href="#DejaVuSans-49"/>
       <use x="351.806641" xlink:href="#DejaVuSans-55"/>
      </g>
     </g>
    </g>
    <g id="xtick_7">
     <g id="line2d_7">
      <g>
       <use style="stroke:#000000;stroke-width:0.8;" x="275.576835" xlink:href="#mfac983eac1" y="203.04"/>
      </g>
     </g>
     <g id="text_7">
      <!-- 07/2017 -->
      <g transform="translate(238.559049 237.392315)rotate(-30)scale(0.1 -0.1)">
       <use xlink:href="#DejaVuSans-48"/>
       <use x="63.623047" xlink:href="#DejaVuSans-55"/>
       <use x="127.246094" xlink:href="#DejaVuSans-47"/>
       <use x="160.9375" xlink:href="#DejaVuSans-50"/>
       <use x="224.560547" xlink:href="#DejaVuSans-48"/>
       <use x="288.183594" xlink:href="#DejaVuSans-49"/>
       <use x="351.806641" xlink:href="#DejaVuSans-55"/>
      </g>
     </g>
    </g>
    <g id="xtick_8">
     <g id="line2d_8">
      <g>
       <use style="stroke:#000000;stroke-width:0.8;" x="313.850152" xlink:href="#mfac983eac1" y="203.04"/>
      </g>
     </g>
     <g id="text_8">
      <!-- 10/2017 -->
      <g transform="translate(276.832366 237.392315)rotate(-30)scale(0.1 -0.1)">
       <use xlink:href="#DejaVuSans-49"/>
       <use x="63.623047" xlink:href="#DejaVuSans-48"/>
       <use x="127.246094" xlink:href="#DejaVuSans-47"/>
       <use x="160.9375" xlink:href="#DejaVuSans-50"/>
       <use x="224.560547" xlink:href="#DejaVuSans-48"/>
       <use x="288.183594" xlink:href="#DejaVuSans-49"/>
       <use x="351.806641" xlink:href="#DejaVuSans-55"/>
      </g>
     </g>
    </g>
    <g id="xtick_9">
     <g id="line2d_9">
      <g>
       <use style="stroke:#000000;stroke-width:0.8;" x="352.123469" xlink:href="#mfac983eac1" y="203.04"/>
      </g>
     </g>
     <g id="text_9">
      <!-- 01/2018 -->
      <defs>
       <path d="M 31.78125 34.625 
Q 24.75 34.625 20.71875 30.859375 
Q 16.703125 27.09375 16.703125 20.515625 
Q 16.703125 13.921875 20.71875 10.15625 
Q 24.75 6.390625 31.78125 6.390625 
Q 38.8125 6.390625 42.859375 10.171875 
Q 46.921875 13.96875 46.921875 20.515625 
Q 46.921875 27.09375 42.890625 30.859375 
Q 38.875 34.625 31.78125 34.625 
z
M 21.921875 38.8125 
Q 15.578125 40.375 12.03125 44.71875 
Q 8.5 49.078125 8.5 55.328125 
Q 8.5 64.0625 14.71875 69.140625 
Q 20.953125 74.21875 31.78125 74.21875 
Q 42.671875 74.21875 48.875 69.140625 
Q 55.078125 64.0625 55.078125 55.328125 
Q 55.078125 49.078125 51.53125 44.71875 
Q 48 40.375 41.703125 38.8125 
Q 48.828125 37.15625 52.796875 32.3125 
Q 56.78125 27.484375 56.78125 20.515625 
Q 56.78125 9.90625 50.3125 4.234375 
Q 43.84375 -1.421875 31.78125 -1.421875 
Q 19.734375 -1.421875 13.25 4.234375 
Q 6.78125 9.90625 6.78125 20.515625 
Q 6.78125 27.484375 10.78125 32.3125 
Q 14.796875 37.15625 21.921875 38.8125 
z
M 18.3125 54.390625 
Q 18.3125 48.734375 21.84375 45.5625 
Q 25.390625 42.390625 31.78125 42.390625 
Q 38.140625 42.390625 41.71875 45.5625 
Q 45.3125 48.734375 45.3125 54.390625 
Q 45.3125 60.0625 41.71875 63.234375 
Q 38.140625 66.40625 31.78125 66.40625 
Q 25.390625 66.40625 21.84375 63.234375 
Q 18.3125 60.0625 18.3125 54.390625 
z
" id="DejaVuSans-56"/>
      </defs>
      <g transform="translate(315.105683 237.392315)rotate(-30)scale(0.1 -0.1)">
       <use xlink:href="#DejaVuSans-48"/>
       <use x="63.623047" xlink:href="#DejaVuSans-49"/>
       <use x="127.246094" xlink:href="#DejaVuSans-47"/>
       <use x="160.9375" xlink:href="#DejaVuSans-50"/>
       <use x="224.560547" xlink:href="#DejaVuSans-48"/>
       <use x="288.183594" xlink:href="#DejaVuSans-49"/>
       <use x="351.806641" xlink:href="#DejaVuSans-56"/>
      </g>
     </g>
    </g>
   </g>
   <g id="matplotlib.axis_2">
    <g id="ytick_1">
     <g id="line2d_10">
      <defs>
       <path d="M 0 0 
L -3.5 0 
" id="m33b8a71ba8" style="stroke:#000000;stroke-width:0.8;"/>
      </defs>
      <g>
       <use style="stroke:#000000;stroke-width:0.8;" x="44.734652" xlink:href="#m33b8a71ba8" y="197.679998"/>
      </g>
     </g>
     <g id="text_10">
      <!-- 0.0 -->
      <defs>
       <path d="M 10.6875 12.40625 
L 21 12.40625 
L 21 0 
L 10.6875 0 
z
" id="DejaVuSans-46"/>
      </defs>
      <g transform="translate(21.831527 201.479216)scale(0.1 -0.1)">
       <use xlink:href="#DejaVuSans-48"/>
       <use x="63.623047" xlink:href="#DejaVuSans-46"/>
       <use x="95.410156" xlink:href="#DejaVuSans-48"/>
      </g>
     </g>
    </g>
    <g id="ytick_2">
     <g id="line2d_11">
      <g>
       <use style="stroke:#000000;stroke-width:0.8;" x="44.734652" xlink:href="#m33b8a71ba8" y="157.996665"/>
      </g>
     </g>
     <g id="text_11">
      <!-- 0.5 -->
      <defs>
       <path d="M 10.796875 72.90625 
L 49.515625 72.90625 
L 49.515625 64.59375 
L 19.828125 64.59375 
L 19.828125 46.734375 
Q 21.96875 47.46875 24.109375 47.828125 
Q 26.265625 48.1875 28.421875 48.1875 
Q 40.625 48.1875 47.75 41.5 
Q 54.890625 34.8125 54.890625 23.390625 
Q 54.890625 11.625 47.5625 5.09375 
Q 40.234375 -1.421875 26.90625 -1.421875 
Q 22.3125 -1.421875 17.546875 -0.640625 
Q 12.796875 0.140625 7.71875 1.703125 
L 7.71875 11.625 
Q 12.109375 9.234375 16.796875 8.0625 
Q 21.484375 6.890625 26.703125 6.890625 
Q 35.15625 6.890625 40.078125 11.328125 
Q 45.015625 15.765625 45.015625 23.390625 
Q 45.015625 31 40.078125 35.4375 
Q 35.15625 39.890625 26.703125 39.890625 
Q 22.75 39.890625 18.8125 39.015625 
Q 14.890625 38.140625 10.796875 36.28125 
z
" id="DejaVuSans-53"/>
      </defs>
      <g transform="translate(21.831527 161.795884)scale(0.1 -0.1)">
       <use xlink:href="#DejaVuSans-48"/>
       <use x="63.623047" xlink:href="#DejaVuSans-46"/>
       <use x="95.410156" xlink:href="#DejaVuSans-53"/>
      </g>
     </g>
    </g>
    <g id="ytick_3">
     <g id="line2d_12">
      <g>
       <use style="stroke:#000000;stroke-width:0.8;" x="44.734652" xlink:href="#m33b8a71ba8" y="118.313332"/>
      </g>
     </g>
     <g id="text_12">
      <!-- 1.0 -->
      <g transform="translate(21.831527 122.112551)scale(0.1 -0.1)">
       <use xlink:href="#DejaVuSans-49"/>
       <use x="63.623047" xlink:href="#DejaVuSans-46"/>
       <use x="95.410156" xlink:href="#DejaVuSans-48"/>
      </g>
     </g>
    </g>
    <g id="ytick_4">
     <g id="line2d_13">
      <g>
       <use style="stroke:#000000;stroke-width:0.8;" x="44.734652" xlink:href="#m33b8a71ba8" y="78.629999"/>
      </g>
     </g>
     <g id="text_13">
      <!-- 1.5 -->
      <g transform="translate(21.831527 82.429218)scale(0.1 -0.1)">
       <use xlink:href="#DejaVuSans-49"/>
       <use x="63.623047" xlink:href="#DejaVuSans-46"/>
       <use x="95.410156" xlink:href="#DejaVuSans-53"/>
      </g>
     </g>
    </g>
    <g id="ytick_5">
     <g id="line2d_14">
      <g>
       <use style="stroke:#000000;stroke-width:0.8;" x="44.734652" xlink:href="#m33b8a71ba8" y="38.946666"/>
      </g>
     </g>
     <g id="text_14">
      <!-- 2.0 -->
      <g transform="translate(21.831527 42.745885)scale(0.1 -0.1)">
       <use xlink:href="#DejaVuSans-50"/>
       <use x="63.623047" xlink:href="#DejaVuSans-46"/>
       <use x="95.410156" xlink:href="#DejaVuSans-48"/>
      </g>
     </g>
    </g>
    <g id="text_15">
     <!-- Total Posts (%) -->
     <defs>
      <path d="M -0.296875 72.90625 
L 61.375 72.90625 
L 61.375 64.59375 
L 35.5 64.59375 
L 35.5 0 
L 25.59375 0 
L 25.59375 64.59375 
L -0.296875 64.59375 
z
" id="DejaVuSans-84"/>
      <path d="M 30.609375 48.390625 
Q 23.390625 48.390625 19.1875 42.75 
Q 14.984375 37.109375 14.984375 27.296875 
Q 14.984375 17.484375 19.15625 11.84375 
Q 23.34375 6.203125 30.609375 6.203125 
Q 37.796875 6.203125 41.984375 11.859375 
Q 46.1875 17.53125 46.1875 27.296875 
Q 46.1875 37.015625 41.984375 42.703125 
Q 37.796875 48.390625 30.609375 48.390625 
z
M 30.609375 56 
Q 42.328125 56 49.015625 48.375 
Q 55.71875 40.765625 55.71875 27.296875 
Q 55.71875 13.875 49.015625 6.21875 
Q 42.328125 -1.421875 30.609375 -1.421875 
Q 18.84375 -1.421875 12.171875 6.21875 
Q 5.515625 13.875 5.515625 27.296875 
Q 5.515625 40.765625 12.171875 48.375 
Q 18.84375 56 30.609375 56 
z
" id="DejaVuSans-111"/>
      <path d="M 18.3125 70.21875 
L 18.3125 54.6875 
L 36.8125 54.6875 
L 36.8125 47.703125 
L 18.3125 47.703125 
L 18.3125 18.015625 
Q 18.3125 11.328125 20.140625 9.421875 
Q 21.96875 7.515625 27.59375 7.515625 
L 36.8125 7.515625 
L 36.8125 0 
L 27.59375 0 
Q 17.1875 0 13.234375 3.875 
Q 9.28125 7.765625 9.28125 18.015625 
L 9.28125 47.703125 
L 2.6875 47.703125 
L 2.6875 54.6875 
L 9.28125 54.6875 
L 9.28125 70.21875 
z
" id="DejaVuSans-116"/>
      <path d="M 34.28125 27.484375 
Q 23.390625 27.484375 19.1875 25 
Q 14.984375 22.515625 14.984375 16.5 
Q 14.984375 11.71875 18.140625 8.90625 
Q 21.296875 6.109375 26.703125 6.109375 
Q 34.1875 6.109375 38.703125 11.40625 
Q 43.21875 16.703125 43.21875 25.484375 
L 43.21875 27.484375 
z
M 52.203125 31.203125 
L 52.203125 0 
L 43.21875 0 
L 43.21875 8.296875 
Q 40.140625 3.328125 35.546875 0.953125 
Q 30.953125 -1.421875 24.3125 -1.421875 
Q 15.921875 -1.421875 10.953125 3.296875 
Q 6 8.015625 6 15.921875 
Q 6 25.140625 12.171875 29.828125 
Q 18.359375 34.515625 30.609375 34.515625 
L 43.21875 34.515625 
L 43.21875 35.40625 
Q 43.21875 41.609375 39.140625 45 
Q 35.0625 48.390625 27.6875 48.390625 
Q 23 48.390625 18.546875 47.265625 
Q 14.109375 46.140625 10.015625 43.890625 
L 10.015625 52.203125 
Q 14.9375 54.109375 19.578125 55.046875 
Q 24.21875 56 28.609375 56 
Q 40.484375 56 46.34375 49.84375 
Q 52.203125 43.703125 52.203125 31.203125 
z
" id="DejaVuSans-97"/>
      <path d="M 9.421875 75.984375 
L 18.40625 75.984375 
L 18.40625 0 
L 9.421875 0 
z
" id="DejaVuSans-108"/>
      <path id="DejaVuSans-32"/>
      <path d="M 19.671875 64.796875 
L 19.671875 37.40625 
L 32.078125 37.40625 
Q 38.96875 37.40625 42.71875 40.96875 
Q 46.484375 44.53125 46.484375 51.125 
Q 46.484375 57.671875 42.71875 61.234375 
Q 38.96875 64.796875 32.078125 64.796875 
z
M 9.8125 72.90625 
L 32.078125 72.90625 
Q 44.34375 72.90625 50.609375 67.359375 
Q 56.890625 61.8125 56.890625 51.125 
Q 56.890625 40.328125 50.609375 34.8125 
Q 44.34375 29.296875 32.078125 29.296875 
L 19.671875 29.296875 
L 19.671875 0 
L 9.8125 0 
z
" id="DejaVuSans-80"/>
      <path d="M 44.28125 53.078125 
L 44.28125 44.578125 
Q 40.484375 46.53125 36.375 47.5 
Q 32.28125 48.484375 27.875 48.484375 
Q 21.1875 48.484375 17.84375 46.4375 
Q 14.5 44.390625 14.5 40.28125 
Q 14.5 37.15625 16.890625 35.375 
Q 19.28125 33.59375 26.515625 31.984375 
L 29.59375 31.296875 
Q 39.15625 29.25 43.1875 25.515625 
Q 47.21875 21.78125 47.21875 15.09375 
Q 47.21875 7.46875 41.1875 3.015625 
Q 35.15625 -1.421875 24.609375 -1.421875 
Q 20.21875 -1.421875 15.453125 -0.5625 
Q 10.6875 0.296875 5.421875 2 
L 5.421875 11.28125 
Q 10.40625 8.6875 15.234375 7.390625 
Q 20.0625 6.109375 24.8125 6.109375 
Q 31.15625 6.109375 34.5625 8.28125 
Q 37.984375 10.453125 37.984375 14.40625 
Q 37.984375 18.0625 35.515625 20.015625 
Q 33.0625 21.96875 24.703125 23.78125 
L 21.578125 24.515625 
Q 13.234375 26.265625 9.515625 29.90625 
Q 5.8125 33.546875 5.8125 39.890625 
Q 5.8125 47.609375 11.28125 51.796875 
Q 16.75 56 26.8125 56 
Q 31.78125 56 36.171875 55.265625 
Q 40.578125 54.546875 44.28125 53.078125 
z
" id="DejaVuSans-115"/>
      <path d="M 31 75.875 
Q 24.46875 64.65625 21.28125 53.65625 
Q 18.109375 42.671875 18.109375 31.390625 
Q 18.109375 20.125 21.3125 9.0625 
Q 24.515625 -2 31 -13.1875 
L 23.1875 -13.1875 
Q 15.875 -1.703125 12.234375 9.375 
Q 8.59375 20.453125 8.59375 31.390625 
Q 8.59375 42.28125 12.203125 53.3125 
Q 15.828125 64.359375 23.1875 75.875 
z
" id="DejaVuSans-40"/>
      <path d="M 72.703125 32.078125 
Q 68.453125 32.078125 66.03125 28.46875 
Q 63.625 24.859375 63.625 18.40625 
Q 63.625 12.0625 66.03125 8.421875 
Q 68.453125 4.78125 72.703125 4.78125 
Q 76.859375 4.78125 79.265625 8.421875 
Q 81.6875 12.0625 81.6875 18.40625 
Q 81.6875 24.8125 79.265625 28.4375 
Q 76.859375 32.078125 72.703125 32.078125 
z
M 72.703125 38.28125 
Q 80.421875 38.28125 84.953125 32.90625 
Q 89.5 27.546875 89.5 18.40625 
Q 89.5 9.28125 84.9375 3.921875 
Q 80.375 -1.421875 72.703125 -1.421875 
Q 64.890625 -1.421875 60.34375 3.921875 
Q 55.8125 9.28125 55.8125 18.40625 
Q 55.8125 27.59375 60.375 32.9375 
Q 64.9375 38.28125 72.703125 38.28125 
z
M 22.3125 68.015625 
Q 18.109375 68.015625 15.6875 64.375 
Q 13.28125 60.75 13.28125 54.390625 
Q 13.28125 47.953125 15.671875 44.328125 
Q 18.0625 40.71875 22.3125 40.71875 
Q 26.5625 40.71875 28.96875 44.328125 
Q 31.390625 47.953125 31.390625 54.390625 
Q 31.390625 60.6875 28.953125 64.34375 
Q 26.515625 68.015625 22.3125 68.015625 
z
M 66.40625 74.21875 
L 74.21875 74.21875 
L 28.609375 -1.421875 
L 20.796875 -1.421875 
z
M 22.3125 74.21875 
Q 30.03125 74.21875 34.609375 68.875 
Q 39.203125 63.53125 39.203125 54.390625 
Q 39.203125 45.171875 34.640625 39.84375 
Q 30.078125 34.515625 22.3125 34.515625 
Q 14.546875 34.515625 10.03125 39.859375 
Q 5.515625 45.21875 5.515625 54.390625 
Q 5.515625 63.484375 10.046875 68.84375 
Q 14.59375 74.21875 22.3125 74.21875 
z
" id="DejaVuSans-37"/>
      <path d="M 8.015625 75.875 
L 15.828125 75.875 
Q 23.140625 64.359375 26.78125 53.3125 
Q 30.421875 42.28125 30.421875 31.390625 
Q 30.421875 20.453125 26.78125 9.375 
Q 23.140625 -1.703125 15.828125 -13.1875 
L 8.015625 -13.1875 
Q 14.5 -2 17.703125 9.0625 
Q 20.90625 20.125 20.90625 31.390625 
Q 20.90625 42.671875 17.703125 53.65625 
Q 14.5 64.65625 8.015625 75.875 
z
" id="DejaVuSans-41"/>
     </defs>
     <g transform="translate(15.75184 142.705156)rotate(-90)scale(0.1 -0.1)">
      <use xlink:href="#DejaVuSans-84"/>
      <use x="60.818359" xlink:href="#DejaVuSans-111"/>
      <use x="122" xlink:href="#DejaVuSans-116"/>
      <use x="161.208984" xlink:href="#DejaVuSans-97"/>
      <use x="222.488281" xlink:href="#DejaVuSans-108"/>
      <use x="250.271484" xlink:href="#DejaVuSans-32"/>
      <use x="282.058594" xlink:href="#DejaVuSans-80"/>
      <use x="342.314453" xlink:href="#DejaVuSans-111"/>
      <use x="403.496094" xlink:href="#DejaVuSans-115"/>
      <use x="455.595703" xlink:href="#DejaVuSans-116"/>
      <use x="494.804688" xlink:href="#DejaVuSans-115"/>
      <use x="546.904297" xlink:href="#DejaVuSans-32"/>
      <use x="578.691406" xlink:href="#DejaVuSans-40"/>
      <use x="617.705078" xlink:href="#DejaVuSans-37"/>
      <use x="712.724609" xlink:href="#DejaVuSans-41"/>
     </g>
    </g>
   </g>
   <g id="line2d_15">
    <path clip-path="url(#pfa4dc5ff1b)" d="M 48.017005 194.782699 
L 48.43302 196.714231 
L 48.849034 194.782699 
L 49.265048 195.748465 
L 49.681063 193.816933 
L 50.097077 196.714231 
L 50.513091 196.714231 
L 50.929106 192.851167 
L 51.761134 196.714231 
L 52.593163 196.714231 
L 53.009177 194.782699 
L 53.425191 193.816933 
L 53.841206 188.988102 
L 54.673234 187.05657 
L 55.089249 194.782699 
L 55.505263 191.8854 
L 55.921277 195.748465 
L 56.337292 195.748465 
L 56.753306 188.988102 
L 57.585335 195.748465 
L 58.001349 194.782699 
L 58.417363 195.748465 
L 58.833378 193.816933 
L 59.249392 188.988102 
L 59.665406 188.988102 
L 60.08142 193.816933 
L 60.497435 191.8854 
L 60.913449 194.782699 
L 61.329463 195.748465 
L 61.745478 193.816933 
L 62.161492 194.782699 
L 62.577506 193.816933 
L 62.993521 191.8854 
L 63.409535 196.714231 
L 63.825549 190.919634 
L 64.241564 195.748465 
L 64.657578 195.748465 
L 65.073592 192.851167 
L 65.489607 194.782699 
L 66.321635 194.782699 
L 66.73765 196.714231 
L 67.153664 194.782699 
L 67.569678 194.782699 
L 68.401707 191.8854 
L 68.817721 192.851167 
L 69.233735 195.748465 
L 69.64975 195.748465 
L 70.065764 191.8854 
L 70.481778 194.782699 
L 71.313807 195.748465 
L 71.729821 192.851167 
L 72.145836 192.851167 
L 72.56185 196.714231 
L 72.977864 195.748465 
L 73.393879 195.748465 
L 73.809893 196.714231 
L 75.47395 196.714231 
L 75.889964 190.919634 
L 76.305979 195.748465 
L 76.721993 196.714231 
L 77.138007 195.748465 
L 77.554022 195.748465 
L 77.970036 196.714231 
L 78.38605 196.714231 
L 79.218079 186.090803 
L 79.634093 187.05657 
L 80.050108 180.296206 
L 80.466122 182.227739 
L 81.298151 195.748465 
L 81.714165 175.467375 
L 82.546193 175.467375 
L 82.962208 178.364674 
L 83.378222 183.193505 
L 84.210251 194.782699 
L 84.626265 175.467375 
L 85.042279 176.433141 
L 85.458294 170.638544 
L 85.874308 176.433141 
L 86.290322 177.398908 
L 87.122351 175.467375 
L 87.538365 158.083584 
L 87.95438 156.152051 
L 88.370394 176.433141 
L 88.786408 176.433141 
L 89.202423 181.261972 
L 90.034451 165.809713 
L 90.450465 147.460156 
L 90.86648 170.638544 
L 91.282494 176.433141 
L 91.698508 168.707012 
L 92.114523 178.364674 
L 92.530537 194.782699 
L 92.946551 166.775479 
L 93.362566 177.398908 
L 93.77858 132.007897 
L 94.194594 154.220519 
L 94.610609 165.809713 
L 95.026623 162.912415 
L 95.442637 163.878181 
L 95.858652 158.083584 
L 96.274666 144.562857 
L 96.69068 112.692573 
L 97.106694 132.007897 
L 97.522709 142.631325 
L 97.938723 174.501609 
L 98.354737 167.741246 
L 98.770752 165.809713 
L 99.186766 170.638544 
L 99.60278 111.726807 
L 100.018795 111.726807 
L 100.434809 121.384468 
L 100.850823 182.227739 
L 101.266838 188.022336 
L 101.682852 159.04935 
L 102.098866 119.452936 
L 102.514881 127.179066 
L 102.930895 161.946649 
L 103.346909 152.288987 
L 104.178938 139.734026 
L 104.594952 140.699792 
L 105.010966 156.152051 
L 105.426981 139.734026 
L 105.842995 134.905195 
L 106.259009 156.152051 
L 106.675024 158.083584 
L 107.091038 140.699792 
L 107.507052 143.597091 
L 107.923067 155.186285 
L 108.339081 159.04935 
L 108.755095 152.288987 
L 109.17111 151.32322 
L 109.587124 156.152051 
L 110.003138 177.398908 
L 110.419153 70.19886 
L 110.835167 194.782699 
L 111.251181 164.843947 
L 111.667195 164.843947 
L 112.08321 195.748465 
L 112.499224 195.748465 
L 112.915238 164.843947 
L 113.331253 156.152051 
L 113.747267 195.748465 
L 114.163281 137.802494 
L 114.99531 161.946649 
L 115.827339 142.631325 
L 116.659367 180.296206 
L 117.075382 144.562857 
L 117.491396 136.836728 
L 117.90741 194.782699 
L 118.323425 161.946649 
L 118.739439 152.288987 
L 119.571467 95.308781 
L 119.987482 168.707012 
L 120.403496 151.32322 
L 120.81951 141.665558 
L 121.235525 144.562857 
L 122.067553 163.878181 
L 122.899582 151.32322 
L 123.315596 132.973663 
L 123.731611 195.748465 
L 124.979654 155.186285 
L 125.395668 135.870961 
L 125.811682 138.76826 
L 126.227696 135.870961 
L 126.643711 155.186285 
L 127.059725 189.953868 
L 127.475739 194.782699 
L 127.891754 155.186285 
L 128.307768 163.878181 
L 128.723782 129.110598 
L 129.555811 159.04935 
L 129.971825 193.816933 
L 130.803854 194.782699 
L 131.219868 194.782699 
L 131.635883 135.870961 
L 132.051897 137.802494 
L 132.467911 125.247533 
L 132.883926 196.714231 
L 133.715954 135.870961 
L 134.131968 191.8854 
L 134.547983 194.782699 
L 134.963997 99.171846 
L 135.380011 192.851167 
L 135.796026 194.782699 
L 136.21204 194.782699 
L 136.628054 196.714231 
L 137.044069 108.829508 
L 137.460083 135.870961 
L 137.876097 117.521404 
L 138.292112 123.316001 
L 138.708126 190.919634 
L 139.12414 196.714231 
L 139.540155 92.411483 
L 139.956169 136.836728 
L 140.372183 122.350235 
L 140.788197 155.186285 
L 141.204212 150.357454 
L 141.620226 196.714231 
L 142.03624 188.022336 
L 142.452255 128.144832 
L 143.284283 107.863742 
L 143.700298 93.377249 
L 144.116312 136.836728 
L 144.948341 195.748465 
L 145.364355 122.350235 
L 145.780369 130.076364 
L 146.196384 131.04213 
L 146.612398 134.905195 
L 147.028412 187.05657 
L 147.444427 196.714231 
L 147.860441 193.816933 
L 148.276455 192.851167 
L 148.692469 188.988102 
L 149.108484 192.851167 
L 149.524498 193.816933 
L 149.940512 193.816933 
L 150.356527 192.851167 
L 150.772541 193.816933 
L 151.188555 144.562857 
L 152.020584 126.213299 
L 152.436598 132.007897 
L 152.852613 124.281767 
L 153.268627 192.851167 
L 153.684641 193.816933 
L 154.100656 135.870961 
L 154.51667 128.144832 
L 154.932684 178.364674 
L 155.348699 190.919634 
L 156.180727 194.782699 
L 156.596741 191.8854 
L 157.012756 194.782699 
L 157.42877 191.8854 
L 157.844784 189.953868 
L 158.260799 192.851167 
L 159.092827 174.501609 
L 159.508842 192.851167 
L 159.924856 154.220519 
L 160.34087 164.843947 
L 160.756885 165.809713 
L 161.172899 149.391688 
L 161.588913 158.083584 
L 162.004928 158.083584 
L 162.420942 195.748465 
L 162.836956 167.741246 
L 163.25297 191.8854 
L 163.668985 191.8854 
L 164.084999 190.919634 
L 164.501013 190.919634 
L 165.749056 196.714231 
L 166.165071 195.748465 
L 166.581085 195.748465 
L 166.997099 192.851167 
L 167.413114 190.919634 
L 167.829128 192.851167 
L 168.245142 196.714231 
L 168.661157 194.782699 
L 169.077171 188.988102 
L 169.493185 190.919634 
L 169.9092 193.816933 
L 171.573257 182.227739 
L 171.989271 187.05657 
L 172.405285 183.193505 
L 172.8213 192.851167 
L 173.237314 190.919634 
L 174.069343 193.816933 
L 174.485357 195.748465 
L 175.317386 192.851167 
L 175.7334 189.953868 
L 176.149414 193.816933 
L 178.6455 194.782699 
L 179.061514 196.714231 
L 179.477529 193.816933 
L 180.309557 196.714231 
L 180.725572 196.714231 
L 181.141586 192.851167 
L 181.5576 196.714231 
L 186.549772 196.714231 
L 187.381801 193.816933 
L 187.797815 191.8854 
L 188.213829 188.022336 
L 188.629844 196.714231 
L 189.045858 185.125037 
L 189.461872 164.843947 
L 189.877887 195.748465 
L 190.709915 196.714231 
L 191.957958 195.748465 
L 193.622015 193.816933 
L 194.03803 193.816933 
L 195.702087 195.748465 
L 196.118101 196.714231 
L 197.782159 196.714231 
L 199.446216 195.748465 
L 201.110273 196.714231 
L 201.526287 196.714231 
L 206.518459 194.782699 
L 207.350488 196.714231 
L 209.430559 196.714231 
L 209.846574 194.782699 
L 211.094617 196.714231 
L 212.34266 195.748465 
L 212.758674 195.748465 
L 213.590703 196.714231 
L 218.582874 196.714231 
L 218.998889 195.748465 
L 220.246932 196.714231 
L 220.662946 195.748465 
L 225.655118 195.748465 
L 226.071132 196.714231 
L 229.399246 196.714231 
L 233.143375 195.748465 
L 234.391418 196.714231 
L 236.47149 196.714231 
L 237.719533 195.748465 
L 238.135547 195.748465 
L 239.799604 196.714231 
L 240.215619 196.714231 
L 246.039819 195.748465 
L 247.703876 196.714231 
L 252.696048 196.714231 
L 255.608148 195.748465 
L 258.520248 193.816933 
L 258.936263 193.816933 
L 259.768291 196.714231 
L 265.176478 196.714231 
L 265.592492 195.748465 
L 266.008506 196.714231 
L 266.840535 195.748465 
L 267.672563 196.714231 
L 268.088578 194.782699 
L 268.504592 195.748465 
L 269.336621 196.714231 
L 269.752635 196.714231 
L 270.168649 195.748465 
L 271.832707 195.748465 
L 272.248721 196.714231 
L 273.080749 196.714231 
L 274.744807 194.782699 
L 275.160821 196.714231 
L 275.576835 196.714231 
L 276.824878 195.748465 
L 277.656907 194.782699 
L 278.488936 196.714231 
L 279.736979 194.782699 
L 280.152993 196.714231 
L 280.569007 196.714231 
L 280.985021 195.748465 
L 282.649079 196.714231 
L 283.065093 195.748465 
L 283.481107 196.714231 
L 284.313136 195.748465 
L 284.72915 196.714231 
L 298.041608 196.714231 
L 298.457623 195.748465 
L 299.705666 196.714231 
L 312.186095 196.714231 
L 312.602109 195.748465 
L 313.434138 196.714231 
L 314.682181 196.714231 
L 315.51421 189.953868 
L 316.346238 195.748465 
L 317.178267 196.714231 
L 317.594281 196.714231 
L 318.42631 195.748465 
L 318.842324 196.714231 
L 319.674353 195.748465 
L 320.506381 196.714231 
L 323.418482 196.714231 
L 323.834496 195.748465 
L 325.498553 196.714231 
L 327.16261 196.714231 
L 329.658696 192.851167 
L 330.074711 195.748465 
L 331.322754 190.919634 
L 334.650868 195.748465 
L 335.898911 196.714231 
L 338.811011 196.714231 
L 340.475068 195.748465 
L 341.307097 194.782699 
L 341.723111 192.851167 
L 342.971154 195.748465 
L 343.803183 184.159271 
L 344.635212 196.714231 
L 345.46724 196.714231 
L 346.715283 193.816933 
L 347.131297 193.816933 
L 347.547312 183.193505 
L 347.963326 184.159271 
L 348.795355 190.919634 
L 349.211369 189.953868 
L 349.627383 190.919634 
L 350.043398 189.953868 
L 350.459412 192.851167 
L 350.875426 192.851167 
L 351.291441 194.782699 
L 351.707455 193.816933 
L 352.955498 192.851167 
L 353.371512 195.748465 
L 353.787527 193.816933 
L 354.203541 190.919634 
L 354.619555 196.714231 
L 355.035569 195.748465 
L 355.451584 185.125037 
L 355.867598 190.919634 
L 356.283612 194.782699 
L 357.115641 190.919634 
L 357.531655 186.090803 
L 357.94767 196.714231 
L 358.363684 193.816933 
L 358.779698 188.988102 
L 359.195713 194.782699 
L 359.611727 184.159271 
L 360.027741 196.714231 
L 361.275784 185.125037 
L 362.107813 195.748465 
L 362.523827 193.816933 
L 362.939841 193.816933 
L 363.77187 186.090803 
L 364.187884 184.159271 
L 364.603899 184.159271 
L 365.019913 188.988102 
L 365.435927 189.953868 
L 366.267956 190.919634 
L 366.68397 195.748465 
L 367.099985 194.782699 
L 367.515999 196.714231 
L 367.932013 192.851167 
L 368.348028 194.782699 
L 369.59607 196.714231 
L 370.012085 192.851167 
L 370.428099 195.748465 
L 370.844113 195.748465 
L 371.260128 190.919634 
L 371.676142 194.782699 
L 372.092156 195.748465 
L 372.508171 191.8854 
L 373.340199 192.851167 
L 375.004257 196.714231 
L 376.252299 193.816933 
L 376.252299 193.816933 
" style="fill:none;stroke:#d62728;stroke-linecap:square;stroke-width:0.5;"/>
   </g>
   <g id="line2d_16">
    <path clip-path="url(#pfa4dc5ff1b)" d="M 48.017005 191.966253 
L 48.43302 191.108346 
L 48.849034 190.878306 
L 49.265048 190.082826 
L 49.681063 189.652714 
L 50.513091 189.676427 
L 50.929106 189.870587 
L 51.34512 190.740316 
L 51.761134 190.420472 
L 52.177149 189.502315 
L 52.593163 189.624128 
L 53.009177 189.559661 
L 53.425191 189.840445 
L 53.841206 189.984484 
L 54.25722 190.651445 
L 54.673234 190.678165 
L 55.089249 189.727897 
L 55.505263 189.632631 
L 55.921277 189.755999 
L 56.337292 189.611511 
L 56.753306 189.79264 
L 57.16932 190.553 
L 57.585335 190.672116 
L 58.001349 189.29737 
L 58.417363 189.376977 
L 58.833378 189.232731 
L 59.249392 189.213996 
L 59.665406 189.309261 
L 60.08142 190.106331 
L 60.497435 190.170037 
L 60.913449 189.148734 
L 61.329463 189.269026 
L 62.161492 189.68818 
L 62.577506 189.787282 
L 62.993521 190.362642 
L 63.825549 190.025445 
L 64.241564 189.191389 
L 64.657578 189.062353 
L 65.073592 189.210194 
L 65.489607 189.66623 
L 65.905621 189.480539 
L 66.321635 188.616341 
L 66.73765 189.292497 
L 67.153664 189.371689 
L 67.569678 188.383915 
L 67.985692 189.231729 
L 68.401707 189.279396 
L 68.817721 190.220677 
L 69.233735 190.154724 
L 69.64975 189.306945 
L 70.065764 189.114825 
L 70.481778 188.53504 
L 70.897793 188.469502 
L 71.313807 188.967779 
L 71.729821 187.683424 
L 72.145836 185.753125 
L 72.56185 188.689967 
L 72.977864 188.723601 
L 73.393879 189.141925 
L 73.809893 189.223398 
L 74.225907 189.840929 
L 74.641921 190.756286 
L 75.057936 190.647332 
L 75.47395 189.504943 
L 75.889964 189.396507 
L 76.721993 189.768996 
L 77.138007 189.994508 
L 77.554022 190.904472 
L 77.970036 190.874953 
L 78.38605 189.86796 
L 79.634093 189.501002 
L 80.050108 190.13198 
L 80.466122 191.144295 
L 80.882136 190.891994 
L 81.298151 189.897515 
L 81.714165 189.767648 
L 82.130179 189.788112 
L 82.546193 189.934708 
L 82.962208 190.34007 
L 83.378222 191.015466 
L 83.794236 191.124108 
L 84.210251 189.832288 
L 84.626265 189.436155 
L 85.042279 189.572002 
L 85.458294 189.537573 
L 85.874308 188.542299 
L 86.290322 190.399905 
L 86.706337 190.689192 
L 87.122351 189.588421 
L 87.538365 189.411129 
L 87.95438 189.51673 
L 88.370394 189.395712 
L 88.786408 189.658314 
L 89.202423 190.652586 
L 89.618437 190.625693 
L 90.034451 189.57214 
L 90.450465 189.250049 
L 90.86648 189.312545 
L 91.282494 189.215966 
L 91.698508 189.456584 
L 92.114523 190.57972 
L 92.530537 190.530532 
L 92.946551 189.246661 
L 93.77858 189.130967 
L 94.610609 189.688387 
L 95.026623 190.673119 
L 95.442637 190.652863 
L 95.858652 189.362148 
L 96.274666 189.059587 
L 96.69068 189.018522 
L 97.106694 189.168679 
L 97.522709 189.589389 
L 97.938723 190.561814 
L 98.354737 188.62436 
L 98.770752 185.311123 
L 99.186766 186.673148 
L 99.60278 188.761347 
L 100.018795 189.607571 
L 100.434809 189.845354 
L 100.850823 190.815049 
L 101.266838 190.737032 
L 101.682852 189.484479 
L 102.098866 189.22962 
L 102.930895 189.408398 
L 103.346909 189.804081 
L 103.762924 190.824935 
L 104.178938 190.570076 
L 104.594952 189.671692 
L 105.010966 189.245382 
L 105.426981 189.206011 
L 106.259009 189.779954 
L 106.675024 190.831572 
L 107.091038 190.80817 
L 107.507052 189.460628 
L 107.923067 189.283164 
L 108.755095 189.449567 
L 109.17111 189.924304 
L 109.587124 190.930605 
L 110.003138 190.932264 
L 110.835167 189.155025 
L 111.667195 189.214549 
L 112.08321 189.543657 
L 112.499224 190.538136 
L 112.915238 190.395169 
L 113.331253 189.209537 
L 113.747267 188.969334 
L 114.99531 189.446629 
L 115.411324 190.454174 
L 115.827339 190.053272 
L 116.243353 188.997609 
L 117.075382 188.677454 
L 117.491396 188.805489 
L 117.90741 189.19654 
L 118.323425 190.561019 
L 118.739439 190.560985 
L 119.155453 188.934042 
L 120.81951 188.836357 
L 121.235525 190.588534 
L 121.651539 190.20329 
L 122.067553 188.916482 
L 122.483568 188.850079 
L 123.315596 188.865946 
L 123.731611 189.189315 
L 124.147625 190.752103 
L 124.563639 190.887327 
L 124.979654 189.707779 
L 125.395668 189.288279 
L 126.227696 188.694807 
L 126.643711 189.050289 
L 127.059725 190.261016 
L 127.475739 190.379649 
L 127.891754 188.941715 
L 128.723782 188.724914 
L 129.139797 188.814787 
L 129.555811 189.345867 
L 129.971825 190.476608 
L 130.38784 190.433745 
L 130.803854 189.091077 
L 131.219868 188.593388 
L 132.051897 188.939711 
L 132.467911 189.315933 
L 132.883926 190.57495 
L 133.29994 190.547296 
L 133.715954 188.948214 
L 134.131968 188.640883 
L 134.547983 188.609496 
L 134.963997 188.765322 
L 135.380011 189.137742 
L 135.796026 190.360084 
L 136.21204 190.306921 
L 136.628054 189.013164 
L 137.044069 188.60718 
L 137.460083 188.65184 
L 137.876097 188.812644 
L 138.292112 189.138987 
L 138.708126 190.351892 
L 139.12414 190.441592 
L 139.540155 188.919558 
L 139.956169 188.720178 
L 140.372183 188.759169 
L 140.788197 189.42302 
L 141.204212 188.746933 
L 141.620226 190.172526 
L 142.03624 190.180926 
L 142.452255 189.185167 
L 142.868269 188.751392 
L 143.284283 188.69574 
L 143.700298 188.784057 
L 144.116312 189.03947 
L 144.532326 190.10443 
L 144.948341 190.159218 
L 145.364355 189.004177 
L 145.780369 188.756992 
L 147.028412 188.981743 
L 147.444427 190.121852 
L 147.860441 190.118499 
L 148.276455 188.934353 
L 148.692469 188.763041 
L 149.524498 188.85084 
L 149.940512 189.127372 
L 150.356527 190.193923 
L 150.772541 190.290709 
L 151.188555 189.453266 
L 151.60457 188.946209 
L 152.436598 188.697918 
L 152.852613 188.880982 
L 153.268627 189.903702 
L 153.684641 189.646596 
L 154.100656 188.820249 
L 154.51667 188.508009 
L 155.348699 188.823913 
L 155.764713 188.858203 
L 156.180727 189.949987 
L 156.596741 189.817562 
L 157.012756 188.77984 
L 157.42877 188.629268 
L 158.676813 188.882261 
L 159.092827 190.036438 
L 159.508842 189.863398 
L 159.924856 188.668225 
L 160.756885 188.547795 
L 161.172899 188.645618 
L 161.588913 188.996849 
L 162.004928 189.859837 
L 162.420942 189.781786 
L 162.836956 188.850183 
L 163.668985 188.445202 
L 164.501013 188.566841 
L 164.917028 189.479709 
L 165.333042 189.476563 
L 165.749056 188.109491 
L 166.165071 188.253081 
L 166.997099 188.124355 
L 167.413114 188.37275 
L 167.829128 189.391841 
L 168.245142 189.106771 
L 168.661157 187.880039 
L 169.077171 187.542808 
L 169.493185 187.701675 
L 169.9092 187.547578 
L 170.325214 188.065523 
L 170.741228 189.179671 
L 171.157242 189.102588 
L 171.573257 187.791341 
L 172.405285 187.62912 
L 173.237314 187.747372 
L 173.653328 189.030275 
L 174.069343 188.788275 
L 174.485357 187.185597 
L 174.901371 187.261436 
L 175.7334 187.044254 
L 176.149414 187.299286 
L 176.565429 188.661312 
L 176.981443 188.485472 
L 177.397457 187.04142 
L 177.813471 186.566441 
L 178.229486 185.59806 
L 178.6455 187.336273 
L 179.061514 187.62957 
L 179.477529 189.163771 
L 179.893543 188.852845 
L 180.309557 187.719581 
L 180.725572 187.390715 
L 181.5576 187.460332 
L 181.973615 187.752938 
L 182.389629 189.053331 
L 182.805643 188.999303 
L 183.221658 187.573434 
L 183.637672 187.315394 
L 184.053686 187.526665 
L 184.469701 188.322145 
L 184.885715 188.441365 
L 185.301729 188.676555 
L 185.717743 188.439948 
L 186.133758 187.136305 
L 186.549772 186.871076 
L 187.381801 186.870558 
L 187.797815 187.435686 
L 188.213829 188.615062 
L 188.629844 188.367773 
L 189.045858 187.062678 
L 189.877887 186.796551 
L 190.293901 186.930945 
L 190.709915 187.317952 
L 191.12593 188.517342 
L 191.541944 188.22726 
L 191.957958 187.049993 
L 192.789987 186.917292 
L 193.206001 187.116187 
L 193.622015 187.609383 
L 194.03803 188.676901 
L 194.454044 188.678837 
L 194.870058 187.248992 
L 195.286073 187.155282 
L 195.702087 187.368869 
L 196.118101 187.413736 
L 196.534116 187.963724 
L 196.95013 189.08928 
L 197.366144 189.863052 
L 198.198173 187.678066 
L 199.030202 187.279895 
L 199.446216 187.472707 
L 199.86223 188.752083 
L 200.278244 189.396507 
L 200.694259 188.025184 
L 201.110273 187.250167 
L 201.526287 186.911795 
L 201.942302 186.953344 
L 202.358316 187.289124 
L 202.77433 188.184605 
L 203.190345 188.278937 
L 203.606359 187.197626 
L 204.438388 186.971077 
L 205.270416 187.134715 
L 205.686431 188.365733 
L 206.102445 188.217892 
L 206.518459 187.234612 
L 207.766502 186.552891 
L 208.182516 186.760982 
L 208.598531 188.224045 
L 209.014545 188.019376 
L 209.430559 186.787702 
L 210.262588 186.766547 
L 210.678602 187.137861 
L 211.094617 187.29258 
L 211.510631 188.477245 
L 211.926645 188.089097 
L 212.34266 186.767999 
L 212.758674 186.426827 
L 213.174688 186.615422 
L 213.590703 186.660635 
L 214.006717 186.947641 
L 214.422731 188.03628 
L 214.838745 188.015609 
L 215.25476 186.870661 
L 216.086788 186.377708 
L 216.502803 186.424995 
L 216.918817 186.897139 
L 217.334831 187.622864 
L 217.750846 187.770048 
L 218.16686 186.79503 
L 218.582874 186.25351 
L 218.998889 186.450885 
L 219.414903 186.184481 
L 220.246932 188.669158 
L 220.662946 188.745377 
L 221.07896 187.388226 
L 222.327003 185.780398 
L 223.159032 188.123629 
L 223.575046 188.157435 
L 223.99106 186.719294 
L 224.407075 186.744908 
L 224.823089 184.814229 
L 225.239103 186.461013 
L 225.655118 186.773287 
L 226.071132 188.33929 
L 226.487146 188.297706 
L 226.903161 186.850267 
L 227.319175 186.01393 
L 227.735189 186.553617 
L 228.151204 186.632705 
L 228.567218 186.831255 
L 228.983232 188.181632 
L 229.399246 188.191691 
L 229.815261 186.926625 
L 230.231275 186.49717 
L 230.647289 186.514764 
L 231.479318 187.042768 
L 231.895332 188.231235 
L 232.311347 188.248034 
L 232.727361 186.799765 
L 233.975404 186.4186 
L 234.391418 186.845877 
L 234.807433 188.254152 
L 235.223447 188.069291 
L 235.639461 186.632844 
L 236.055476 186.310683 
L 236.887504 186.441483 
L 237.303518 186.249155 
L 237.719533 186.640725 
L 238.135547 187.399391 
L 238.551561 186.260251 
L 238.967576 186.432911 
L 239.799604 186.37871 
L 240.215619 186.66582 
L 240.631633 188.289065 
L 241.047647 188.274547 
L 241.463662 186.590361 
L 241.879676 186.252335 
L 242.29569 186.54221 
L 242.711705 186.622543 
L 243.127719 187.221754 
L 243.543733 188.369294 
L 243.959747 188.588549 
L 244.375762 186.905366 
L 244.791776 186.492953 
L 245.20779 186.352405 
L 245.623805 186.367131 
L 246.039819 186.761569 
L 246.455833 188.262932 
L 246.871848 188.148724 
L 247.287862 186.614039 
L 247.703876 186.310614 
L 248.119891 186.261392 
L 248.535905 186.477467 
L 249.367934 188.361862 
L 249.783948 188.338529 
L 250.199962 187.147228 
L 251.031991 186.626967 
L 251.448005 186.736474 
L 251.864019 187.126281 
L 252.280034 188.465596 
L 252.696048 188.189755 
L 253.112062 186.734711 
L 253.528077 186.443972 
L 253.944091 186.519189 
L 254.360105 186.452268 
L 254.77612 187.066412 
L 255.192134 188.356227 
L 255.608148 188.435074 
L 256.024163 187.049025 
L 256.440177 186.782689 
L 256.856191 186.364469 
L 257.272206 186.248153 
L 257.68822 186.736958 
L 258.104234 188.268739 
L 258.520248 188.154048 
L 258.936263 186.72804 
L 259.352277 186.420951 
L 259.768291 186.339028 
L 260.184306 186.450021 
L 260.60032 186.96285 
L 261.016334 188.239427 
L 261.432349 188.323355 
L 262.264377 186.363847 
L 262.680392 185.781366 
L 263.096406 185.806565 
L 263.51242 186.556348 
L 263.928435 188.114158 
L 264.344449 188.03348 
L 264.760463 186.25949 
L 265.176478 185.936051 
L 265.592492 186.025682 
L 266.42452 186.365782 
L 266.840535 188.134725 
L 267.256549 188.119343 
L 267.672563 186.360943 
L 268.088578 185.958312 
L 269.336621 186.441207 
L 269.752635 187.966248 
L 270.168649 188.217858 
L 270.584664 186.307884 
L 271.000678 185.922605 
L 271.416692 185.779465 
L 271.832707 185.768818 
L 272.248721 186.194125 
L 272.664735 187.965418 
L 273.080749 188.126429 
L 273.496764 186.419637 
L 273.912778 185.615931 
L 274.744807 185.775766 
L 275.160821 186.234326 
L 275.576835 187.646749 
L 275.99285 188.221383 
L 276.408864 186.823443 
L 276.824878 186.963853 
L 277.240893 186.377984 
L 277.656907 185.537948 
L 278.072921 185.653159 
L 278.488936 187.474331 
L 278.90495 187.696802 
L 279.320964 186.034912 
L 279.736979 185.628893 
L 280.569007 185.941858 
L 280.985021 186.411583 
L 281.401036 187.913465 
L 281.81705 187.921726 
L 282.233064 186.150709 
L 283.065093 185.72122 
L 283.481107 185.760108 
L 283.897122 186.084065 
L 284.313136 187.807656 
L 284.72915 187.694831 
L 285.145165 185.928689 
L 285.561179 185.593393 
L 286.393208 185.517209 
L 286.809222 185.890354 
L 287.225236 187.582697 
L 287.641251 187.719062 
L 288.057265 185.907776 
L 288.889293 185.220144 
L 289.305308 185.139604 
L 289.721322 185.539884 
L 290.137336 187.37917 
L 290.553351 187.311454 
L 290.969365 185.746592 
L 291.385379 185.445518 
L 292.217408 185.605284 
L 292.633422 185.734321 
L 293.049437 187.367382 
L 293.465451 187.304368 
L 293.881465 185.813409 
L 294.29748 185.815794 
L 294.713494 185.472963 
L 295.129508 185.503935 
L 295.545522 185.87276 
L 295.961537 187.422551 
L 296.377551 187.317019 
L 296.793565 185.45129 
L 297.20958 185.365807 
L 298.041608 185.619802 
L 298.457623 186.207848 
L 298.873637 187.432851 
L 299.289651 187.482766 
L 299.705666 185.717798 
L 300.537694 185.378873 
L 300.953709 185.991911 
L 301.369723 186.090045 
L 301.785737 187.561093 
L 302.201752 187.137031 
L 302.617766 186.36675 
L 303.03378 185.97722 
L 303.865809 185.929138 
L 304.281823 186.201419 
L 304.697837 187.594174 
L 305.113852 187.361264 
L 305.529866 186.202179 
L 305.94588 185.952332 
L 306.361895 185.870271 
L 307.193923 185.979916 
L 307.609938 187.447992 
L 308.025952 187.198421 
L 308.441966 186.052852 
L 308.857981 185.564012 
L 309.273995 185.555819 
L 309.690009 185.768058 
L 310.106023 186.172867 
L 310.522038 187.450792 
L 310.938052 187.262369 
L 311.354066 186.063533 
L 311.770081 185.683508 
L 313.018124 186.239995 
L 313.434138 187.657223 
L 313.850152 187.32096 
L 314.266167 186.386764 
L 314.682181 186.037158 
L 315.098195 185.893984 
L 315.51421 186.008123 
L 315.930224 186.248291 
L 316.346238 187.362128 
L 316.762253 187.28425 
L 317.178267 185.792358 
L 318.010295 185.581191 
L 318.842324 186.024058 
L 319.258338 187.255733 
L 319.674353 187.160329 
L 320.090367 185.586307 
L 320.922396 185.571478 
L 321.33841 186.065399 
L 321.754424 186.0486 
L 322.170439 187.355111 
L 322.586453 187.123688 
L 323.002467 185.536531 
L 323.418482 185.302481 
L 324.25051 185.501619 
L 324.666524 186.210924 
L 325.082539 187.638799 
L 325.498553 187.307202 
L 325.914567 185.647836 
L 326.330582 185.000059 
L 326.746596 185.625955 
L 327.16261 185.252844 
L 327.578625 185.749288 
L 327.994639 187.097729 
L 328.410653 187.036788 
L 328.826668 185.66823 
L 329.658696 185.173202 
L 330.074711 185.410294 
L 330.490725 185.897648 
L 330.906739 187.066757 
L 331.322754 186.792506 
L 331.738768 185.024877 
L 332.154782 184.697532 
L 333.402825 185.205142 
L 333.818839 186.865476 
L 334.234854 186.768102 
L 334.650868 185.22965 
L 335.066882 184.828194 
L 335.482897 184.841986 
L 335.898911 186.375807 
L 336.73094 187.043598 
L 337.146954 186.683069 
L 337.562968 185.143302 
L 337.978983 184.731304 
L 338.394997 184.50275 
L 338.811011 185.012606 
L 339.227025 185.046827 
L 339.64304 186.661949 
L 340.059054 186.504671 
L 340.475068 185.075275 
L 340.891083 184.701127 
L 342.139126 185.067878 
L 342.55514 186.668482 
L 342.971154 186.541173 
L 343.387169 184.944476 
L 343.803183 184.761722 
L 344.219197 184.76034 
L 344.635212 184.931721 
L 345.051226 185.478459 
L 345.46724 187.035094 
L 345.883255 186.961502 
L 346.299269 185.390211 
L 346.715283 185.072337 
L 347.131297 184.957542 
L 347.547312 185.187202 
L 347.963326 185.646176 
L 348.37934 187.261989 
L 349.211369 188.19736 
L 349.627383 186.899075 
L 350.043398 186.004562 
L 350.459412 185.690387 
L 350.875426 185.874765 
L 351.291441 186.80495 
L 351.707455 187.04066 
L 352.123469 187.428462 
L 352.539484 185.501204 
L 352.955498 184.884987 
L 353.371512 185.135663 
L 353.787527 184.679592 
L 354.203541 186.042827 
L 354.619555 186.286729 
L 355.035569 184.722178 
L 356.283612 184.55135 
L 356.699627 184.855156 
L 357.115641 186.225719 
L 357.531655 186.345423 
L 357.94767 184.705033 
L 358.779698 184.270878 
L 359.195713 184.312392 
L 359.611727 184.601195 
L 360.027741 186.280645 
L 360.443756 186.153786 
L 360.85977 184.50275 
L 361.275784 184.229743 
L 361.691798 184.247165 
L 362.107813 183.975748 
L 362.939841 185.666882 
L 363.355856 186.195266 
L 363.77187 184.557192 
L 364.603899 183.903539 
L 365.435927 184.65982 
L 365.851942 186.248982 
L 366.267956 186.06813 
L 366.68397 184.648897 
L 367.515999 184.201261 
L 367.932013 184.303889 
L 368.348028 184.757194 
L 368.764042 186.107536 
L 369.180056 186.219497 
L 369.59607 184.540289 
L 370.012085 184.397529 
L 370.428099 184.414087 
L 370.844113 185.021594 
L 371.260128 184.871817 
L 371.676142 186.103803 
L 372.092156 185.702451 
L 372.508171 184.10997 
L 372.924185 183.55414 
L 373.340199 183.397727 
L 373.756214 183.470766 
L 374.172228 183.767036 
L 374.588242 185.432555 
L 375.004257 185.399095 
L 375.420271 183.608928 
L 375.836285 182.891604 
L 376.252299 183.159391 
L 376.252299 183.159391 
" style="fill:none;stroke:#1f77b4;stroke-linecap:square;stroke-width:0.5;"/>
   </g>
   <g id="patch_3">
    <path d="M 44.734652 203.04 
L 44.734652 7.2 
" style="fill:none;stroke:#000000;stroke-linecap:square;stroke-linejoin:miter;stroke-width:0.8;"/>
   </g>
   <g id="patch_4">
    <path d="M 379.534652 203.04 
L 379.534652 7.2 
" style="fill:none;stroke:#000000;stroke-linecap:square;stroke-linejoin:miter;stroke-width:0.8;"/>
   </g>
   <g id="patch_5">
    <path d="M 44.734652 203.04 
L 379.534652 203.04 
" style="fill:none;stroke:#000000;stroke-linecap:square;stroke-linejoin:miter;stroke-width:0.8;"/>
   </g>
   <g id="patch_6">
    <path d="M 44.734652 7.2 
L 379.534652 7.2 
" style="fill:none;stroke:#000000;stroke-linecap:square;stroke-linejoin:miter;stroke-width:0.8;"/>
   </g>
  </g>
 </g>
 <defs>
  <clipPath id="pfa4dc5ff1b">
   <rect height="195.84" width="334.8" x="44.734652" y="7.2"/>
  </clipPath>
 </defs>
</svg>
