<?xml version="1.0" encoding="utf-8" standalone="no"?>
<!DOCTYPE svg PUBLIC "-//W3C//DTD SVG 1.1//EN"
  "http://www.w3.org/Graphics/SVG/1.1/DTD/svg11.dtd">
<!-- Created with matplotlib (https://matplotlib.org/) -->
<svg height="357.238125pt" version="1.1" viewBox="0 0 381.628125 357.238125" width="381.628125pt" xmlns="http://www.w3.org/2000/svg" xmlns:xlink="http://www.w3.org/1999/xlink">
 <defs>
  <style type="text/css">
*{stroke-linecap:butt;stroke-linejoin:round;}
  </style>
 </defs>
 <g id="figure_1">
  <g id="patch_1">
   <path d="M 0 357.238125 
L 381.628125 357.238125 
L 381.628125 0 
L 0 0 
z
" style="fill:#ffffff;"/>
  </g>
  <g id="axes_1">
   <g id="patch_2">
    <path d="M 86.628125 112.412903 
L 365.628125 112.412903 
L 365.628125 7.2 
L 86.628125 7.2 
z
" style="fill:#ffffff;"/>
   </g>
   <g id="patch_3">
    <path clip-path="url(#p10c5ce10a6)" d="M 86.628125 112.412903 
L 92.322003 112.412903 
L 92.322003 12.210138 
L 86.628125 12.210138 
z
" style="fill:#1f77b4;"/>
   </g>
   <g id="patch_4">
    <path clip-path="url(#p10c5ce10a6)" d="M 92.322003 112.412903 
L 98.01588 112.412903 
L 98.01588 112.412903 
L 92.322003 112.412903 
z
" style="fill:#1f77b4;"/>
   </g>
   <g id="patch_5">
    <path clip-path="url(#p10c5ce10a6)" d="M 98.01588 112.412903 
L 103.709758 112.412903 
L 103.709758 112.412903 
L 98.01588 112.412903 
z
" style="fill:#1f77b4;"/>
   </g>
   <g id="patch_6">
    <path clip-path="url(#p10c5ce10a6)" d="M 103.709758 112.412903 
L 109.403635 112.412903 
L 109.403635 82.268775 
L 103.709758 82.268775 
z
" style="fill:#1f77b4;"/>
   </g>
   <g id="patch_7">
    <path clip-path="url(#p10c5ce10a6)" d="M 109.403635 112.412903 
L 115.097513 112.412903 
L 115.097513 112.412903 
L 109.403635 112.412903 
z
" style="fill:#1f77b4;"/>
   </g>
   <g id="patch_8">
    <path clip-path="url(#p10c5ce10a6)" d="M 115.097513 112.412903 
L 120.79139 112.412903 
L 120.79139 95.898628 
L 115.097513 95.898628 
z
" style="fill:#1f77b4;"/>
   </g>
   <g id="patch_9">
    <path clip-path="url(#p10c5ce10a6)" d="M 120.79139 112.412903 
L 126.485268 112.412903 
L 126.485268 112.412903 
L 120.79139 112.412903 
z
" style="fill:#1f77b4;"/>
   </g>
   <g id="patch_10">
    <path clip-path="url(#p10c5ce10a6)" d="M 126.485268 112.412903 
L 132.179145 112.412903 
L 132.179145 101.496126 
L 126.485268 101.496126 
z
" style="fill:#1f77b4;"/>
   </g>
   <g id="patch_11">
    <path clip-path="url(#p10c5ce10a6)" d="M 132.179145 112.412903 
L 137.873023 112.412903 
L 137.873023 104.506392 
L 132.179145 104.506392 
z
" style="fill:#1f77b4;"/>
   </g>
   <g id="patch_12">
    <path clip-path="url(#p10c5ce10a6)" d="M 137.873023 112.412903 
L 143.566901 112.412903 
L 143.566901 106.270935 
L 137.873023 106.270935 
z
" style="fill:#1f77b4;"/>
   </g>
   <g id="patch_13">
    <path clip-path="url(#p10c5ce10a6)" d="M 143.566901 112.412903 
L 149.260778 112.412903 
L 149.260778 107.592833 
L 143.566901 107.592833 
z
" style="fill:#1f77b4;"/>
   </g>
   <g id="patch_14">
    <path clip-path="url(#p10c5ce10a6)" d="M 149.260778 112.412903 
L 154.954656 112.412903 
L 154.954656 105.120851 
L 149.260778 105.120851 
z
" style="fill:#1f77b4;"/>
   </g>
   <g id="patch_15">
    <path clip-path="url(#p10c5ce10a6)" d="M 154.954656 112.412903 
L 160.648533 112.412903 
L 160.648533 107.105234 
L 154.954656 107.105234 
z
" style="fill:#1f77b4;"/>
   </g>
   <g id="patch_16">
    <path clip-path="url(#p10c5ce10a6)" d="M 160.648533 112.412903 
L 166.342411 112.412903 
L 166.342411 108.372425 
L 160.648533 108.372425 
z
" style="fill:#1f77b4;"/>
   </g>
   <g id="patch_17">
    <path clip-path="url(#p10c5ce10a6)" d="M 166.342411 112.412903 
L 172.036288 112.412903 
L 172.036288 107.861073 
L 166.342411 107.861073 
z
" style="fill:#1f77b4;"/>
   </g>
   <g id="patch_18">
    <path clip-path="url(#p10c5ce10a6)" d="M 172.036288 112.412903 
L 177.730166 112.412903 
L 177.730166 108.100738 
L 172.036288 108.100738 
z
" style="fill:#1f77b4;"/>
   </g>
   <g id="patch_19">
    <path clip-path="url(#p10c5ce10a6)" d="M 177.730166 112.412903 
L 183.424043 112.412903 
L 183.424043 109.322842 
L 177.730166 109.322842 
z
" style="fill:#1f77b4;"/>
   </g>
   <g id="patch_20">
    <path clip-path="url(#p10c5ce10a6)" d="M 183.424043 112.412903 
L 189.117921 112.412903 
L 189.117921 109.606967 
L 183.424043 109.606967 
z
" style="fill:#1f77b4;"/>
   </g>
   <g id="patch_21">
    <path clip-path="url(#p10c5ce10a6)" d="M 189.117921 112.412903 
L 194.811798 112.412903 
L 194.811798 110.008947 
L 189.117921 110.008947 
z
" style="fill:#1f77b4;"/>
   </g>
   <g id="patch_22">
    <path clip-path="url(#p10c5ce10a6)" d="M 194.811798 112.412903 
L 200.505676 112.412903 
L 200.505676 110.419049 
L 194.811798 110.419049 
z
" style="fill:#1f77b4;"/>
   </g>
   <g id="patch_23">
    <path clip-path="url(#p10c5ce10a6)" d="M 200.505676 112.412903 
L 206.199554 112.412903 
L 206.199554 110.619918 
L 200.505676 110.619918 
z
" style="fill:#1f77b4;"/>
   </g>
   <g id="patch_24">
    <path clip-path="url(#p10c5ce10a6)" d="M 206.199554 112.412903 
L 211.893431 112.412903 
L 211.893431 110.926206 
L 206.199554 110.926206 
z
" style="fill:#1f77b4;"/>
   </g>
   <g id="patch_25">
    <path clip-path="url(#p10c5ce10a6)" d="M 211.893431 112.412903 
L 217.587309 112.412903 
L 217.587309 111.221472 
L 211.893431 111.221472 
z
" style="fill:#1f77b4;"/>
   </g>
   <g id="patch_26">
    <path clip-path="url(#p10c5ce10a6)" d="M 217.587309 112.412903 
L 223.281186 112.412903 
L 223.281186 111.429075 
L 217.587309 111.429075 
z
" style="fill:#1f77b4;"/>
   </g>
   <g id="patch_27">
    <path clip-path="url(#p10c5ce10a6)" d="M 223.281186 112.412903 
L 228.975064 112.412903 
L 228.975064 111.685185 
L 223.281186 111.685185 
z
" style="fill:#1f77b4;"/>
   </g>
   <g id="patch_28">
    <path clip-path="url(#p10c5ce10a6)" d="M 228.975064 112.412903 
L 234.668941 112.412903 
L 234.668941 111.802078 
L 228.975064 111.802078 
z
" style="fill:#1f77b4;"/>
   </g>
   <g id="patch_29">
    <path clip-path="url(#p10c5ce10a6)" d="M 234.668941 112.412903 
L 240.362819 112.412903 
L 240.362819 111.95237 
L 234.668941 111.95237 
z
" style="fill:#1f77b4;"/>
   </g>
   <g id="patch_30">
    <path clip-path="url(#p10c5ce10a6)" d="M 240.362819 112.412903 
L 246.056696 112.412903 
L 246.056696 112.042425 
L 240.362819 112.042425 
z
" style="fill:#1f77b4;"/>
   </g>
   <g id="patch_31">
    <path clip-path="url(#p10c5ce10a6)" d="M 246.056696 112.412903 
L 251.750574 112.412903 
L 251.750574 112.147736 
L 246.056696 112.147736 
z
" style="fill:#1f77b4;"/>
   </g>
   <g id="patch_32">
    <path clip-path="url(#p10c5ce10a6)" d="M 251.750574 112.412903 
L 257.444452 112.412903 
L 257.444452 112.20657 
L 251.750574 112.20657 
z
" style="fill:#1f77b4;"/>
   </g>
   <g id="patch_33">
    <path clip-path="url(#p10c5ce10a6)" d="M 257.444452 112.412903 
L 263.138329 112.412903 
L 263.138329 112.256854 
L 257.444452 112.256854 
z
" style="fill:#1f77b4;"/>
   </g>
   <g id="patch_34">
    <path clip-path="url(#p10c5ce10a6)" d="M 263.138329 112.412903 
L 268.832207 112.412903 
L 268.832207 112.297185 
L 263.138329 112.297185 
z
" style="fill:#1f77b4;"/>
   </g>
   <g id="patch_35">
    <path clip-path="url(#p10c5ce10a6)" d="M 268.832207 112.412903 
L 274.526084 112.412903 
L 274.526084 112.327057 
L 268.832207 112.327057 
z
" style="fill:#1f77b4;"/>
   </g>
   <g id="patch_36">
    <path clip-path="url(#p10c5ce10a6)" d="M 274.526084 112.412903 
L 280.219962 112.412903 
L 280.219962 112.347817 
L 274.526084 112.347817 
z
" style="fill:#1f77b4;"/>
   </g>
   <g id="patch_37">
    <path clip-path="url(#p10c5ce10a6)" d="M 280.219962 112.412903 
L 285.913839 112.412903 
L 285.913839 112.363781 
L 280.219962 112.363781 
z
" style="fill:#1f77b4;"/>
   </g>
   <g id="patch_38">
    <path clip-path="url(#p10c5ce10a6)" d="M 285.913839 112.412903 
L 291.607717 112.412903 
L 291.607717 112.378436 
L 285.913839 112.378436 
z
" style="fill:#1f77b4;"/>
   </g>
   <g id="patch_39">
    <path clip-path="url(#p10c5ce10a6)" d="M 291.607717 112.412903 
L 297.301594 112.412903 
L 297.301594 112.386345 
L 291.607717 112.386345 
z
" style="fill:#1f77b4;"/>
   </g>
   <g id="patch_40">
    <path clip-path="url(#p10c5ce10a6)" d="M 297.301594 112.412903 
L 302.995472 112.412903 
L 302.995472 112.393719 
L 297.301594 112.393719 
z
" style="fill:#1f77b4;"/>
   </g>
   <g id="patch_41">
    <path clip-path="url(#p10c5ce10a6)" d="M 302.995472 112.412903 
L 308.689349 112.412903 
L 308.689349 112.398889 
L 302.995472 112.398889 
z
" style="fill:#1f77b4;"/>
   </g>
   <g id="patch_42">
    <path clip-path="url(#p10c5ce10a6)" d="M 308.689349 112.412903 
L 314.383227 112.412903 
L 314.383227 112.401401 
L 308.689349 112.401401 
z
" style="fill:#1f77b4;"/>
   </g>
   <g id="patch_43">
    <path clip-path="url(#p10c5ce10a6)" d="M 314.383227 112.412903 
L 320.077105 112.412903 
L 320.077105 112.40442 
L 314.383227 112.40442 
z
" style="fill:#1f77b4;"/>
   </g>
   <g id="patch_44">
    <path clip-path="url(#p10c5ce10a6)" d="M 320.077105 112.412903 
L 325.770982 112.412903 
L 325.770982 112.406411 
L 320.077105 112.406411 
z
" style="fill:#1f77b4;"/>
   </g>
   <g id="patch_45">
    <path clip-path="url(#p10c5ce10a6)" d="M 325.770982 112.412903 
L 331.46486 112.412903 
L 331.46486 112.408268 
L 325.770982 112.408268 
z
" style="fill:#1f77b4;"/>
   </g>
   <g id="patch_46">
    <path clip-path="url(#p10c5ce10a6)" d="M 331.46486 112.412903 
L 337.158737 112.412903 
L 337.158737 112.408789 
L 331.46486 112.408789 
z
" style="fill:#1f77b4;"/>
   </g>
   <g id="patch_47">
    <path clip-path="url(#p10c5ce10a6)" d="M 337.158737 112.412903 
L 342.852615 112.412903 
L 342.852615 112.409296 
L 337.158737 112.409296 
z
" style="fill:#1f77b4;"/>
   </g>
   <g id="patch_48">
    <path clip-path="url(#p10c5ce10a6)" d="M 342.852615 112.412903 
L 348.546492 112.412903 
L 348.546492 112.409857 
L 342.852615 112.409857 
z
" style="fill:#1f77b4;"/>
   </g>
   <g id="patch_49">
    <path clip-path="url(#p10c5ce10a6)" d="M 348.546492 112.412903 
L 354.24037 112.412903 
L 354.24037 112.410726 
L 348.546492 112.410726 
z
" style="fill:#1f77b4;"/>
   </g>
   <g id="patch_50">
    <path clip-path="url(#p10c5ce10a6)" d="M 354.24037 112.412903 
L 359.934247 112.412903 
L 359.934247 112.410913 
L 354.24037 112.410913 
z
" style="fill:#1f77b4;"/>
   </g>
   <g id="patch_51">
    <path clip-path="url(#p10c5ce10a6)" d="M 359.934247 112.412903 
L 365.628125 112.412903 
L 365.628125 112.411287 
L 359.934247 112.411287 
z
" style="fill:#1f77b4;"/>
   </g>
   <g id="matplotlib.axis_1">
    <g id="xtick_1">
     <g id="line2d_1">
      <defs>
       <path d="M 0 0 
L 0 3.5 
" id="m57a50e6eb0" style="stroke:#000000;stroke-width:0.8;"/>
      </defs>
      <g>
       <use style="stroke:#000000;stroke-width:0.8;" x="86.628125" xlink:href="#m57a50e6eb0" y="112.412903"/>
      </g>
     </g>
    </g>
    <g id="xtick_2">
     <g id="line2d_2">
      <g>
       <use style="stroke:#000000;stroke-width:0.8;" x="156.378125" xlink:href="#m57a50e6eb0" y="112.412903"/>
      </g>
     </g>
    </g>
    <g id="xtick_3">
     <g id="line2d_3">
      <g>
       <use style="stroke:#000000;stroke-width:0.8;" x="226.128125" xlink:href="#m57a50e6eb0" y="112.412903"/>
      </g>
     </g>
    </g>
    <g id="xtick_4">
     <g id="line2d_4">
      <g>
       <use style="stroke:#000000;stroke-width:0.8;" x="295.878125" xlink:href="#m57a50e6eb0" y="112.412903"/>
      </g>
     </g>
    </g>
    <g id="xtick_5">
     <g id="line2d_5">
      <g>
       <use style="stroke:#000000;stroke-width:0.8;" x="365.628125" xlink:href="#m57a50e6eb0" y="112.412903"/>
      </g>
     </g>
    </g>
    <g id="xtick_6">
     <g id="line2d_6">
      <defs>
       <path d="M 0 0 
L 0 2 
" id="m5c64c6860f" style="stroke:#000000;stroke-width:0.6;"/>
      </defs>
      <g>
       <use style="stroke:#000000;stroke-width:0.6;" x="107.624967" xlink:href="#m5c64c6860f" y="112.412903"/>
      </g>
     </g>
    </g>
    <g id="xtick_7">
     <g id="line2d_7">
      <g>
       <use style="stroke:#000000;stroke-width:0.6;" x="119.907333" xlink:href="#m5c64c6860f" y="112.412903"/>
      </g>
     </g>
    </g>
    <g id="xtick_8">
     <g id="line2d_8">
      <g>
       <use style="stroke:#000000;stroke-width:0.6;" x="128.621809" xlink:href="#m5c64c6860f" y="112.412903"/>
      </g>
     </g>
    </g>
    <g id="xtick_9">
     <g id="line2d_9">
      <g>
       <use style="stroke:#000000;stroke-width:0.6;" x="135.381283" xlink:href="#m5c64c6860f" y="112.412903"/>
      </g>
     </g>
    </g>
    <g id="xtick_10">
     <g id="line2d_10">
      <g>
       <use style="stroke:#000000;stroke-width:0.6;" x="140.904175" xlink:href="#m5c64c6860f" y="112.412903"/>
      </g>
     </g>
    </g>
    <g id="xtick_11">
     <g id="line2d_11">
      <g>
       <use style="stroke:#000000;stroke-width:0.6;" x="145.573713" xlink:href="#m5c64c6860f" y="112.412903"/>
      </g>
     </g>
    </g>
    <g id="xtick_12">
     <g id="line2d_12">
      <g>
       <use style="stroke:#000000;stroke-width:0.6;" x="149.618652" xlink:href="#m5c64c6860f" y="112.412903"/>
      </g>
     </g>
    </g>
    <g id="xtick_13">
     <g id="line2d_13">
      <g>
       <use style="stroke:#000000;stroke-width:0.6;" x="153.18654" xlink:href="#m5c64c6860f" y="112.412903"/>
      </g>
     </g>
    </g>
    <g id="xtick_14">
     <g id="line2d_14">
      <g>
       <use style="stroke:#000000;stroke-width:0.6;" x="177.374967" xlink:href="#m5c64c6860f" y="112.412903"/>
      </g>
     </g>
    </g>
    <g id="xtick_15">
     <g id="line2d_15">
      <g>
       <use style="stroke:#000000;stroke-width:0.6;" x="189.657333" xlink:href="#m5c64c6860f" y="112.412903"/>
      </g>
     </g>
    </g>
    <g id="xtick_16">
     <g id="line2d_16">
      <g>
       <use style="stroke:#000000;stroke-width:0.6;" x="198.371809" xlink:href="#m5c64c6860f" y="112.412903"/>
      </g>
     </g>
    </g>
    <g id="xtick_17">
     <g id="line2d_17">
      <g>
       <use style="stroke:#000000;stroke-width:0.6;" x="205.131283" xlink:href="#m5c64c6860f" y="112.412903"/>
      </g>
     </g>
    </g>
    <g id="xtick_18">
     <g id="line2d_18">
      <g>
       <use style="stroke:#000000;stroke-width:0.6;" x="210.654175" xlink:href="#m5c64c6860f" y="112.412903"/>
      </g>
     </g>
    </g>
    <g id="xtick_19">
     <g id="line2d_19">
      <g>
       <use style="stroke:#000000;stroke-width:0.6;" x="215.323713" xlink:href="#m5c64c6860f" y="112.412903"/>
      </g>
     </g>
    </g>
    <g id="xtick_20">
     <g id="line2d_20">
      <g>
       <use style="stroke:#000000;stroke-width:0.6;" x="219.368652" xlink:href="#m5c64c6860f" y="112.412903"/>
      </g>
     </g>
    </g>
    <g id="xtick_21">
     <g id="line2d_21">
      <g>
       <use style="stroke:#000000;stroke-width:0.6;" x="222.93654" xlink:href="#m5c64c6860f" y="112.412903"/>
      </g>
     </g>
    </g>
    <g id="xtick_22">
     <g id="line2d_22">
      <g>
       <use style="stroke:#000000;stroke-width:0.6;" x="247.124967" xlink:href="#m5c64c6860f" y="112.412903"/>
      </g>
     </g>
    </g>
    <g id="xtick_23">
     <g id="line2d_23">
      <g>
       <use style="stroke:#000000;stroke-width:0.6;" x="259.407333" xlink:href="#m5c64c6860f" y="112.412903"/>
      </g>
     </g>
    </g>
    <g id="xtick_24">
     <g id="line2d_24">
      <g>
       <use style="stroke:#000000;stroke-width:0.6;" x="268.121809" xlink:href="#m5c64c6860f" y="112.412903"/>
      </g>
     </g>
    </g>
    <g id="xtick_25">
     <g id="line2d_25">
      <g>
       <use style="stroke:#000000;stroke-width:0.6;" x="274.881283" xlink:href="#m5c64c6860f" y="112.412903"/>
      </g>
     </g>
    </g>
    <g id="xtick_26">
     <g id="line2d_26">
      <g>
       <use style="stroke:#000000;stroke-width:0.6;" x="280.404175" xlink:href="#m5c64c6860f" y="112.412903"/>
      </g>
     </g>
    </g>
    <g id="xtick_27">
     <g id="line2d_27">
      <g>
       <use style="stroke:#000000;stroke-width:0.6;" x="285.073713" xlink:href="#m5c64c6860f" y="112.412903"/>
      </g>
     </g>
    </g>
    <g id="xtick_28">
     <g id="line2d_28">
      <g>
       <use style="stroke:#000000;stroke-width:0.6;" x="289.118652" xlink:href="#m5c64c6860f" y="112.412903"/>
      </g>
     </g>
    </g>
    <g id="xtick_29">
     <g id="line2d_29">
      <g>
       <use style="stroke:#000000;stroke-width:0.6;" x="292.68654" xlink:href="#m5c64c6860f" y="112.412903"/>
      </g>
     </g>
    </g>
    <g id="xtick_30">
     <g id="line2d_30">
      <g>
       <use style="stroke:#000000;stroke-width:0.6;" x="316.874967" xlink:href="#m5c64c6860f" y="112.412903"/>
      </g>
     </g>
    </g>
    <g id="xtick_31">
     <g id="line2d_31">
      <g>
       <use style="stroke:#000000;stroke-width:0.6;" x="329.157333" xlink:href="#m5c64c6860f" y="112.412903"/>
      </g>
     </g>
    </g>
    <g id="xtick_32">
     <g id="line2d_32">
      <g>
       <use style="stroke:#000000;stroke-width:0.6;" x="337.871809" xlink:href="#m5c64c6860f" y="112.412903"/>
      </g>
     </g>
    </g>
    <g id="xtick_33">
     <g id="line2d_33">
      <g>
       <use style="stroke:#000000;stroke-width:0.6;" x="344.631283" xlink:href="#m5c64c6860f" y="112.412903"/>
      </g>
     </g>
    </g>
    <g id="xtick_34">
     <g id="line2d_34">
      <g>
       <use style="stroke:#000000;stroke-width:0.6;" x="350.154175" xlink:href="#m5c64c6860f" y="112.412903"/>
      </g>
     </g>
    </g>
    <g id="xtick_35">
     <g id="line2d_35">
      <g>
       <use style="stroke:#000000;stroke-width:0.6;" x="354.823713" xlink:href="#m5c64c6860f" y="112.412903"/>
      </g>
     </g>
    </g>
    <g id="xtick_36">
     <g id="line2d_36">
      <g>
       <use style="stroke:#000000;stroke-width:0.6;" x="358.868652" xlink:href="#m5c64c6860f" y="112.412903"/>
      </g>
     </g>
    </g>
    <g id="xtick_37">
     <g id="line2d_37">
      <g>
       <use style="stroke:#000000;stroke-width:0.6;" x="362.43654" xlink:href="#m5c64c6860f" y="112.412903"/>
      </g>
     </g>
    </g>
   </g>
   <g id="matplotlib.axis_2">
    <g id="ytick_1">
     <g id="line2d_38">
      <defs>
       <path d="M 0 0 
L -3.5 0 
" id="m3d658d4fc0" style="stroke:#000000;stroke-width:0.8;"/>
      </defs>
      <g>
       <use style="stroke:#000000;stroke-width:0.8;" x="86.628125" xlink:href="#m3d658d4fc0" y="112.412903"/>
      </g>
     </g>
     <g id="text_1">
      <!-- 0 -->
      <defs>
       <path d="M 31.78125 66.40625 
Q 24.171875 66.40625 20.328125 58.90625 
Q 16.5 51.421875 16.5 36.375 
Q 16.5 21.390625 20.328125 13.890625 
Q 24.171875 6.390625 31.78125 6.390625 
Q 39.453125 6.390625 43.28125 13.890625 
Q 47.125 21.390625 47.125 36.375 
Q 47.125 51.421875 43.28125 58.90625 
Q 39.453125 66.40625 31.78125 66.40625 
z
M 31.78125 74.21875 
Q 44.046875 74.21875 50.515625 64.515625 
Q 56.984375 54.828125 56.984375 36.375 
Q 56.984375 17.96875 50.515625 8.265625 
Q 44.046875 -1.421875 31.78125 -1.421875 
Q 19.53125 -1.421875 13.0625 8.265625 
Q 6.59375 17.96875 6.59375 36.375 
Q 6.59375 54.828125 13.0625 64.515625 
Q 19.53125 74.21875 31.78125 74.21875 
z
" id="DejaVuSans-48"/>
      </defs>
      <g transform="translate(73.265625 116.212122)scale(0.1 -0.1)">
       <use xlink:href="#DejaVuSans-48"/>
      </g>
     </g>
    </g>
    <g id="ytick_2">
     <g id="line2d_39">
      <g>
       <use style="stroke:#000000;stroke-width:0.8;" x="86.628125" xlink:href="#m3d658d4fc0" y="85.694407"/>
      </g>
     </g>
     <g id="text_2">
      <!-- 2000000 -->
      <defs>
       <path d="M 19.1875 8.296875 
L 53.609375 8.296875 
L 53.609375 0 
L 7.328125 0 
L 7.328125 8.296875 
Q 12.9375 14.109375 22.625 23.890625 
Q 32.328125 33.6875 34.8125 36.53125 
Q 39.546875 41.84375 41.421875 45.53125 
Q 43.3125 49.21875 43.3125 52.78125 
Q 43.3125 58.59375 39.234375 62.25 
Q 35.15625 65.921875 28.609375 65.921875 
Q 23.96875 65.921875 18.8125 64.3125 
Q 13.671875 62.703125 7.8125 59.421875 
L 7.8125 69.390625 
Q 13.765625 71.78125 18.9375 73 
Q 24.125 74.21875 28.421875 74.21875 
Q 39.75 74.21875 46.484375 68.546875 
Q 53.21875 62.890625 53.21875 53.421875 
Q 53.21875 48.921875 51.53125 44.890625 
Q 49.859375 40.875 45.40625 35.40625 
Q 44.1875 33.984375 37.640625 27.21875 
Q 31.109375 20.453125 19.1875 8.296875 
z
" id="DejaVuSans-50"/>
      </defs>
      <g transform="translate(35.090625 89.493625)scale(0.1 -0.1)">
       <use xlink:href="#DejaVuSans-50"/>
       <use x="63.623047" xlink:href="#DejaVuSans-48"/>
       <use x="127.246094" xlink:href="#DejaVuSans-48"/>
       <use x="190.869141" xlink:href="#DejaVuSans-48"/>
       <use x="254.492188" xlink:href="#DejaVuSans-48"/>
       <use x="318.115234" xlink:href="#DejaVuSans-48"/>
       <use x="381.738281" xlink:href="#DejaVuSans-48"/>
      </g>
     </g>
    </g>
    <g id="ytick_3">
     <g id="line2d_40">
      <g>
       <use style="stroke:#000000;stroke-width:0.8;" x="86.628125" xlink:href="#m3d658d4fc0" y="58.97591"/>
      </g>
     </g>
     <g id="text_3">
      <!-- 4000000 -->
      <defs>
       <path d="M 37.796875 64.3125 
L 12.890625 25.390625 
L 37.796875 25.390625 
z
M 35.203125 72.90625 
L 47.609375 72.90625 
L 47.609375 25.390625 
L 58.015625 25.390625 
L 58.015625 17.1875 
L 47.609375 17.1875 
L 47.609375 0 
L 37.796875 0 
L 37.796875 17.1875 
L 4.890625 17.1875 
L 4.890625 26.703125 
z
" id="DejaVuSans-52"/>
      </defs>
      <g transform="translate(35.090625 62.775129)scale(0.1 -0.1)">
       <use xlink:href="#DejaVuSans-52"/>
       <use x="63.623047" xlink:href="#DejaVuSans-48"/>
       <use x="127.246094" xlink:href="#DejaVuSans-48"/>
       <use x="190.869141" xlink:href="#DejaVuSans-48"/>
       <use x="254.492188" xlink:href="#DejaVuSans-48"/>
       <use x="318.115234" xlink:href="#DejaVuSans-48"/>
       <use x="381.738281" xlink:href="#DejaVuSans-48"/>
      </g>
     </g>
    </g>
    <g id="ytick_4">
     <g id="line2d_41">
      <g>
       <use style="stroke:#000000;stroke-width:0.8;" x="86.628125" xlink:href="#m3d658d4fc0" y="32.257414"/>
      </g>
     </g>
     <g id="text_4">
      <!-- 6000000 -->
      <defs>
       <path d="M 33.015625 40.375 
Q 26.375 40.375 22.484375 35.828125 
Q 18.609375 31.296875 18.609375 23.390625 
Q 18.609375 15.53125 22.484375 10.953125 
Q 26.375 6.390625 33.015625 6.390625 
Q 39.65625 6.390625 43.53125 10.953125 
Q 47.40625 15.53125 47.40625 23.390625 
Q 47.40625 31.296875 43.53125 35.828125 
Q 39.65625 40.375 33.015625 40.375 
z
M 52.59375 71.296875 
L 52.59375 62.3125 
Q 48.875 64.0625 45.09375 64.984375 
Q 41.3125 65.921875 37.59375 65.921875 
Q 27.828125 65.921875 22.671875 59.328125 
Q 17.53125 52.734375 16.796875 39.40625 
Q 19.671875 43.65625 24.015625 45.921875 
Q 28.375 48.1875 33.59375 48.1875 
Q 44.578125 48.1875 50.953125 41.515625 
Q 57.328125 34.859375 57.328125 23.390625 
Q 57.328125 12.15625 50.6875 5.359375 
Q 44.046875 -1.421875 33.015625 -1.421875 
Q 20.359375 -1.421875 13.671875 8.265625 
Q 6.984375 17.96875 6.984375 36.375 
Q 6.984375 53.65625 15.1875 63.9375 
Q 23.390625 74.21875 37.203125 74.21875 
Q 40.921875 74.21875 44.703125 73.484375 
Q 48.484375 72.75 52.59375 71.296875 
z
" id="DejaVuSans-54"/>
      </defs>
      <g transform="translate(35.090625 36.056632)scale(0.1 -0.1)">
       <use xlink:href="#DejaVuSans-54"/>
       <use x="63.623047" xlink:href="#DejaVuSans-48"/>
       <use x="127.246094" xlink:href="#DejaVuSans-48"/>
       <use x="190.869141" xlink:href="#DejaVuSans-48"/>
       <use x="254.492188" xlink:href="#DejaVuSans-48"/>
       <use x="318.115234" xlink:href="#DejaVuSans-48"/>
       <use x="381.738281" xlink:href="#DejaVuSans-48"/>
      </g>
     </g>
    </g>
   </g>
   <g id="patch_52">
    <path d="M 86.628125 112.412903 
L 86.628125 7.2 
" style="fill:none;stroke:#000000;stroke-linecap:square;stroke-linejoin:miter;stroke-width:0.8;"/>
   </g>
   <g id="patch_53">
    <path d="M 365.628125 112.412903 
L 365.628125 7.2 
" style="fill:none;stroke:#000000;stroke-linecap:square;stroke-linejoin:miter;stroke-width:0.8;"/>
   </g>
   <g id="patch_54">
    <path d="M 86.628125 112.412903 
L 365.628125 112.412903 
" style="fill:none;stroke:#000000;stroke-linecap:square;stroke-linejoin:miter;stroke-width:0.8;"/>
   </g>
   <g id="patch_55">
    <path d="M 86.628125 7.2 
L 365.628125 7.2 
" style="fill:none;stroke:#000000;stroke-linecap:square;stroke-linejoin:miter;stroke-width:0.8;"/>
   </g>
  </g>
  <g id="axes_2">
   <g id="patch_56">
    <path d="M 86.628125 222.886452 
L 365.628125 222.886452 
L 365.628125 117.673548 
L 86.628125 117.673548 
z
" style="fill:#ffffff;"/>
   </g>
   <g id="patch_57">
    <path clip-path="url(#p2f65cd2dd1)" d="M 86.628125 222.886452 
L 92.322003 222.886452 
L 92.322003 122.683687 
L 86.628125 122.683687 
z
" style="fill:#d62728;"/>
   </g>
   <g id="patch_58">
    <path clip-path="url(#p2f65cd2dd1)" d="M 92.322003 222.886452 
L 98.01588 222.886452 
L 98.01588 222.886452 
L 92.322003 222.886452 
z
" style="fill:#d62728;"/>
   </g>
   <g id="patch_59">
    <path clip-path="url(#p2f65cd2dd1)" d="M 98.01588 222.886452 
L 103.709758 222.886452 
L 103.709758 222.886452 
L 98.01588 222.886452 
z
" style="fill:#d62728;"/>
   </g>
   <g id="patch_60">
    <path clip-path="url(#p2f65cd2dd1)" d="M 103.709758 222.886452 
L 109.403635 222.886452 
L 109.403635 190.127855 
L 103.709758 190.127855 
z
" style="fill:#d62728;"/>
   </g>
   <g id="patch_61">
    <path clip-path="url(#p2f65cd2dd1)" d="M 109.403635 222.886452 
L 115.097513 222.886452 
L 115.097513 222.886452 
L 109.403635 222.886452 
z
" style="fill:#d62728;"/>
   </g>
   <g id="patch_62">
    <path clip-path="url(#p2f65cd2dd1)" d="M 115.097513 222.886452 
L 120.79139 222.886452 
L 120.79139 211.324594 
L 115.097513 211.324594 
z
" style="fill:#d62728;"/>
   </g>
   <g id="patch_63">
    <path clip-path="url(#p2f65cd2dd1)" d="M 120.79139 222.886452 
L 126.485268 222.886452 
L 126.485268 222.886452 
L 120.79139 222.886452 
z
" style="fill:#d62728;"/>
   </g>
   <g id="patch_64">
    <path clip-path="url(#p2f65cd2dd1)" d="M 126.485268 222.886452 
L 132.179145 222.886452 
L 132.179145 211.324594 
L 126.485268 211.324594 
z
" style="fill:#d62728;"/>
   </g>
   <g id="patch_65">
    <path clip-path="url(#p2f65cd2dd1)" d="M 132.179145 222.886452 
L 137.873023 222.886452 
L 137.873023 217.105523 
L 132.179145 217.105523 
z
" style="fill:#d62728;"/>
   </g>
   <g id="patch_66">
    <path clip-path="url(#p2f65cd2dd1)" d="M 137.873023 222.886452 
L 143.566901 222.886452 
L 143.566901 219.032499 
L 137.873023 219.032499 
z
" style="fill:#d62728;"/>
   </g>
   <g id="patch_67">
    <path clip-path="url(#p2f65cd2dd1)" d="M 143.566901 222.886452 
L 149.260778 222.886452 
L 149.260778 220.959475 
L 143.566901 220.959475 
z
" style="fill:#d62728;"/>
   </g>
   <g id="patch_68">
    <path clip-path="url(#p2f65cd2dd1)" d="M 149.260778 222.886452 
L 154.954656 222.886452 
L 154.954656 217.105523 
L 149.260778 217.105523 
z
" style="fill:#d62728;"/>
   </g>
   <g id="patch_69">
    <path clip-path="url(#p2f65cd2dd1)" d="M 154.954656 222.886452 
L 160.648533 222.886452 
L 160.648533 222.886452 
L 154.954656 222.886452 
z
" style="fill:#d62728;"/>
   </g>
   <g id="patch_70">
    <path clip-path="url(#p2f65cd2dd1)" d="M 160.648533 222.886452 
L 166.342411 222.886452 
L 166.342411 220.959475 
L 160.648533 220.959475 
z
" style="fill:#d62728;"/>
   </g>
   <g id="patch_71">
    <path clip-path="url(#p2f65cd2dd1)" d="M 166.342411 222.886452 
L 172.036288 222.886452 
L 172.036288 219.032499 
L 166.342411 219.032499 
z
" style="fill:#d62728;"/>
   </g>
   <g id="patch_72">
    <path clip-path="url(#p2f65cd2dd1)" d="M 172.036288 222.886452 
L 177.730166 222.886452 
L 177.730166 213.25157 
L 172.036288 213.25157 
z
" style="fill:#d62728;"/>
   </g>
   <g id="patch_73">
    <path clip-path="url(#p2f65cd2dd1)" d="M 177.730166 222.886452 
L 183.424043 222.886452 
L 183.424043 219.032499 
L 177.730166 219.032499 
z
" style="fill:#d62728;"/>
   </g>
   <g id="patch_74">
    <path clip-path="url(#p2f65cd2dd1)" d="M 183.424043 222.886452 
L 189.117921 222.886452 
L 189.117921 209.397618 
L 183.424043 209.397618 
z
" style="fill:#d62728;"/>
   </g>
   <g id="patch_75">
    <path clip-path="url(#p2f65cd2dd1)" d="M 189.117921 222.886452 
L 194.811798 222.886452 
L 194.811798 219.032499 
L 189.117921 219.032499 
z
" style="fill:#d62728;"/>
   </g>
   <g id="patch_76">
    <path clip-path="url(#p2f65cd2dd1)" d="M 194.811798 222.886452 
L 200.505676 222.886452 
L 200.505676 213.25157 
L 194.811798 213.25157 
z
" style="fill:#d62728;"/>
   </g>
   <g id="patch_77">
    <path clip-path="url(#p2f65cd2dd1)" d="M 200.505676 222.886452 
L 206.199554 222.886452 
L 206.199554 220.959475 
L 200.505676 220.959475 
z
" style="fill:#d62728;"/>
   </g>
   <g id="patch_78">
    <path clip-path="url(#p2f65cd2dd1)" d="M 206.199554 222.886452 
L 211.893431 222.886452 
L 211.893431 222.886452 
L 206.199554 222.886452 
z
" style="fill:#d62728;"/>
   </g>
   <g id="patch_79">
    <path clip-path="url(#p2f65cd2dd1)" d="M 211.893431 222.886452 
L 217.587309 222.886452 
L 217.587309 220.959475 
L 211.893431 220.959475 
z
" style="fill:#d62728;"/>
   </g>
   <g id="patch_80">
    <path clip-path="url(#p2f65cd2dd1)" d="M 217.587309 222.886452 
L 223.281186 222.886452 
L 223.281186 222.886452 
L 217.587309 222.886452 
z
" style="fill:#d62728;"/>
   </g>
   <g id="patch_81">
    <path clip-path="url(#p2f65cd2dd1)" d="M 223.281186 222.886452 
L 228.975064 222.886452 
L 228.975064 222.886452 
L 223.281186 222.886452 
z
" style="fill:#d62728;"/>
   </g>
   <g id="patch_82">
    <path clip-path="url(#p2f65cd2dd1)" d="M 228.975064 222.886452 
L 234.668941 222.886452 
L 234.668941 222.886452 
L 228.975064 222.886452 
z
" style="fill:#d62728;"/>
   </g>
   <g id="patch_83">
    <path clip-path="url(#p2f65cd2dd1)" d="M 234.668941 222.886452 
L 240.362819 222.886452 
L 240.362819 222.886452 
L 234.668941 222.886452 
z
" style="fill:#d62728;"/>
   </g>
   <g id="patch_84">
    <path clip-path="url(#p2f65cd2dd1)" d="M 240.362819 222.886452 
L 246.056696 222.886452 
L 246.056696 220.959475 
L 240.362819 220.959475 
z
" style="fill:#d62728;"/>
   </g>
   <g id="patch_85">
    <path clip-path="url(#p2f65cd2dd1)" d="M 246.056696 222.886452 
L 251.750574 222.886452 
L 251.750574 222.886452 
L 246.056696 222.886452 
z
" style="fill:#d62728;"/>
   </g>
   <g id="patch_86">
    <path clip-path="url(#p2f65cd2dd1)" d="M 251.750574 222.886452 
L 257.444452 222.886452 
L 257.444452 222.886452 
L 251.750574 222.886452 
z
" style="fill:#d62728;"/>
   </g>
   <g id="patch_87">
    <path clip-path="url(#p2f65cd2dd1)" d="M 257.444452 222.886452 
L 263.138329 222.886452 
L 263.138329 222.886452 
L 257.444452 222.886452 
z
" style="fill:#d62728;"/>
   </g>
   <g id="patch_88">
    <path clip-path="url(#p2f65cd2dd1)" d="M 263.138329 222.886452 
L 268.832207 222.886452 
L 268.832207 222.886452 
L 263.138329 222.886452 
z
" style="fill:#d62728;"/>
   </g>
   <g id="patch_89">
    <path clip-path="url(#p2f65cd2dd1)" d="M 268.832207 222.886452 
L 274.526084 222.886452 
L 274.526084 220.959475 
L 268.832207 220.959475 
z
" style="fill:#d62728;"/>
   </g>
   <g id="patch_90">
    <path clip-path="url(#p2f65cd2dd1)" d="M 274.526084 222.886452 
L 280.219962 222.886452 
L 280.219962 220.959475 
L 274.526084 220.959475 
z
" style="fill:#d62728;"/>
   </g>
   <g id="patch_91">
    <path clip-path="url(#p2f65cd2dd1)" d="M 280.219962 222.886452 
L 285.913839 222.886452 
L 285.913839 222.886452 
L 280.219962 222.886452 
z
" style="fill:#d62728;"/>
   </g>
   <g id="patch_92">
    <path clip-path="url(#p2f65cd2dd1)" d="M 285.913839 222.886452 
L 291.607717 222.886452 
L 291.607717 220.959475 
L 285.913839 220.959475 
z
" style="fill:#d62728;"/>
   </g>
   <g id="patch_93">
    <path clip-path="url(#p2f65cd2dd1)" d="M 291.607717 222.886452 
L 297.301594 222.886452 
L 297.301594 222.886452 
L 291.607717 222.886452 
z
" style="fill:#d62728;"/>
   </g>
   <g id="patch_94">
    <path clip-path="url(#p2f65cd2dd1)" d="M 297.301594 222.886452 
L 302.995472 222.886452 
L 302.995472 222.886452 
L 297.301594 222.886452 
z
" style="fill:#d62728;"/>
   </g>
   <g id="patch_95">
    <path clip-path="url(#p2f65cd2dd1)" d="M 302.995472 222.886452 
L 308.689349 222.886452 
L 308.689349 219.032499 
L 302.995472 219.032499 
z
" style="fill:#d62728;"/>
   </g>
   <g id="patch_96">
    <path clip-path="url(#p2f65cd2dd1)" d="M 308.689349 222.886452 
L 314.383227 222.886452 
L 314.383227 222.886452 
L 308.689349 222.886452 
z
" style="fill:#d62728;"/>
   </g>
   <g id="patch_97">
    <path clip-path="url(#p2f65cd2dd1)" d="M 314.383227 222.886452 
L 320.077105 222.886452 
L 320.077105 222.886452 
L 314.383227 222.886452 
z
" style="fill:#d62728;"/>
   </g>
   <g id="patch_98">
    <path clip-path="url(#p2f65cd2dd1)" d="M 320.077105 222.886452 
L 325.770982 222.886452 
L 325.770982 220.959475 
L 320.077105 220.959475 
z
" style="fill:#d62728;"/>
   </g>
   <g id="patch_99">
    <path clip-path="url(#p2f65cd2dd1)" d="M 325.770982 222.886452 
L 331.46486 222.886452 
L 331.46486 222.886452 
L 325.770982 222.886452 
z
" style="fill:#d62728;"/>
   </g>
   <g id="patch_100">
    <path clip-path="url(#p2f65cd2dd1)" d="M 331.46486 222.886452 
L 337.158737 222.886452 
L 337.158737 222.886452 
L 331.46486 222.886452 
z
" style="fill:#d62728;"/>
   </g>
   <g id="patch_101">
    <path clip-path="url(#p2f65cd2dd1)" d="M 337.158737 222.886452 
L 342.852615 222.886452 
L 342.852615 222.886452 
L 337.158737 222.886452 
z
" style="fill:#d62728;"/>
   </g>
   <g id="patch_102">
    <path clip-path="url(#p2f65cd2dd1)" d="M 342.852615 222.886452 
L 348.546492 222.886452 
L 348.546492 222.886452 
L 342.852615 222.886452 
z
" style="fill:#d62728;"/>
   </g>
   <g id="patch_103">
    <path clip-path="url(#p2f65cd2dd1)" d="M 348.546492 222.886452 
L 354.24037 222.886452 
L 354.24037 222.886452 
L 348.546492 222.886452 
z
" style="fill:#d62728;"/>
   </g>
   <g id="patch_104">
    <path clip-path="url(#p2f65cd2dd1)" d="M 354.24037 222.886452 
L 359.934247 222.886452 
L 359.934247 222.886452 
L 354.24037 222.886452 
z
" style="fill:#d62728;"/>
   </g>
   <g id="patch_105">
    <path clip-path="url(#p2f65cd2dd1)" d="M 359.934247 222.886452 
L 365.628125 222.886452 
L 365.628125 222.886452 
L 359.934247 222.886452 
z
" style="fill:#d62728;"/>
   </g>
   <g id="matplotlib.axis_3">
    <g id="xtick_38">
     <g id="line2d_42">
      <g>
       <use style="stroke:#000000;stroke-width:0.8;" x="86.628125" xlink:href="#m57a50e6eb0" y="222.886452"/>
      </g>
     </g>
    </g>
    <g id="xtick_39">
     <g id="line2d_43">
      <g>
       <use style="stroke:#000000;stroke-width:0.8;" x="156.378125" xlink:href="#m57a50e6eb0" y="222.886452"/>
      </g>
     </g>
    </g>
    <g id="xtick_40">
     <g id="line2d_44">
      <g>
       <use style="stroke:#000000;stroke-width:0.8;" x="226.128125" xlink:href="#m57a50e6eb0" y="222.886452"/>
      </g>
     </g>
    </g>
    <g id="xtick_41">
     <g id="line2d_45">
      <g>
       <use style="stroke:#000000;stroke-width:0.8;" x="295.878125" xlink:href="#m57a50e6eb0" y="222.886452"/>
      </g>
     </g>
    </g>
    <g id="xtick_42">
     <g id="line2d_46">
      <g>
       <use style="stroke:#000000;stroke-width:0.8;" x="365.628125" xlink:href="#m57a50e6eb0" y="222.886452"/>
      </g>
     </g>
    </g>
    <g id="xtick_43">
     <g id="line2d_47">
      <g>
       <use style="stroke:#000000;stroke-width:0.6;" x="107.624967" xlink:href="#m5c64c6860f" y="222.886452"/>
      </g>
     </g>
    </g>
    <g id="xtick_44">
     <g id="line2d_48">
      <g>
       <use style="stroke:#000000;stroke-width:0.6;" x="119.907333" xlink:href="#m5c64c6860f" y="222.886452"/>
      </g>
     </g>
    </g>
    <g id="xtick_45">
     <g id="line2d_49">
      <g>
       <use style="stroke:#000000;stroke-width:0.6;" x="128.621809" xlink:href="#m5c64c6860f" y="222.886452"/>
      </g>
     </g>
    </g>
    <g id="xtick_46">
     <g id="line2d_50">
      <g>
       <use style="stroke:#000000;stroke-width:0.6;" x="135.381283" xlink:href="#m5c64c6860f" y="222.886452"/>
      </g>
     </g>
    </g>
    <g id="xtick_47">
     <g id="line2d_51">
      <g>
       <use style="stroke:#000000;stroke-width:0.6;" x="140.904175" xlink:href="#m5c64c6860f" y="222.886452"/>
      </g>
     </g>
    </g>
    <g id="xtick_48">
     <g id="line2d_52">
      <g>
       <use style="stroke:#000000;stroke-width:0.6;" x="145.573713" xlink:href="#m5c64c6860f" y="222.886452"/>
      </g>
     </g>
    </g>
    <g id="xtick_49">
     <g id="line2d_53">
      <g>
       <use style="stroke:#000000;stroke-width:0.6;" x="149.618652" xlink:href="#m5c64c6860f" y="222.886452"/>
      </g>
     </g>
    </g>
    <g id="xtick_50">
     <g id="line2d_54">
      <g>
       <use style="stroke:#000000;stroke-width:0.6;" x="153.18654" xlink:href="#m5c64c6860f" y="222.886452"/>
      </g>
     </g>
    </g>
    <g id="xtick_51">
     <g id="line2d_55">
      <g>
       <use style="stroke:#000000;stroke-width:0.6;" x="177.374967" xlink:href="#m5c64c6860f" y="222.886452"/>
      </g>
     </g>
    </g>
    <g id="xtick_52">
     <g id="line2d_56">
      <g>
       <use style="stroke:#000000;stroke-width:0.6;" x="189.657333" xlink:href="#m5c64c6860f" y="222.886452"/>
      </g>
     </g>
    </g>
    <g id="xtick_53">
     <g id="line2d_57">
      <g>
       <use style="stroke:#000000;stroke-width:0.6;" x="198.371809" xlink:href="#m5c64c6860f" y="222.886452"/>
      </g>
     </g>
    </g>
    <g id="xtick_54">
     <g id="line2d_58">
      <g>
       <use style="stroke:#000000;stroke-width:0.6;" x="205.131283" xlink:href="#m5c64c6860f" y="222.886452"/>
      </g>
     </g>
    </g>
    <g id="xtick_55">
     <g id="line2d_59">
      <g>
       <use style="stroke:#000000;stroke-width:0.6;" x="210.654175" xlink:href="#m5c64c6860f" y="222.886452"/>
      </g>
     </g>
    </g>
    <g id="xtick_56">
     <g id="line2d_60">
      <g>
       <use style="stroke:#000000;stroke-width:0.6;" x="215.323713" xlink:href="#m5c64c6860f" y="222.886452"/>
      </g>
     </g>
    </g>
    <g id="xtick_57">
     <g id="line2d_61">
      <g>
       <use style="stroke:#000000;stroke-width:0.6;" x="219.368652" xlink:href="#m5c64c6860f" y="222.886452"/>
      </g>
     </g>
    </g>
    <g id="xtick_58">
     <g id="line2d_62">
      <g>
       <use style="stroke:#000000;stroke-width:0.6;" x="222.93654" xlink:href="#m5c64c6860f" y="222.886452"/>
      </g>
     </g>
    </g>
    <g id="xtick_59">
     <g id="line2d_63">
      <g>
       <use style="stroke:#000000;stroke-width:0.6;" x="247.124967" xlink:href="#m5c64c6860f" y="222.886452"/>
      </g>
     </g>
    </g>
    <g id="xtick_60">
     <g id="line2d_64">
      <g>
       <use style="stroke:#000000;stroke-width:0.6;" x="259.407333" xlink:href="#m5c64c6860f" y="222.886452"/>
      </g>
     </g>
    </g>
    <g id="xtick_61">
     <g id="line2d_65">
      <g>
       <use style="stroke:#000000;stroke-width:0.6;" x="268.121809" xlink:href="#m5c64c6860f" y="222.886452"/>
      </g>
     </g>
    </g>
    <g id="xtick_62">
     <g id="line2d_66">
      <g>
       <use style="stroke:#000000;stroke-width:0.6;" x="274.881283" xlink:href="#m5c64c6860f" y="222.886452"/>
      </g>
     </g>
    </g>
    <g id="xtick_63">
     <g id="line2d_67">
      <g>
       <use style="stroke:#000000;stroke-width:0.6;" x="280.404175" xlink:href="#m5c64c6860f" y="222.886452"/>
      </g>
     </g>
    </g>
    <g id="xtick_64">
     <g id="line2d_68">
      <g>
       <use style="stroke:#000000;stroke-width:0.6;" x="285.073713" xlink:href="#m5c64c6860f" y="222.886452"/>
      </g>
     </g>
    </g>
    <g id="xtick_65">
     <g id="line2d_69">
      <g>
       <use style="stroke:#000000;stroke-width:0.6;" x="289.118652" xlink:href="#m5c64c6860f" y="222.886452"/>
      </g>
     </g>
    </g>
    <g id="xtick_66">
     <g id="line2d_70">
      <g>
       <use style="stroke:#000000;stroke-width:0.6;" x="292.68654" xlink:href="#m5c64c6860f" y="222.886452"/>
      </g>
     </g>
    </g>
    <g id="xtick_67">
     <g id="line2d_71">
      <g>
       <use style="stroke:#000000;stroke-width:0.6;" x="316.874967" xlink:href="#m5c64c6860f" y="222.886452"/>
      </g>
     </g>
    </g>
    <g id="xtick_68">
     <g id="line2d_72">
      <g>
       <use style="stroke:#000000;stroke-width:0.6;" x="329.157333" xlink:href="#m5c64c6860f" y="222.886452"/>
      </g>
     </g>
    </g>
    <g id="xtick_69">
     <g id="line2d_73">
      <g>
       <use style="stroke:#000000;stroke-width:0.6;" x="337.871809" xlink:href="#m5c64c6860f" y="222.886452"/>
      </g>
     </g>
    </g>
    <g id="xtick_70">
     <g id="line2d_74">
      <g>
       <use style="stroke:#000000;stroke-width:0.6;" x="344.631283" xlink:href="#m5c64c6860f" y="222.886452"/>
      </g>
     </g>
    </g>
    <g id="xtick_71">
     <g id="line2d_75">
      <g>
       <use style="stroke:#000000;stroke-width:0.6;" x="350.154175" xlink:href="#m5c64c6860f" y="222.886452"/>
      </g>
     </g>
    </g>
    <g id="xtick_72">
     <g id="line2d_76">
      <g>
       <use style="stroke:#000000;stroke-width:0.6;" x="354.823713" xlink:href="#m5c64c6860f" y="222.886452"/>
      </g>
     </g>
    </g>
    <g id="xtick_73">
     <g id="line2d_77">
      <g>
       <use style="stroke:#000000;stroke-width:0.6;" x="358.868652" xlink:href="#m5c64c6860f" y="222.886452"/>
      </g>
     </g>
    </g>
    <g id="xtick_74">
     <g id="line2d_78">
      <g>
       <use style="stroke:#000000;stroke-width:0.6;" x="362.43654" xlink:href="#m5c64c6860f" y="222.886452"/>
      </g>
     </g>
    </g>
   </g>
   <g id="matplotlib.axis_4">
    <g id="ytick_5">
     <g id="line2d_79">
      <g>
       <use style="stroke:#000000;stroke-width:0.8;" x="86.628125" xlink:href="#m3d658d4fc0" y="222.886452"/>
      </g>
     </g>
     <g id="text_5">
      <!-- 0 -->
      <g transform="translate(73.265625 226.68567)scale(0.1 -0.1)">
       <use xlink:href="#DejaVuSans-48"/>
      </g>
     </g>
    </g>
    <g id="ytick_6">
     <g id="line2d_80">
      <g>
       <use style="stroke:#000000;stroke-width:0.8;" x="86.628125" xlink:href="#m3d658d4fc0" y="184.346927"/>
      </g>
     </g>
     <g id="text_6">
      <!-- 20 -->
      <g transform="translate(66.903125 188.146145)scale(0.1 -0.1)">
       <use xlink:href="#DejaVuSans-50"/>
       <use x="63.623047" xlink:href="#DejaVuSans-48"/>
      </g>
     </g>
    </g>
    <g id="ytick_7">
     <g id="line2d_81">
      <g>
       <use style="stroke:#000000;stroke-width:0.8;" x="86.628125" xlink:href="#m3d658d4fc0" y="145.807402"/>
      </g>
     </g>
     <g id="text_7">
      <!-- 40 -->
      <g transform="translate(66.903125 149.60662)scale(0.1 -0.1)">
       <use xlink:href="#DejaVuSans-52"/>
       <use x="63.623047" xlink:href="#DejaVuSans-48"/>
      </g>
     </g>
    </g>
    <g id="text_8">
     <!-- Frequency -->
     <defs>
      <path d="M 9.8125 72.90625 
L 51.703125 72.90625 
L 51.703125 64.59375 
L 19.671875 64.59375 
L 19.671875 43.109375 
L 48.578125 43.109375 
L 48.578125 34.8125 
L 19.671875 34.8125 
L 19.671875 0 
L 9.8125 0 
z
" id="DejaVuSans-70"/>
      <path d="M 41.109375 46.296875 
Q 39.59375 47.171875 37.8125 47.578125 
Q 36.03125 48 33.890625 48 
Q 26.265625 48 22.1875 43.046875 
Q 18.109375 38.09375 18.109375 28.8125 
L 18.109375 0 
L 9.078125 0 
L 9.078125 54.6875 
L 18.109375 54.6875 
L 18.109375 46.1875 
Q 20.953125 51.171875 25.484375 53.578125 
Q 30.03125 56 36.53125 56 
Q 37.453125 56 38.578125 55.875 
Q 39.703125 55.765625 41.0625 55.515625 
z
" id="DejaVuSans-114"/>
      <path d="M 56.203125 29.59375 
L 56.203125 25.203125 
L 14.890625 25.203125 
Q 15.484375 15.921875 20.484375 11.0625 
Q 25.484375 6.203125 34.421875 6.203125 
Q 39.59375 6.203125 44.453125 7.46875 
Q 49.3125 8.734375 54.109375 11.28125 
L 54.109375 2.78125 
Q 49.265625 0.734375 44.1875 -0.34375 
Q 39.109375 -1.421875 33.890625 -1.421875 
Q 20.796875 -1.421875 13.15625 6.1875 
Q 5.515625 13.8125 5.515625 26.8125 
Q 5.515625 40.234375 12.765625 48.109375 
Q 20.015625 56 32.328125 56 
Q 43.359375 56 49.78125 48.890625 
Q 56.203125 41.796875 56.203125 29.59375 
z
M 47.21875 32.234375 
Q 47.125 39.59375 43.09375 43.984375 
Q 39.0625 48.390625 32.421875 48.390625 
Q 24.90625 48.390625 20.390625 44.140625 
Q 15.875 39.890625 15.1875 32.171875 
z
" id="DejaVuSans-101"/>
      <path d="M 14.796875 27.296875 
Q 14.796875 17.390625 18.875 11.75 
Q 22.953125 6.109375 30.078125 6.109375 
Q 37.203125 6.109375 41.296875 11.75 
Q 45.40625 17.390625 45.40625 27.296875 
Q 45.40625 37.203125 41.296875 42.84375 
Q 37.203125 48.484375 30.078125 48.484375 
Q 22.953125 48.484375 18.875 42.84375 
Q 14.796875 37.203125 14.796875 27.296875 
z
M 45.40625 8.203125 
Q 42.578125 3.328125 38.25 0.953125 
Q 33.9375 -1.421875 27.875 -1.421875 
Q 17.96875 -1.421875 11.734375 6.484375 
Q 5.515625 14.40625 5.515625 27.296875 
Q 5.515625 40.1875 11.734375 48.09375 
Q 17.96875 56 27.875 56 
Q 33.9375 56 38.25 53.625 
Q 42.578125 51.265625 45.40625 46.390625 
L 45.40625 54.6875 
L 54.390625 54.6875 
L 54.390625 -20.796875 
L 45.40625 -20.796875 
z
" id="DejaVuSans-113"/>
      <path d="M 8.5 21.578125 
L 8.5 54.6875 
L 17.484375 54.6875 
L 17.484375 21.921875 
Q 17.484375 14.15625 20.5 10.265625 
Q 23.53125 6.390625 29.59375 6.390625 
Q 36.859375 6.390625 41.078125 11.03125 
Q 45.3125 15.671875 45.3125 23.6875 
L 45.3125 54.6875 
L 54.296875 54.6875 
L 54.296875 0 
L 45.3125 0 
L 45.3125 8.40625 
Q 42.046875 3.421875 37.71875 1 
Q 33.40625 -1.421875 27.6875 -1.421875 
Q 18.265625 -1.421875 13.375 4.4375 
Q 8.5 10.296875 8.5 21.578125 
z
M 31.109375 56 
z
" id="DejaVuSans-117"/>
      <path d="M 54.890625 33.015625 
L 54.890625 0 
L 45.90625 0 
L 45.90625 32.71875 
Q 45.90625 40.484375 42.875 44.328125 
Q 39.84375 48.1875 33.796875 48.1875 
Q 26.515625 48.1875 22.3125 43.546875 
Q 18.109375 38.921875 18.109375 30.90625 
L 18.109375 0 
L 9.078125 0 
L 9.078125 54.6875 
L 18.109375 54.6875 
L 18.109375 46.1875 
Q 21.34375 51.125 25.703125 53.5625 
Q 30.078125 56 35.796875 56 
Q 45.21875 56 50.046875 50.171875 
Q 54.890625 44.34375 54.890625 33.015625 
z
" id="DejaVuSans-110"/>
      <path d="M 48.78125 52.59375 
L 48.78125 44.1875 
Q 44.96875 46.296875 41.140625 47.34375 
Q 37.3125 48.390625 33.40625 48.390625 
Q 24.65625 48.390625 19.8125 42.84375 
Q 14.984375 37.3125 14.984375 27.296875 
Q 14.984375 17.28125 19.8125 11.734375 
Q 24.65625 6.203125 33.40625 6.203125 
Q 37.3125 6.203125 41.140625 7.25 
Q 44.96875 8.296875 48.78125 10.40625 
L 48.78125 2.09375 
Q 45.015625 0.34375 40.984375 -0.53125 
Q 36.96875 -1.421875 32.421875 -1.421875 
Q 20.0625 -1.421875 12.78125 6.34375 
Q 5.515625 14.109375 5.515625 27.296875 
Q 5.515625 40.671875 12.859375 48.328125 
Q 20.21875 56 33.015625 56 
Q 37.15625 56 41.109375 55.140625 
Q 45.0625 54.296875 48.78125 52.59375 
z
" id="DejaVuSans-99"/>
      <path d="M 32.171875 -5.078125 
Q 28.375 -14.84375 24.75 -17.8125 
Q 21.140625 -20.796875 15.09375 -20.796875 
L 7.90625 -20.796875 
L 7.90625 -13.28125 
L 13.1875 -13.28125 
Q 16.890625 -13.28125 18.9375 -11.515625 
Q 21 -9.765625 23.484375 -3.21875 
L 25.09375 0.875 
L 2.984375 54.6875 
L 12.5 54.6875 
L 29.59375 11.921875 
L 46.6875 54.6875 
L 56.203125 54.6875 
z
" id="DejaVuSans-121"/>
     </defs>
     <g transform="translate(14.798438 143.971205)rotate(-90)scale(0.1 -0.1)">
      <use xlink:href="#DejaVuSans-70"/>
      <use x="57.410156" xlink:href="#DejaVuSans-114"/>
      <use x="98.492188" xlink:href="#DejaVuSans-101"/>
      <use x="160.015625" xlink:href="#DejaVuSans-113"/>
      <use x="223.492188" xlink:href="#DejaVuSans-117"/>
      <use x="286.871094" xlink:href="#DejaVuSans-101"/>
      <use x="348.394531" xlink:href="#DejaVuSans-110"/>
      <use x="411.773438" xlink:href="#DejaVuSans-99"/>
      <use x="466.753906" xlink:href="#DejaVuSans-121"/>
     </g>
    </g>
   </g>
   <g id="patch_106">
    <path d="M 86.628125 222.886452 
L 86.628125 117.673548 
" style="fill:none;stroke:#000000;stroke-linecap:square;stroke-linejoin:miter;stroke-width:0.8;"/>
   </g>
   <g id="patch_107">
    <path d="M 365.628125 222.886452 
L 365.628125 117.673548 
" style="fill:none;stroke:#000000;stroke-linecap:square;stroke-linejoin:miter;stroke-width:0.8;"/>
   </g>
   <g id="patch_108">
    <path d="M 86.628125 222.886452 
L 365.628125 222.886452 
" style="fill:none;stroke:#000000;stroke-linecap:square;stroke-linejoin:miter;stroke-width:0.8;"/>
   </g>
   <g id="patch_109">
    <path d="M 86.628125 117.673548 
L 365.628125 117.673548 
" style="fill:none;stroke:#000000;stroke-linecap:square;stroke-linejoin:miter;stroke-width:0.8;"/>
   </g>
  </g>
  <g id="axes_3">
   <g id="patch_110">
    <path d="M 86.628125 333.36 
L 365.628125 333.36 
L 365.628125 228.147097 
L 86.628125 228.147097 
z
" style="fill:#ffffff;"/>
   </g>
   <g id="matplotlib.axis_5">
    <g id="xtick_75">
     <g id="line2d_82">
      <path clip-path="url(#p7dc26d4b15)" d="M 86.628125 333.36 
L 86.628125 228.147097 
" style="fill:none;stroke:#b0b0b0;stroke-linecap:square;stroke-width:0.8;"/>
     </g>
     <g id="line2d_83">
      <g>
       <use style="stroke:#000000;stroke-width:0.8;" x="86.628125" xlink:href="#m57a50e6eb0" y="333.36"/>
      </g>
     </g>
     <g id="text_9">
      <!-- $\mathdefault{10^{0}}$ -->
      <defs>
       <path d="M 12.40625 8.296875 
L 28.515625 8.296875 
L 28.515625 63.921875 
L 10.984375 60.40625 
L 10.984375 69.390625 
L 28.421875 72.90625 
L 38.28125 72.90625 
L 38.28125 8.296875 
L 54.390625 8.296875 
L 54.390625 0 
L 12.40625 0 
z
" id="DejaVuSans-49"/>
      </defs>
      <g transform="translate(77.828125 347.958438)scale(0.1 -0.1)">
       <use transform="translate(0 0.765625)" xlink:href="#DejaVuSans-49"/>
       <use transform="translate(63.623047 0.765625)" xlink:href="#DejaVuSans-48"/>
       <use transform="translate(128.203125 39.046875)scale(0.7)" xlink:href="#DejaVuSans-48"/>
      </g>
     </g>
    </g>
    <g id="xtick_76">
     <g id="line2d_84">
      <path clip-path="url(#p7dc26d4b15)" d="M 156.378125 333.36 
L 156.378125 228.147097 
" style="fill:none;stroke:#b0b0b0;stroke-linecap:square;stroke-width:0.8;"/>
     </g>
     <g id="line2d_85">
      <g>
       <use style="stroke:#000000;stroke-width:0.8;" x="156.378125" xlink:href="#m57a50e6eb0" y="333.36"/>
      </g>
     </g>
     <g id="text_10">
      <!-- $\mathdefault{10^{1}}$ -->
      <g transform="translate(147.578125 347.958438)scale(0.1 -0.1)">
       <use transform="translate(0 0.684375)" xlink:href="#DejaVuSans-49"/>
       <use transform="translate(63.623047 0.684375)" xlink:href="#DejaVuSans-48"/>
       <use transform="translate(128.203125 38.965625)scale(0.7)" xlink:href="#DejaVuSans-49"/>
      </g>
     </g>
    </g>
    <g id="xtick_77">
     <g id="line2d_86">
      <path clip-path="url(#p7dc26d4b15)" d="M 226.128125 333.36 
L 226.128125 228.147097 
" style="fill:none;stroke:#b0b0b0;stroke-linecap:square;stroke-width:0.8;"/>
     </g>
     <g id="line2d_87">
      <g>
       <use style="stroke:#000000;stroke-width:0.8;" x="226.128125" xlink:href="#m57a50e6eb0" y="333.36"/>
      </g>
     </g>
     <g id="text_11">
      <!-- $\mathdefault{10^{2}}$ -->
      <g transform="translate(217.328125 347.958438)scale(0.1 -0.1)">
       <use transform="translate(0 0.765625)" xlink:href="#DejaVuSans-49"/>
       <use transform="translate(63.623047 0.765625)" xlink:href="#DejaVuSans-48"/>
       <use transform="translate(128.203125 39.046875)scale(0.7)" xlink:href="#DejaVuSans-50"/>
      </g>
     </g>
    </g>
    <g id="xtick_78">
     <g id="line2d_88">
      <path clip-path="url(#p7dc26d4b15)" d="M 295.878125 333.36 
L 295.878125 228.147097 
" style="fill:none;stroke:#b0b0b0;stroke-linecap:square;stroke-width:0.8;"/>
     </g>
     <g id="line2d_89">
      <g>
       <use style="stroke:#000000;stroke-width:0.8;" x="295.878125" xlink:href="#m57a50e6eb0" y="333.36"/>
      </g>
     </g>
     <g id="text_12">
      <!-- $\mathdefault{10^{3}}$ -->
      <defs>
       <path d="M 40.578125 39.3125 
Q 47.65625 37.796875 51.625 33 
Q 55.609375 28.21875 55.609375 21.1875 
Q 55.609375 10.40625 48.1875 4.484375 
Q 40.765625 -1.421875 27.09375 -1.421875 
Q 22.515625 -1.421875 17.65625 -0.515625 
Q 12.796875 0.390625 7.625 2.203125 
L 7.625 11.71875 
Q 11.71875 9.328125 16.59375 8.109375 
Q 21.484375 6.890625 26.8125 6.890625 
Q 36.078125 6.890625 40.9375 10.546875 
Q 45.796875 14.203125 45.796875 21.1875 
Q 45.796875 27.640625 41.28125 31.265625 
Q 36.765625 34.90625 28.71875 34.90625 
L 20.21875 34.90625 
L 20.21875 43.015625 
L 29.109375 43.015625 
Q 36.375 43.015625 40.234375 45.921875 
Q 44.09375 48.828125 44.09375 54.296875 
Q 44.09375 59.90625 40.109375 62.90625 
Q 36.140625 65.921875 28.71875 65.921875 
Q 24.65625 65.921875 20.015625 65.03125 
Q 15.375 64.15625 9.8125 62.3125 
L 9.8125 71.09375 
Q 15.4375 72.65625 20.34375 73.4375 
Q 25.25 74.21875 29.59375 74.21875 
Q 40.828125 74.21875 47.359375 69.109375 
Q 53.90625 64.015625 53.90625 55.328125 
Q 53.90625 49.265625 50.4375 45.09375 
Q 46.96875 40.921875 40.578125 39.3125 
z
" id="DejaVuSans-51"/>
      </defs>
      <g transform="translate(287.078125 347.958438)scale(0.1 -0.1)">
       <use transform="translate(0 0.765625)" xlink:href="#DejaVuSans-49"/>
       <use transform="translate(63.623047 0.765625)" xlink:href="#DejaVuSans-48"/>
       <use transform="translate(128.203125 39.046875)scale(0.7)" xlink:href="#DejaVuSans-51"/>
      </g>
     </g>
    </g>
    <g id="xtick_79">
     <g id="line2d_90">
      <path clip-path="url(#p7dc26d4b15)" d="M 365.628125 333.36 
L 365.628125 228.147097 
" style="fill:none;stroke:#b0b0b0;stroke-linecap:square;stroke-width:0.8;"/>
     </g>
     <g id="line2d_91">
      <g>
       <use style="stroke:#000000;stroke-width:0.8;" x="365.628125" xlink:href="#m57a50e6eb0" y="333.36"/>
      </g>
     </g>
     <g id="text_13">
      <!-- $\mathdefault{10^{4}}$ -->
      <g transform="translate(356.828125 347.958438)scale(0.1 -0.1)">
       <use transform="translate(0 0.684375)" xlink:href="#DejaVuSans-49"/>
       <use transform="translate(63.623047 0.684375)" xlink:href="#DejaVuSans-48"/>
       <use transform="translate(128.203125 38.965625)scale(0.7)" xlink:href="#DejaVuSans-52"/>
      </g>
     </g>
    </g>
    <g id="xtick_80">
     <g id="line2d_92">
      <g>
       <use style="stroke:#000000;stroke-width:0.6;" x="107.624967" xlink:href="#m5c64c6860f" y="333.36"/>
      </g>
     </g>
    </g>
    <g id="xtick_81">
     <g id="line2d_93">
      <g>
       <use style="stroke:#000000;stroke-width:0.6;" x="119.907333" xlink:href="#m5c64c6860f" y="333.36"/>
      </g>
     </g>
    </g>
    <g id="xtick_82">
     <g id="line2d_94">
      <g>
       <use style="stroke:#000000;stroke-width:0.6;" x="128.621809" xlink:href="#m5c64c6860f" y="333.36"/>
      </g>
     </g>
    </g>
    <g id="xtick_83">
     <g id="line2d_95">
      <g>
       <use style="stroke:#000000;stroke-width:0.6;" x="135.381283" xlink:href="#m5c64c6860f" y="333.36"/>
      </g>
     </g>
    </g>
    <g id="xtick_84">
     <g id="line2d_96">
      <g>
       <use style="stroke:#000000;stroke-width:0.6;" x="140.904175" xlink:href="#m5c64c6860f" y="333.36"/>
      </g>
     </g>
    </g>
    <g id="xtick_85">
     <g id="line2d_97">
      <g>
       <use style="stroke:#000000;stroke-width:0.6;" x="145.573713" xlink:href="#m5c64c6860f" y="333.36"/>
      </g>
     </g>
    </g>
    <g id="xtick_86">
     <g id="line2d_98">
      <g>
       <use style="stroke:#000000;stroke-width:0.6;" x="149.618652" xlink:href="#m5c64c6860f" y="333.36"/>
      </g>
     </g>
    </g>
    <g id="xtick_87">
     <g id="line2d_99">
      <g>
       <use style="stroke:#000000;stroke-width:0.6;" x="153.18654" xlink:href="#m5c64c6860f" y="333.36"/>
      </g>
     </g>
    </g>
    <g id="xtick_88">
     <g id="line2d_100">
      <g>
       <use style="stroke:#000000;stroke-width:0.6;" x="177.374967" xlink:href="#m5c64c6860f" y="333.36"/>
      </g>
     </g>
    </g>
    <g id="xtick_89">
     <g id="line2d_101">
      <g>
       <use style="stroke:#000000;stroke-width:0.6;" x="189.657333" xlink:href="#m5c64c6860f" y="333.36"/>
      </g>
     </g>
    </g>
    <g id="xtick_90">
     <g id="line2d_102">
      <g>
       <use style="stroke:#000000;stroke-width:0.6;" x="198.371809" xlink:href="#m5c64c6860f" y="333.36"/>
      </g>
     </g>
    </g>
    <g id="xtick_91">
     <g id="line2d_103">
      <g>
       <use style="stroke:#000000;stroke-width:0.6;" x="205.131283" xlink:href="#m5c64c6860f" y="333.36"/>
      </g>
     </g>
    </g>
    <g id="xtick_92">
     <g id="line2d_104">
      <g>
       <use style="stroke:#000000;stroke-width:0.6;" x="210.654175" xlink:href="#m5c64c6860f" y="333.36"/>
      </g>
     </g>
    </g>
    <g id="xtick_93">
     <g id="line2d_105">
      <g>
       <use style="stroke:#000000;stroke-width:0.6;" x="215.323713" xlink:href="#m5c64c6860f" y="333.36"/>
      </g>
     </g>
    </g>
    <g id="xtick_94">
     <g id="line2d_106">
      <g>
       <use style="stroke:#000000;stroke-width:0.6;" x="219.368652" xlink:href="#m5c64c6860f" y="333.36"/>
      </g>
     </g>
    </g>
    <g id="xtick_95">
     <g id="line2d_107">
      <g>
       <use style="stroke:#000000;stroke-width:0.6;" x="222.93654" xlink:href="#m5c64c6860f" y="333.36"/>
      </g>
     </g>
    </g>
    <g id="xtick_96">
     <g id="line2d_108">
      <g>
       <use style="stroke:#000000;stroke-width:0.6;" x="247.124967" xlink:href="#m5c64c6860f" y="333.36"/>
      </g>
     </g>
    </g>
    <g id="xtick_97">
     <g id="line2d_109">
      <g>
       <use style="stroke:#000000;stroke-width:0.6;" x="259.407333" xlink:href="#m5c64c6860f" y="333.36"/>
      </g>
     </g>
    </g>
    <g id="xtick_98">
     <g id="line2d_110">
      <g>
       <use style="stroke:#000000;stroke-width:0.6;" x="268.121809" xlink:href="#m5c64c6860f" y="333.36"/>
      </g>
     </g>
    </g>
    <g id="xtick_99">
     <g id="line2d_111">
      <g>
       <use style="stroke:#000000;stroke-width:0.6;" x="274.881283" xlink:href="#m5c64c6860f" y="333.36"/>
      </g>
     </g>
    </g>
    <g id="xtick_100">
     <g id="line2d_112">
      <g>
       <use style="stroke:#000000;stroke-width:0.6;" x="280.404175" xlink:href="#m5c64c6860f" y="333.36"/>
      </g>
     </g>
    </g>
    <g id="xtick_101">
     <g id="line2d_113">
      <g>
       <use style="stroke:#000000;stroke-width:0.6;" x="285.073713" xlink:href="#m5c64c6860f" y="333.36"/>
      </g>
     </g>
    </g>
    <g id="xtick_102">
     <g id="line2d_114">
      <g>
       <use style="stroke:#000000;stroke-width:0.6;" x="289.118652" xlink:href="#m5c64c6860f" y="333.36"/>
      </g>
     </g>
    </g>
    <g id="xtick_103">
     <g id="line2d_115">
      <g>
       <use style="stroke:#000000;stroke-width:0.6;" x="292.68654" xlink:href="#m5c64c6860f" y="333.36"/>
      </g>
     </g>
    </g>
    <g id="xtick_104">
     <g id="line2d_116">
      <g>
       <use style="stroke:#000000;stroke-width:0.6;" x="316.874967" xlink:href="#m5c64c6860f" y="333.36"/>
      </g>
     </g>
    </g>
    <g id="xtick_105">
     <g id="line2d_117">
      <g>
       <use style="stroke:#000000;stroke-width:0.6;" x="329.157333" xlink:href="#m5c64c6860f" y="333.36"/>
      </g>
     </g>
    </g>
    <g id="xtick_106">
     <g id="line2d_118">
      <g>
       <use style="stroke:#000000;stroke-width:0.6;" x="337.871809" xlink:href="#m5c64c6860f" y="333.36"/>
      </g>
     </g>
    </g>
    <g id="xtick_107">
     <g id="line2d_119">
      <g>
       <use style="stroke:#000000;stroke-width:0.6;" x="344.631283" xlink:href="#m5c64c6860f" y="333.36"/>
      </g>
     </g>
    </g>
    <g id="xtick_108">
     <g id="line2d_120">
      <g>
       <use style="stroke:#000000;stroke-width:0.6;" x="350.154175" xlink:href="#m5c64c6860f" y="333.36"/>
      </g>
     </g>
    </g>
    <g id="xtick_109">
     <g id="line2d_121">
      <g>
       <use style="stroke:#000000;stroke-width:0.6;" x="354.823713" xlink:href="#m5c64c6860f" y="333.36"/>
      </g>
     </g>
    </g>
    <g id="xtick_110">
     <g id="line2d_122">
      <g>
       <use style="stroke:#000000;stroke-width:0.6;" x="358.868652" xlink:href="#m5c64c6860f" y="333.36"/>
      </g>
     </g>
    </g>
    <g id="xtick_111">
     <g id="line2d_123">
      <g>
       <use style="stroke:#000000;stroke-width:0.6;" x="362.43654" xlink:href="#m5c64c6860f" y="333.36"/>
      </g>
     </g>
    </g>
   </g>
   <g id="matplotlib.axis_6">
    <g id="ytick_8">
     <g id="line2d_124">
      <path clip-path="url(#p7dc26d4b15)" d="M 86.628125 328.577595 
L 365.628125 328.577595 
" style="fill:none;stroke:#b0b0b0;stroke-linecap:square;stroke-width:0.8;"/>
     </g>
     <g id="line2d_125">
      <g>
       <use style="stroke:#000000;stroke-width:0.8;" x="86.628125" xlink:href="#m3d658d4fc0" y="328.577595"/>
      </g>
     </g>
     <g id="text_14">
      <!-- 0.00 -->
      <defs>
       <path d="M 10.6875 12.40625 
L 21 12.40625 
L 21 0 
L 10.6875 0 
z
" id="DejaVuSans-46"/>
      </defs>
      <g transform="translate(57.3625 332.376814)scale(0.1 -0.1)">
       <use xlink:href="#DejaVuSans-48"/>
       <use x="63.623047" xlink:href="#DejaVuSans-46"/>
       <use x="95.410156" xlink:href="#DejaVuSans-48"/>
       <use x="159.033203" xlink:href="#DejaVuSans-48"/>
      </g>
     </g>
    </g>
    <g id="ytick_9">
     <g id="line2d_126">
      <path clip-path="url(#p7dc26d4b15)" d="M 86.628125 304.665572 
L 365.628125 304.665572 
" style="fill:none;stroke:#b0b0b0;stroke-linecap:square;stroke-width:0.8;"/>
     </g>
     <g id="line2d_127">
      <g>
       <use style="stroke:#000000;stroke-width:0.8;" x="86.628125" xlink:href="#m3d658d4fc0" y="304.665572"/>
      </g>
     </g>
     <g id="text_15">
      <!-- 0.25 -->
      <defs>
       <path d="M 10.796875 72.90625 
L 49.515625 72.90625 
L 49.515625 64.59375 
L 19.828125 64.59375 
L 19.828125 46.734375 
Q 21.96875 47.46875 24.109375 47.828125 
Q 26.265625 48.1875 28.421875 48.1875 
Q 40.625 48.1875 47.75 41.5 
Q 54.890625 34.8125 54.890625 23.390625 
Q 54.890625 11.625 47.5625 5.09375 
Q 40.234375 -1.421875 26.90625 -1.421875 
Q 22.3125 -1.421875 17.546875 -0.640625 
Q 12.796875 0.140625 7.71875 1.703125 
L 7.71875 11.625 
Q 12.109375 9.234375 16.796875 8.0625 
Q 21.484375 6.890625 26.703125 6.890625 
Q 35.15625 6.890625 40.078125 11.328125 
Q 45.015625 15.765625 45.015625 23.390625 
Q 45.015625 31 40.078125 35.4375 
Q 35.15625 39.890625 26.703125 39.890625 
Q 22.75 39.890625 18.8125 39.015625 
Q 14.890625 38.140625 10.796875 36.28125 
z
" id="DejaVuSans-53"/>
      </defs>
      <g transform="translate(57.3625 308.464791)scale(0.1 -0.1)">
       <use xlink:href="#DejaVuSans-48"/>
       <use x="63.623047" xlink:href="#DejaVuSans-46"/>
       <use x="95.410156" xlink:href="#DejaVuSans-50"/>
       <use x="159.033203" xlink:href="#DejaVuSans-53"/>
      </g>
     </g>
    </g>
    <g id="ytick_10">
     <g id="line2d_128">
      <path clip-path="url(#p7dc26d4b15)" d="M 86.628125 280.753548 
L 365.628125 280.753548 
" style="fill:none;stroke:#b0b0b0;stroke-linecap:square;stroke-width:0.8;"/>
     </g>
     <g id="line2d_129">
      <g>
       <use style="stroke:#000000;stroke-width:0.8;" x="86.628125" xlink:href="#m3d658d4fc0" y="280.753548"/>
      </g>
     </g>
     <g id="text_16">
      <!-- 0.50 -->
      <g transform="translate(57.3625 284.552767)scale(0.1 -0.1)">
       <use xlink:href="#DejaVuSans-48"/>
       <use x="63.623047" xlink:href="#DejaVuSans-46"/>
       <use x="95.410156" xlink:href="#DejaVuSans-53"/>
       <use x="159.033203" xlink:href="#DejaVuSans-48"/>
      </g>
     </g>
    </g>
    <g id="ytick_11">
     <g id="line2d_130">
      <path clip-path="url(#p7dc26d4b15)" d="M 86.628125 256.841525 
L 365.628125 256.841525 
" style="fill:none;stroke:#b0b0b0;stroke-linecap:square;stroke-width:0.8;"/>
     </g>
     <g id="line2d_131">
      <g>
       <use style="stroke:#000000;stroke-width:0.8;" x="86.628125" xlink:href="#m3d658d4fc0" y="256.841525"/>
      </g>
     </g>
     <g id="text_17">
      <!-- 0.75 -->
      <defs>
       <path d="M 8.203125 72.90625 
L 55.078125 72.90625 
L 55.078125 68.703125 
L 28.609375 0 
L 18.3125 0 
L 43.21875 64.59375 
L 8.203125 64.59375 
z
" id="DejaVuSans-55"/>
      </defs>
      <g transform="translate(57.3625 260.640744)scale(0.1 -0.1)">
       <use xlink:href="#DejaVuSans-48"/>
       <use x="63.623047" xlink:href="#DejaVuSans-46"/>
       <use x="95.410156" xlink:href="#DejaVuSans-55"/>
       <use x="159.033203" xlink:href="#DejaVuSans-53"/>
      </g>
     </g>
    </g>
    <g id="ytick_12">
     <g id="line2d_132">
      <path clip-path="url(#p7dc26d4b15)" d="M 86.628125 232.929501 
L 365.628125 232.929501 
" style="fill:none;stroke:#b0b0b0;stroke-linecap:square;stroke-width:0.8;"/>
     </g>
     <g id="line2d_133">
      <g>
       <use style="stroke:#000000;stroke-width:0.8;" x="86.628125" xlink:href="#m3d658d4fc0" y="232.929501"/>
      </g>
     </g>
     <g id="text_18">
      <!-- 1.00 -->
      <g transform="translate(57.3625 236.72872)scale(0.1 -0.1)">
       <use xlink:href="#DejaVuSans-49"/>
       <use x="63.623047" xlink:href="#DejaVuSans-46"/>
       <use x="95.410156" xlink:href="#DejaVuSans-48"/>
       <use x="159.033203" xlink:href="#DejaVuSans-48"/>
      </g>
     </g>
    </g>
    <g id="text_19">
     <!-- CDF -->
     <defs>
      <path d="M 64.40625 67.28125 
L 64.40625 56.890625 
Q 59.421875 61.53125 53.78125 63.8125 
Q 48.140625 66.109375 41.796875 66.109375 
Q 29.296875 66.109375 22.65625 58.46875 
Q 16.015625 50.828125 16.015625 36.375 
Q 16.015625 21.96875 22.65625 14.328125 
Q 29.296875 6.6875 41.796875 6.6875 
Q 48.140625 6.6875 53.78125 8.984375 
Q 59.421875 11.28125 64.40625 15.921875 
L 64.40625 5.609375 
Q 59.234375 2.09375 53.4375 0.328125 
Q 47.65625 -1.421875 41.21875 -1.421875 
Q 24.65625 -1.421875 15.125 8.703125 
Q 5.609375 18.84375 5.609375 36.375 
Q 5.609375 53.953125 15.125 64.078125 
Q 24.65625 74.21875 41.21875 74.21875 
Q 47.75 74.21875 53.53125 72.484375 
Q 59.328125 70.75 64.40625 67.28125 
z
" id="DejaVuSans-67"/>
      <path d="M 19.671875 64.796875 
L 19.671875 8.109375 
L 31.59375 8.109375 
Q 46.6875 8.109375 53.6875 14.9375 
Q 60.6875 21.78125 60.6875 36.53125 
Q 60.6875 51.171875 53.6875 57.984375 
Q 46.6875 64.796875 31.59375 64.796875 
z
M 9.8125 72.90625 
L 30.078125 72.90625 
Q 51.265625 72.90625 61.171875 64.09375 
Q 71.09375 55.28125 71.09375 36.53125 
Q 71.09375 17.671875 61.125 8.828125 
Q 51.171875 0 30.078125 0 
L 9.8125 0 
z
" id="DejaVuSans-68"/>
     </defs>
     <g transform="translate(14.798438 290.970736)rotate(-90)scale(0.1 -0.1)">
      <use xlink:href="#DejaVuSans-67"/>
      <use x="69.824219" xlink:href="#DejaVuSans-68"/>
      <use x="146.826172" xlink:href="#DejaVuSans-70"/>
     </g>
    </g>
   </g>
   <g id="line2d_134">
    <path clip-path="url(#p7dc26d4b15)" d="M 86.628125 328.577595 
L 86.628125 327.793595 
L 86.628125 327.009594 
L 86.628125 326.225593 
L 86.628125 325.441592 
L 86.628125 324.657591 
L 86.628125 323.873591 
L 86.628125 323.08959 
L 86.628125 322.305589 
L 86.628125 321.521588 
L 86.628125 320.737588 
L 86.628125 319.953587 
L 86.628125 319.169586 
L 86.628125 318.385585 
L 86.628125 317.601585 
L 86.628125 316.817584 
L 86.628125 316.033583 
L 86.628125 315.249582 
L 86.628125 314.465581 
L 86.628125 313.681581 
L 86.628125 312.89758 
L 86.628125 312.113579 
L 86.628125 311.329578 
L 86.628125 310.545578 
L 86.628125 309.761577 
L 86.628125 308.977576 
L 86.628125 308.193575 
L 86.628125 307.409575 
L 86.628125 306.625574 
L 86.628125 305.841573 
L 86.628125 305.057572 
L 86.628125 304.273571 
L 86.628125 303.489571 
L 86.628125 302.70557 
L 86.628125 301.921569 
L 86.628125 301.137568 
L 86.628125 300.353568 
L 86.628125 299.569567 
L 86.628125 298.785566 
L 86.628125 298.001565 
L 86.628125 297.217565 
L 86.628125 296.433564 
L 86.628125 295.649563 
L 86.628125 294.865562 
L 86.628125 294.081561 
L 86.628125 293.297561 
L 86.628125 292.51356 
L 86.628125 291.729559 
L 86.628125 290.945558 
L 86.628125 290.161558 
L 86.628125 289.377557 
L 86.628125 288.593556 
L 107.624967 287.809555 
L 107.624967 287.025555 
L 107.624967 286.241554 
L 107.624967 285.457553 
L 107.624967 284.673552 
L 107.624967 283.889551 
L 107.624967 283.105551 
L 107.624967 282.32155 
L 107.624967 281.537549 
L 107.624967 280.753548 
L 107.624967 279.969548 
L 107.624967 279.185547 
L 107.624967 278.401546 
L 107.624967 277.617545 
L 107.624967 276.833545 
L 107.624967 276.049544 
L 107.624967 275.265543 
L 119.907333 274.481542 
L 119.907333 273.697541 
L 119.907333 272.913541 
L 119.907333 272.12954 
L 119.907333 271.345539 
L 119.907333 270.561538 
L 128.621809 269.777538 
L 128.621809 268.993537 
L 128.621809 268.209536 
L 128.621809 267.425535 
L 128.621809 266.641535 
L 128.621809 265.857534 
L 135.381283 265.073533 
L 135.381283 264.289532 
L 135.381283 263.505531 
L 140.904175 262.721531 
L 140.904175 261.93753 
L 145.573713 261.153529 
L 149.618652 260.369528 
L 149.618652 259.585528 
L 149.618652 258.801527 
L 164.325674 258.017526 
L 168.66049 257.233525 
L 170.615494 256.449525 
L 172.451937 255.665524 
L 172.451937 254.881523 
L 175.821189 254.097522 
L 177.374967 253.313521 
L 177.374967 252.529521 
L 180.262107 251.74552 
L 180.262107 250.961519 
L 184.134441 250.177518 
L 185.322516 249.393518 
L 186.465748 248.609517 
L 187.567398 247.825516 
L 187.567398 247.041515 
L 187.567398 246.257515 
L 187.567398 245.473514 
L 189.657333 244.689513 
L 192.544472 243.905512 
L 196.010195 243.121511 
L 196.818031 242.337511 
L 198.371809 241.55351 
L 199.119799 240.769509 
L 199.119799 239.985508 
L 200.56255 239.201508 
L 215.323713 238.417507 
L 243.59492 237.633506 
L 269.815366 236.849505 
L 279.377228 236.065505 
L 288.039432 235.281504 
L 305.125569 234.497503 
L 305.170182 233.713502 
L 325.043076 232.929501 
" style="fill:none;stroke:#d62728;stroke-linecap:square;stroke-width:1.5;"/>
   </g>
   <g id="line2d_135">
    <path clip-path="url(#p7dc26d4b15)" d="M 86.628125 328.577595 
L 86.628125 285.241809 
L 107.624967 285.130694 
L 107.624967 272.205047 
L 119.907333 272.093932 
L 119.907333 265.062937 
L 128.621809 264.951821 
L 128.621809 260.341638 
L 135.381283 260.230523 
L 135.381283 256.922222 
L 140.904175 256.811107 
L 140.904175 254.265938 
L 145.573713 254.154823 
L 145.573713 252.181349 
L 149.618652 252.070234 
L 149.618652 250.465407 
L 153.18654 250.354292 
L 153.18654 249.027675 
L 156.378125 248.91656 
L 156.378125 247.79506 
L 159.265265 247.683945 
L 159.265265 246.732209 
L 161.901017 246.621094 
L 161.901017 245.803607 
L 164.325674 245.692492 
L 164.325674 244.984779 
L 166.570555 244.873664 
L 166.570555 244.255303 
L 168.66049 244.144187 
L 168.66049 243.603483 
L 170.615494 243.492368 
L 170.615494 243.016199 
L 172.451937 242.905084 
L 172.451937 242.479695 
L 174.183382 242.36858 
L 174.183382 241.997819 
L 175.821189 241.886703 
L 175.821189 241.557032 
L 177.374967 241.445917 
L 177.374967 241.15127 
L 178.852921 241.040155 
L 178.852921 240.779012 
L 180.262107 240.667897 
L 180.262107 240.434799 
L 181.608642 240.323683 
L 181.608642 240.111344 
L 182.897859 240.000229 
L 182.897859 239.814877 
L 184.134441 239.703762 
L 184.134441 239.540625 
L 185.322516 239.42951 
L 185.322516 239.283746 
L 186.465748 239.172631 
L 186.465748 239.040884 
L 187.567398 238.929769 
L 187.567398 238.812997 
L 188.630385 238.701882 
L 188.630385 238.601363 
L 189.657333 238.490248 
L 189.657333 238.402734 
L 190.650603 238.291619 
L 190.650603 238.215019 
L 191.612336 238.103904 
L 191.612336 238.03901 
L 192.544472 237.927895 
L 192.544472 237.870922 
L 193.448779 237.759806 
L 193.448779 237.711835 
L 194.326871 237.60072 
L 194.326871 237.561698 
L 195.180224 237.450582 
L 195.180224 237.42025 
L 196.010195 237.309135 
L 196.010195 237.285088 
L 196.818031 237.173973 
L 196.818031 237.157582 
L 197.604881 237.046467 
L 197.604881 237.034859 
L 198.371809 236.923744 
L 198.371809 236.917707 
L 199.119799 236.806591 
L 199.119799 236.806557 
L 200.56255 236.695436 
L 200.56255 236.598273 
L 201.939698 236.487152 
L 201.939698 236.408161 
L 203.256951 236.29704 
L 203.256951 236.232232 
L 204.519302 236.121111 
L 204.519302 236.072481 
L 205.731145 235.96136 
L 205.731145 235.923962 
L 206.896367 235.812841 
L 206.896367 235.78631 
L 208.018423 235.675189 
L 208.018423 235.661161 
L 209.100396 235.55004 
L 209.100396 235.543829 
L 210.145053 235.432708 
L 210.145053 235.432459 
L 211.647445 235.321333 
L 211.647445 235.280993 
L 213.078832 235.169866 
L 213.078832 235.144098 
L 214.445622 235.032971 
L 214.445622 235.019406 
L 215.753395 234.908279 
L 215.753395 234.904922 
L 217.413648 234.79379 
L 217.413648 234.765722 
L 218.987615 234.654589 
L 218.987615 234.642133 
L 220.483822 234.531 
L 220.483822 234.530313 
L 222.255791 234.419174 
L 222.255791 234.4064 
L 224.253793 234.295256 
L 224.253793 234.278287 
L 226.429541 234.167137 
L 226.429541 234.150024 
L 228.738623 234.038868 
L 228.738623 234.02551 
L 231.141895 233.914355 
L 231.141895 233.908375 
L 233.841757 233.797208 
L 233.841757 233.789951 
L 236.750237 233.678772 
L 236.750237 233.676848 
L 240.175574 233.565646 
L 240.175574 233.562168 
L 244.101206 233.450943 
L 244.101206 233.450862 
L 249.032602 233.339585 
L 249.032602 233.33683 
L 255.420038 233.22546 
L 255.420038 233.225402 
L 264.930224 233.113813 
L 265.014252 233.112375 
L 284.016907 232.999954 
L 284.106396 232.999503 
L 365.646295 232.932604 
L 365.646295 232.932604 
" style="fill:none;stroke:#1f77b4;stroke-linecap:square;stroke-width:1.5;"/>
   </g>
   <g id="patch_111">
    <path d="M 86.628125 333.36 
L 86.628125 228.147097 
" style="fill:none;stroke:#000000;stroke-linecap:square;stroke-linejoin:miter;stroke-width:0.8;"/>
   </g>
   <g id="patch_112">
    <path d="M 365.628125 333.36 
L 365.628125 228.147097 
" style="fill:none;stroke:#000000;stroke-linecap:square;stroke-linejoin:miter;stroke-width:0.8;"/>
   </g>
   <g id="patch_113">
    <path d="M 86.628125 333.36 
L 365.628125 333.36 
" style="fill:none;stroke:#000000;stroke-linecap:square;stroke-linejoin:miter;stroke-width:0.8;"/>
   </g>
   <g id="patch_114">
    <path d="M 86.628125 228.147097 
L 365.628125 228.147097 
" style="fill:none;stroke:#000000;stroke-linecap:square;stroke-linejoin:miter;stroke-width:0.8;"/>
   </g>
  </g>
 </g>
 <defs>
  <clipPath id="p10c5ce10a6">
   <rect height="105.212903" width="279" x="86.628125" y="7.2"/>
  </clipPath>
  <clipPath id="p2f65cd2dd1">
   <rect height="105.212903" width="279" x="86.628125" y="117.673548"/>
  </clipPath>
  <clipPath id="p7dc26d4b15">
   <rect height="105.212903" width="279" x="86.628125" y="228.147097"/>
  </clipPath>
 </defs>
</svg>
